NuosuSIL-Regular.ufo
<glyph name="exclam" format="2">
  <advance width="709"/>
  <unicode hex="0021"/>
  <outline>
    <contour>
      <point x="473" y="1287" type="line" smooth="yes"/>
      <point x="473" y="1266"/>
      <point x="472" y="1243"/>
      <point x="469" y="1218" type="curve" smooth="yes" name="hr01"/>
      <point x="375" y="373" type="line"/>
      <point x="335" y="373" type="line"/>
      <point x="245" y="1218" type="line" smooth="yes" name="hr02"/>
      <point x="239" y="1268"/>
      <point x="236" y="1296"/>
      <point x="236" y="1297" type="curve" smooth="yes"/>
      <point x="236" y="1343"/>
      <point x="248" y="1379"/>
      <point x="270" y="1404" type="curve" smooth="yes"/>
      <point x="292" y="1430"/>
      <point x="322" y="1443"/>
      <point x="358" y="1443" type="curve" smooth="yes"/>
      <point x="388" y="1443"/>
      <point x="413" y="1431"/>
      <point x="435" y="1409" type="curve" smooth="yes"/>
      <point x="461" y="1380"/>
      <point x="473" y="1340"/>
      <point x="473" y="1287" type="curve" smooth="yes"/>
    </contour>
    <contour>
      <point x="469" y="89" type="line" smooth="yes" name="hr03"/>
      <point x="469" y="56"/>
      <point x="459" y="27"/>
      <point x="436" y="4" type="curve" smooth="yes"/>
      <point x="413" y="-19"/>
      <point x="386" y="-31"/>
      <point x="355" y="-31" type="curve" smooth="yes"/>
      <point x="326" y="-31"/>
      <point x="302" y="-20"/>
      <point x="279" y="-1" type="curve" smooth="yes"/>
      <point x="252" y="20"/>
      <point x="238" y="50"/>
      <point x="238" y="89" type="curve" smooth="yes"/>
      <point x="238" y="123"/>
      <point x="252" y="150"/>
      <point x="278" y="172" type="curve" smooth="yes"/>
      <point x="299" y="192"/>
      <point x="325" y="200"/>
      <point x="355" y="200" type="curve" smooth="yes"/>
      <point x="383" y="200"/>
      <point x="411" y="190"/>
      <point x="433" y="169" type="curve" smooth="yes"/>
      <point x="458" y="147"/>
      <point x="469" y="122"/>
      <point x="469" y="89" type="curve" smooth="yes"/>
    </contour>
  </outline>
</glyph>
<glyph name="quotedbl" format="2">
  <advance width="869"/>
  <unicode hex="0022"/>
  <outline>
    <contour>
      <point x="729" y="1333" type="line" smooth="yes"/>
      <point x="729" y="1283"/>
      <point x="722" y="1220"/>
      <point x="708" y="1140" type="curve" smooth="yes"/>
      <point x="649" y="837" type="line"/>
      <point x="599" y="837" type="line"/>
      <point x="543" y="1140" type="line" smooth="yes"/>
      <point x="526" y="1230"/>
      <point x="519" y="1290"/>
      <point x="519" y="1318" type="curve" smooth="yes"/>
      <point x="519" y="1401"/>
      <point x="555" y="1443"/>
      <point x="625" y="1443" type="curve" smooth="yes"/>
      <point x="656" y="1443"/>
      <point x="682" y="1433"/>
      <point x="701" y="1411" type="curve" smooth="yes"/>
      <point x="721" y="1390"/>
      <point x="729" y="1364"/>
      <point x="729" y="1333" type="curve" smooth="yes"/>
    </contour>
    <contour>
      <point x="349" y="1330" type="line" smooth="yes"/>
      <point x="349" y="1307"/>
      <point x="339" y="1244"/>
      <point x="320" y="1143" type="curve" smooth="yes"/>
      <point x="262" y="837" type="line"/>
      <point x="219" y="837" type="line"/>
      <point x="162" y="1144" type="line" smooth="yes"/>
      <point x="147" y="1224"/>
      <point x="139" y="1283"/>
      <point x="139" y="1318" type="curve" smooth="yes"/>
      <point x="139" y="1401"/>
      <point x="173" y="1443"/>
      <point x="242" y="1443" type="curve" smooth="yes"/>
      <point x="273" y="1443"/>
      <point x="299" y="1433"/>
      <point x="319" y="1413" type="curve" smooth="yes"/>
      <point x="339" y="1391"/>
      <point x="349" y="1364"/>
      <point x="349" y="1330" type="curve" smooth="yes"/>
    </contour>
  </outline>
</glyph>
<glyph name="quotesingle" format="2">
  <advance width="385"/>
  <unicode hex="0027"/>
  <outline>
    <contour>
      <point x="297" y="1333" type="line" smooth="yes"/>
      <point x="297" y="1311"/>
      <point x="287" y="1247"/>
      <point x="269" y="1143" type="curve" smooth="yes"/>
      <point x="213" y="837" type="line"/>
      <point x="166" y="837" type="line"/>
      <point x="110" y="1144" type="line" smooth="yes"/>
      <point x="96" y="1227"/>
      <point x="89" y="1286"/>
      <point x="89" y="1318" type="curve" smooth="yes"/>
      <point x="89" y="1401"/>
      <point x="122" y="1443"/>
      <point x="186" y="1443" type="curve" smooth="yes"/>
      <point x="222" y="1443"/>
      <point x="249" y="1431"/>
      <point x="269" y="1410" type="curve" smooth="yes"/>
      <point x="287" y="1387"/>
      <point x="297" y="1361"/>
      <point x="297" y="1333" type="curve" smooth="yes"/>
    </contour>
  </outline>
</glyph>
<glyph name="parenleft" format="2">
  <advance width="709"/>
  <unicode hex="0028"/>
  <outline>
    <contour>
      <point x="661" y="-458" type="line"/>
      <point x="488" y="-376"/>
      <point x="349" y="-247"/>
      <point x="245" y="-70" type="curve" smooth="yes"/>
      <point x="140" y="109"/>
      <point x="89" y="302"/>
      <point x="89" y="512" type="curve" smooth="yes"/>
      <point x="89" y="725"/>
      <point x="140" y="918"/>
      <point x="246" y="1095" type="curve" smooth="yes"/>
      <point x="352" y="1271"/>
      <point x="489" y="1400"/>
      <point x="661" y="1480" type="curve"/>
      <point x="661" y="1437" type="line"/>
      <point x="542" y="1374"/>
      <point x="452" y="1267"/>
      <point x="388" y="1115" type="curve" smooth="yes"/>
      <point x="320" y="960"/>
      <point x="287" y="768"/>
      <point x="287" y="539" type="curve" smooth="yes"/>
      <point x="287" y="54"/>
      <point x="412" y="-265"/>
      <point x="661" y="-418" type="curve"/>
    </contour>
  </outline>
</glyph>
<glyph name="parenright" format="2">
  <advance width="709"/>
  <unicode hex="0029"/>
  <outline>
    <contour>
      <point x="623" y="509" type="line" smooth="yes"/>
      <point x="623" y="296"/>
      <point x="569" y="102"/>
      <point x="462" y="-77" type="curve" smooth="yes"/>
      <point x="355" y="-257"/>
      <point x="216" y="-383"/>
      <point x="47" y="-458" type="curve"/>
      <point x="47" y="-418" type="line"/>
      <point x="299" y="-285"/>
      <point x="425" y="16"/>
      <point x="425" y="482" type="curve" smooth="yes"/>
      <point x="425" y="684"/>
      <point x="406" y="848"/>
      <point x="370" y="974" type="curve" smooth="yes"/>
      <point x="313" y="1180"/>
      <point x="206" y="1336"/>
      <point x="47" y="1439" type="curve"/>
      <point x="47" y="1480" type="line"/>
      <point x="229" y="1390"/>
      <point x="370" y="1258"/>
      <point x="472" y="1085" type="curve" smooth="yes"/>
      <point x="572" y="912"/>
      <point x="623" y="721"/>
      <point x="623" y="509" type="curve" smooth="yes"/>
    </contour>
  </outline>
</glyph>
<glyph name="asterisk" format="2">
  <advance width="1065"/>
  <unicode hex="002A"/>
  <outline>
    <contour>
      <point x="529" y="618" type="curve" smooth="yes" name="hr01"/>
      <point x="589" y="618"/>
      <point x="619" y="654"/>
      <point x="619" y="728" type="curve" smooth="yes"/>
      <point x="619" y="759"/>
      <point x="609" y="805"/>
      <point x="588" y="867" type="curve" smooth="yes"/>
      <point x="566" y="928"/>
      <point x="556" y="977"/>
      <point x="556" y="1011" type="curve"/>
      <point x="601" y="968"/>
      <point x="645" y="925"/>
      <point x="689" y="884" type="curve" smooth="yes"/>
      <point x="749" y="825"/>
      <point x="799" y="798"/>
      <point x="837" y="798" type="curve" smooth="yes"/>
      <point x="888" y="798"/>
      <point x="914" y="822"/>
      <point x="914" y="874" type="curve" smooth="yes"/>
      <point x="914" y="919"/>
      <point x="871" y="960"/>
      <point x="781" y="988" type="curve" smooth="yes"/>
      <point x="715" y="1010"/>
      <point x="648" y="1027"/>
      <point x="581" y="1048" type="curve"/>
      <point x="648" y="1065"/>
      <point x="715" y="1083"/>
      <point x="781" y="1103" type="curve" smooth="yes"/>
      <point x="872" y="1131"/>
      <point x="917" y="1173"/>
      <point x="917" y="1221" type="curve" smooth="yes"/>
      <point x="917" y="1244"/>
      <point x="908" y="1261"/>
      <point x="892" y="1276" type="curve" smooth="yes"/>
      <point x="875" y="1290"/>
      <point x="857" y="1297"/>
      <point x="834" y="1297" type="curve" smooth="yes" name="hr02"/>
      <point x="801" y="1297"/>
      <point x="755" y="1268"/>
      <point x="695" y="1211" type="curve" smooth="yes"/>
      <point x="612" y="1133"/>
      <point x="565" y="1091"/>
      <point x="556" y="1084" type="curve"/>
      <point x="558" y="1104"/>
      <point x="571" y="1153"/>
      <point x="592" y="1230" type="curve" smooth="yes"/>
      <point x="609" y="1290"/>
      <point x="619" y="1338"/>
      <point x="619" y="1374" type="curve" smooth="yes"/>
      <point x="619" y="1400"/>
      <point x="612" y="1424"/>
      <point x="598" y="1446" type="curve" smooth="yes"/>
      <point x="583" y="1469"/>
      <point x="563" y="1480"/>
      <point x="539" y="1480" type="curve" smooth="yes"/>
      <point x="479" y="1480"/>
      <point x="449" y="1443"/>
      <point x="449" y="1370" type="curve" smooth="yes"/>
      <point x="449" y="1346"/>
      <point x="458" y="1301"/>
      <point x="478" y="1234" type="curve" smooth="yes"/>
      <point x="499" y="1160"/>
      <point x="512" y="1111"/>
      <point x="515" y="1084" type="curve"/>
      <point x="469" y="1128"/>
      <point x="425" y="1171"/>
      <point x="379" y="1214" type="curve" smooth="yes"/>
      <point x="316" y="1271"/>
      <point x="266" y="1300"/>
      <point x="230" y="1300" type="curve" smooth="yes"/>
      <point x="177" y="1300"/>
      <point x="152" y="1274"/>
      <point x="152" y="1224" type="curve" smooth="yes"/>
      <point x="152" y="1187"/>
      <point x="176" y="1157"/>
      <point x="222" y="1134" type="curve" smooth="yes"/>
      <point x="249" y="1120"/>
      <point x="296" y="1103"/>
      <point x="363" y="1087" type="curve" smooth="yes"/>
      <point x="432" y="1070"/>
      <point x="475" y="1057"/>
      <point x="492" y="1048" type="curve"/>
      <point x="423" y="1028"/>
      <point x="355" y="1012"/>
      <point x="289" y="990" type="curve" smooth="yes"/>
      <point x="196" y="960"/>
      <point x="152" y="917"/>
      <point x="152" y="869" type="curve" smooth="yes"/>
      <point x="152" y="849"/>
      <point x="160" y="831"/>
      <point x="177" y="817" type="curve" smooth="yes"/>
      <point x="194" y="802"/>
      <point x="214" y="795"/>
      <point x="236" y="795" type="curve" smooth="yes"/>
      <point x="269" y="795"/>
      <point x="316" y="825"/>
      <point x="379" y="884" type="curve" smooth="yes"/>
      <point x="469" y="968"/>
      <point x="513" y="1011"/>
      <point x="516" y="1012" type="curve"/>
      <point x="515" y="1004"/>
      <point x="502" y="957"/>
      <point x="476" y="869" type="curve" smooth="yes"/>
      <point x="458" y="808"/>
      <point x="449" y="759"/>
      <point x="449" y="724" type="curve" smooth="yes"/>
      <point x="449" y="698"/>
      <point x="456" y="674"/>
      <point x="470" y="651" type="curve" smooth="yes"/>
      <point x="485" y="628"/>
      <point x="505" y="618"/>
    </contour>
  </outline>
</glyph>
<glyph name="plus" format="2">
  <advance width="2051"/>
  <unicode hex="002B"/>
  <outline>
    <contour>
      <point x="1640" y="552" type="line"/>
      <point x="1088" y="552" type="line"/>
      <point x="1088" y="0" type="line"/>
      <point x="961" y="0" type="line"/>
      <point x="961" y="552" type="line"/>
      <point x="410" y="552" type="line"/>
      <point x="410" y="679" type="line"/>
      <point x="961" y="679" type="line"/>
      <point x="961" y="1230" type="line"/>
      <point x="1088" y="1230" type="line"/>
      <point x="1088" y="679" type="line"/>
      <point x="1640" y="679" type="line"/>
    </contour>
  </outline>
</glyph>
<glyph name="comma" format="2">
  <advance width="533"/>
  <unicode hex="002C"/>
  <outline>
    <contour>
      <point x="114" y="-356" type="line"/>
      <point x="322" y="-285"/>
      <point x="425" y="-169"/>
      <point x="425" y="-10" type="curve" smooth="yes"/>
      <point x="425" y="-10" type="line" smooth="yes"/>
      <point x="425" y="57"/>
      <point x="405" y="110"/>
      <point x="368" y="152" type="curve" smooth="yes"/>
      <point x="333" y="189"/>
      <point x="293" y="207"/>
      <point x="250" y="207" type="curve" smooth="yes"/>
      <point x="213" y="207"/>
      <point x="182" y="196"/>
      <point x="154" y="173" type="curve" smooth="yes"/>
      <point x="129" y="150"/>
      <point x="114" y="122"/>
      <point x="114" y="86" type="curve" smooth="yes" name="hr02"/>
      <point x="114" y="9"/>
      <point x="152" y="-31"/>
      <point x="226" y="-31" type="curve" smooth="yes"/>
      <point x="236" y="-31"/>
      <point x="252" y="-26"/>
      <point x="270" y="-16" type="curve" smooth="yes"/>
      <point x="290" y="-6"/>
      <point x="305" y="0"/>
      <point x="316" y="0" type="curve" smooth="yes"/>
      <point x="330" y="0"/>
      <point x="339" y="-14"/>
      <point x="339" y="-41" type="curve" smooth="yes" name="hr01"/>
      <point x="339" y="-106"/>
      <point x="315" y="-163"/>
      <point x="266" y="-216" type="curve" smooth="yes"/>
      <point x="225" y="-260"/>
      <point x="173" y="-292"/>
      <point x="114" y="-309" type="curve"/>
    </contour>
  </outline>
</glyph>
<glyph name="period" format="2">
  <advance width="533"/>
  <unicode hex="002E"/>
  <outline>
    <contour>
      <point x="266" y="-31" type="curve" smooth="yes"/>
      <point x="299" y="-31"/>
      <point x="326" y="-19"/>
      <point x="349" y="4" type="curve" smooth="yes"/>
      <point x="370" y="27"/>
      <point x="382" y="56"/>
      <point x="382" y="89" type="curve" smooth="yes"/>
      <point x="382" y="89" type="line" smooth="yes"/>
      <point x="382" y="122"/>
      <point x="370" y="149"/>
      <point x="347" y="170" type="curve" smooth="yes"/>
      <point x="325" y="192"/>
      <point x="297" y="203"/>
      <point x="266" y="203" type="curve" smooth="yes"/>
      <point x="233" y="203"/>
      <point x="206" y="192"/>
      <point x="184" y="170" type="curve" smooth="yes"/>
      <point x="163" y="149"/>
      <point x="152" y="122"/>
      <point x="152" y="89" type="curve" smooth="yes"/>
      <point x="152" y="56"/>
      <point x="162" y="27"/>
      <point x="183" y="4" type="curve" smooth="yes"/>
      <point x="204" y="-19"/>
      <point x="232" y="-31"/>
    </contour>
  </outline>
</glyph>
<glyph name="zero" format="2">
  <advance width="1065"/>
  <unicode hex="0030"/>
  <outline>
    <contour>
      <point x="990" y="718" type="line" smooth="yes"/>
      <point x="990" y="515"/>
      <point x="950" y="345"/>
      <point x="871" y="204" type="curve" smooth="yes"/>
      <point x="785" y="51"/>
      <point x="671" y="-24"/>
      <point x="526" y="-24" type="curve" smooth="yes"/>
      <point x="395" y="-24"/>
      <point x="283" y="50"/>
      <point x="197" y="199" type="curve" smooth="yes"/>
      <point x="116" y="337"/>
      <point x="76" y="505"/>
      <point x="76" y="696" type="curve" smooth="yes"/>
      <point x="76" y="914"/>
      <point x="122" y="1095"/>
      <point x="216" y="1238" type="curve" smooth="yes"/>
      <point x="303" y="1374"/>
      <point x="412" y="1441"/>
      <point x="538" y="1441" type="curve" smooth="yes"/>
      <point x="662" y="1441"/>
      <point x="766" y="1376"/>
      <point x="852" y="1247" type="curve" smooth="yes"/>
      <point x="944" y="1110"/>
      <point x="990" y="934"/>
      <point x="990" y="718" type="curve" smooth="yes"/>
    </contour>
    <contour>
      <point x="786" y="765" type="line" smooth="yes"/>
      <point x="786" y="955"/>
      <point x="765" y="1104"/>
      <point x="722" y="1211" type="curve" smooth="yes"/>
      <point x="678" y="1320"/>
      <point x="616" y="1374"/>
      <point x="535" y="1374" type="curve" smooth="yes"/>
      <point x="463" y="1374"/>
      <point x="408" y="1327"/>
      <point x="365" y="1236" type="curve" smooth="yes"/>
      <point x="309" y="1117"/>
      <point x="280" y="929"/>
      <point x="280" y="672" type="curve" smooth="yes"/>
      <point x="280" y="468"/>
      <point x="303" y="309"/>
      <point x="349" y="199" type="curve" smooth="yes"/>
      <point x="392" y="93"/>
      <point x="453" y="41"/>
      <point x="531" y="41" type="curve" smooth="yes"/>
      <point x="702" y="41"/>
      <point x="786" y="282"/>
      <point x="786" y="765" type="curve" smooth="yes"/>
    </contour>
  </outline>
</glyph>
<glyph name="one" format="2">
  <advance width="1065"/>
  <unicode hex="0031"/>
  <outline>
    <contour>
      <point x="805" y="0" type="line"/>
      <point x="275" y="0" type="line"/>
      <point x="275" y="39" type="line"/>
      <point x="359" y="39"/>
      <point x="412" y="51"/>
      <point x="432" y="77" type="curve" smooth="yes"/>
      <point x="449" y="100"/>
      <point x="458" y="157"/>
      <point x="458" y="250" type="curve" smooth="yes"/>
      <point x="458" y="1011" type="line" smooth="yes"/>
      <point x="458" y="1111"/>
      <point x="456" y="1173"/>
      <point x="450" y="1195" type="curve" smooth="yes"/>
      <point x="440" y="1246"/>
      <point x="415" y="1271"/>
      <point x="373" y="1271" type="curve" smooth="yes"/>
      <point x="346" y="1271"/>
      <point x="309" y="1261"/>
      <point x="265" y="1240" type="curve"/>
      <point x="250" y="1273" type="line"/>
      <point x="592" y="1441" type="line"/>
      <point x="629" y="1441" type="line"/>
      <point x="629" y="250" type="line" smooth="yes"/>
      <point x="629" y="154"/>
      <point x="638" y="97"/>
      <point x="652" y="77" type="curve" smooth="yes"/>
      <point x="671" y="53"/>
      <point x="721" y="39"/>
      <point x="805" y="39" type="curve"/>
    </contour>
  </outline>
</glyph>
<glyph name="two" format="2">
  <advance width="1065"/>
  <unicode hex="0032"/>
  <outline>
    <contour>
      <point x="978" y="270" type="line"/>
      <point x="878" y="0" type="line"/>
      <point x="47" y="0" type="line"/>
      <point x="47" y="39" type="line"/>
      <point x="174" y="156"/>
      <point x="265" y="243"/>
      <point x="320" y="299" type="curve" smooth="yes"/>
      <point x="419" y="400"/>
      <point x="500" y="496"/>
      <point x="563" y="586" type="curve" smooth="yes"/>
      <point x="664" y="729"/>
      <point x="714" y="859"/>
      <point x="714" y="974" type="curve" smooth="yes"/>
      <point x="714" y="1081"/>
      <point x="678" y="1161"/>
      <point x="606" y="1218" type="curve" smooth="yes"/>
      <point x="553" y="1260"/>
      <point x="496" y="1281"/>
      <point x="435" y="1281" type="curve" smooth="yes"/>
      <point x="283" y="1281"/>
      <point x="180" y="1203"/>
      <point x="124" y="1044" type="curve"/>
      <point x="89" y="1044" type="line"/>
      <point x="100" y="1141"/>
      <point x="130" y="1223"/>
      <point x="179" y="1290" type="curve" smooth="yes"/>
      <point x="250" y="1390"/>
      <point x="353" y="1441"/>
      <point x="488" y="1441" type="curve" smooth="yes"/>
      <point x="595" y="1441"/>
      <point x="686" y="1409"/>
      <point x="765" y="1343" type="curve" smooth="yes"/>
      <point x="849" y="1271"/>
      <point x="892" y="1181"/>
      <point x="892" y="1070" type="curve" smooth="yes"/>
      <point x="892" y="908"/>
      <point x="792" y="716"/>
      <point x="591" y="498" type="curve" smooth="yes"/>
      <point x="409" y="302"/>
      <point x="302" y="187"/>
      <point x="269" y="157" type="curve"/>
      <point x="638" y="157" type="line" smooth="yes"/>
      <point x="726" y="157"/>
      <point x="784" y="162"/>
      <point x="809" y="169" type="curve" smooth="yes"/>
      <point x="858" y="182"/>
      <point x="901" y="216"/>
      <point x="940" y="270" type="curve"/>
    </contour>
  </outline>
</glyph>
<glyph name="four" format="2">
  <advance width="1065"/>
  <unicode hex="0034"/>
  <outline>
    <contour>
      <point x="990" y="373" type="line"/>
      <point x="804" y="373" type="line" name="hr01"/>
      <point x="804" y="0" type="line"/>
      <point x="632" y="0" type="line"/>
      <point x="632" y="373" type="line"/>
      <point x="33" y="373" type="line" name="hr02"/>
      <point x="33" y="505" type="line"/>
      <point x="689" y="1441" type="line"/>
      <point x="804" y="1441" type="line" name="hr03"/>
      <point x="804" y="521" type="line"/>
      <point x="990" y="521" type="line" name="hr04"/>
    </contour>
    <contour>
      <point x="632" y="521" type="line" name="hr05"/>
      <point x="632" y="1221" type="line"/>
      <point x="136" y="521" type="line"/>
    </contour>
  </outline>
</glyph>
<glyph name="six" format="2">
  <advance width="1065"/>
  <unicode hex="0036"/>
  <outline>
    <contour>
      <point x="535" y="-24" type="curve" smooth="yes"/>
      <point x="666" y="-24"/>
      <point x="775" y="29"/>
      <point x="864" y="133" type="curve" smooth="yes"/>
      <point x="944" y="230"/>
      <point x="984" y="345"/>
      <point x="984" y="476" type="curve" smooth="yes"/>
      <point x="984" y="476" type="line" smooth="yes"/>
      <point x="984" y="615"/>
      <point x="941" y="724"/>
      <point x="852" y="802" type="curve" smooth="yes"/>
      <point x="785" y="862"/>
      <point x="709" y="892"/>
      <point x="628" y="892" type="curve" smooth="yes"/>
      <point x="528" y="892"/>
      <point x="428" y="857"/>
      <point x="326" y="786" type="curve"/>
      <point x="369" y="965"/>
      <point x="446" y="1110"/>
      <point x="558" y="1221" type="curve" smooth="yes"/>
      <point x="669" y="1334"/>
      <point x="802" y="1394"/>
      <point x="955" y="1403" type="curve"/>
      <point x="955" y="1441" type="line"/>
      <point x="895" y="1441" type="line" smooth="yes"/>
      <point x="712" y="1441"/>
      <point x="542" y="1367"/>
      <point x="383" y="1218" type="curve" smooth="yes"/>
      <point x="189" y="1035"/>
      <point x="93" y="814"/>
      <point x="93" y="553" type="curve" smooth="yes"/>
      <point x="93" y="393"/>
      <point x="133" y="259"/>
      <point x="216" y="147" type="curve" smooth="yes"/>
      <point x="300" y="33"/>
      <point x="406" y="-24"/>
    </contour>
    <contour>
      <point x="566" y="33" type="curve" smooth="yes"/>
      <point x="483" y="30"/>
      <point x="415" y="80"/>
      <point x="360" y="184" type="curve" smooth="yes"/>
      <point x="313" y="276"/>
      <point x="289" y="376"/>
      <point x="289" y="486" type="curve" smooth="yes"/>
      <point x="289" y="533"/>
      <point x="296" y="609"/>
      <point x="309" y="711" type="curve"/>
      <point x="406" y="772"/>
      <point x="479" y="802"/>
      <point x="526" y="802" type="curve" smooth="yes"/>
      <point x="616" y="802"/>
      <point x="685" y="756"/>
      <point x="734" y="664" type="curve" smooth="yes"/>
      <point x="776" y="583"/>
      <point x="798" y="483"/>
      <point x="798" y="363" type="curve" smooth="yes"/>
      <point x="798" y="363" type="line" smooth="yes"/>
      <point x="798" y="260"/>
      <point x="774" y="179"/>
      <point x="728" y="119" type="curve" smooth="yes"/>
      <point x="685" y="64"/>
      <point x="632" y="36"/>
    </contour>
  </outline>
</glyph>
<glyph name="eight" format="2">
  <advance width="1065"/>
  <unicode hex="0038"/>
  <outline>
    <contour>
      <point x="942" y="335" type="line" smooth="yes"/>
      <point x="942" y="247"/>
      <point x="915" y="172"/>
      <point x="861" y="107" type="curve" smooth="yes"/>
      <point x="788" y="19"/>
      <point x="678" y="-24"/>
      <point x="533" y="-24" type="curve" smooth="yes"/>
      <point x="409" y="-24"/>
      <point x="309" y="13"/>
      <point x="232" y="89" type="curve" smooth="yes"/>
      <point x="163" y="156"/>
      <point x="127" y="233"/>
      <point x="127" y="322" type="curve" smooth="yes"/>
      <point x="127" y="450"/>
      <point x="222" y="579"/>
      <point x="410" y="709" type="curve"/>
      <point x="322" y="786"/>
      <point x="262" y="839"/>
      <point x="236" y="871" type="curve" smooth="yes"/>
      <point x="174" y="944"/>
      <point x="146" y="1022"/>
      <point x="146" y="1105" type="curve" smooth="yes" name="hr01"/>
      <point x="146" y="1205"/>
      <point x="184" y="1288"/>
      <point x="262" y="1351" type="curve" smooth="yes"/>
      <point x="336" y="1411"/>
      <point x="426" y="1441"/>
      <point x="533" y="1441" type="curve" smooth="yes"/>
      <point x="666" y="1441"/>
      <point x="769" y="1401"/>
      <point x="838" y="1320" type="curve" smooth="yes"/>
      <point x="888" y="1261"/>
      <point x="912" y="1200"/>
      <point x="912" y="1135" type="curve" smooth="yes"/>
      <point x="912" y="1062"/>
      <point x="879" y="991"/>
      <point x="812" y="925" type="curve" smooth="yes"/>
      <point x="771" y="884"/>
      <point x="708" y="837"/>
      <point x="621" y="784" type="curve"/>
      <point x="718" y="708"/>
      <point x="788" y="648"/>
      <point x="828" y="602" type="curve" smooth="yes"/>
      <point x="905" y="516"/>
      <point x="942" y="426"/>
      <point x="942" y="335" type="curve" smooth="yes" name="hr02"/>
    </contour>
    <contour>
      <point x="762" y="1148" type="line" smooth="yes" name="hr03"/>
      <point x="762" y="1303"/>
      <point x="686" y="1380"/>
      <point x="535" y="1380" type="curve" smooth="yes"/>
      <point x="468" y="1380"/>
      <point x="412" y="1361"/>
      <point x="366" y="1324" type="curve" smooth="yes"/>
      <point x="320" y="1287"/>
      <point x="297" y="1237"/>
      <point x="297" y="1174" type="curve" smooth="yes"/>
      <point x="297" y="1111"/>
      <point x="322" y="1052"/>
      <point x="369" y="998" type="curve" smooth="yes"/>
      <point x="398" y="965"/>
      <point x="466" y="907"/>
      <point x="573" y="822" type="curve"/>
      <point x="643" y="888"/>
      <point x="688" y="934"/>
      <point x="708" y="961" type="curve" smooth="yes"/>
      <point x="744" y="1015"/>
      <point x="762" y="1077"/>
      <point x="762" y="1148" type="curve" smooth="yes"/>
    </contour>
    <contour>
      <point x="795" y="250" type="line" smooth="yes" name="hr04"/>
      <point x="795" y="326"/>
      <point x="758" y="409"/>
      <point x="675" y="488" type="curve" smooth="yes"/>
      <point x="606" y="552"/>
      <point x="532" y="611"/>
      <point x="459" y="672" type="curve"/>
      <point x="345" y="573"/>
      <point x="287" y="459"/>
      <point x="287" y="326" type="curve" smooth="yes"/>
      <point x="287" y="235"/>
      <point x="312" y="163"/>
      <point x="360" y="110" type="curve" smooth="yes"/>
      <point x="410" y="59"/>
      <point x="472" y="33"/>
      <point x="548" y="33" type="curve" smooth="yes"/>
      <point x="618" y="33"/>
      <point x="678" y="53"/>
      <point x="725" y="92" type="curve" smooth="yes"/>
      <point x="772" y="130"/>
      <point x="795" y="183"/>
      <point x="795" y="250" type="curve" smooth="yes"/>
    </contour>
  </outline>
</glyph>
<glyph name="colon" format="2">
  <advance width="595"/>
  <unicode hex="003A"/>
  <outline>
    <contour>
      <point x="297" y="-31" type="curve" smooth="yes"/>
      <point x="327" y="-31"/>
      <point x="355" y="-20"/>
      <point x="378" y="3" type="curve" smooth="yes"/>
      <point x="402" y="26"/>
      <point x="415" y="54"/>
      <point x="415" y="89" type="curve" smooth="yes"/>
      <point x="415" y="123"/>
      <point x="402" y="150"/>
      <point x="378" y="172" type="curve" smooth="yes"/>
      <point x="353" y="193"/>
      <point x="326" y="203"/>
      <point x="297" y="203" type="curve" smooth="yes"/>
      <point x="269" y="203"/>
      <point x="242" y="193"/>
      <point x="217" y="172" type="curve" smooth="yes"/>
      <point x="193" y="152"/>
      <point x="180" y="123"/>
      <point x="180" y="89" type="curve" smooth="yes"/>
      <point x="180" y="54"/>
      <point x="192" y="26"/>
      <point x="216" y="3" type="curve" smooth="yes"/>
      <point x="239" y="-20"/>
      <point x="266" y="-31"/>
    </contour>
    <contour>
      <point x="299" y="752" type="curve" smooth="yes"/>
      <point x="329" y="752"/>
      <point x="356" y="764"/>
      <point x="379" y="785" type="curve" smooth="yes"/>
      <point x="402" y="807"/>
      <point x="415" y="834"/>
      <point x="415" y="867" type="curve" smooth="yes"/>
      <point x="415" y="899"/>
      <point x="403" y="927"/>
      <point x="380" y="950" type="curve" smooth="yes"/>
      <point x="357" y="971"/>
      <point x="330" y="982"/>
      <point x="299" y="982" type="curve" smooth="yes"/>
      <point x="266" y="982"/>
      <point x="239" y="971"/>
      <point x="216" y="950" type="curve" smooth="yes"/>
      <point x="193" y="927"/>
      <point x="183" y="899"/>
      <point x="183" y="867" type="curve" smooth="yes"/>
      <point x="183" y="835"/>
      <point x="194" y="809"/>
      <point x="217" y="786" type="curve" smooth="yes"/>
      <point x="240" y="764"/>
      <point x="267" y="752"/>
    </contour>
  </outline>
</glyph>
<glyph name="semicolon" format="2">
  <advance width="595"/>
  <unicode hex="003B"/>
  <outline>
    <contour>
      <point x="440" y="869" type="line" smooth="yes"/>
      <point x="440" y="837"/>
      <point x="429" y="809"/>
      <point x="406" y="786" type="curve" smooth="yes"/>
      <point x="383" y="765"/>
      <point x="356" y="755"/>
      <point x="326" y="755" type="curve" smooth="yes"/>
      <point x="295" y="755"/>
      <point x="267" y="765"/>
      <point x="245" y="788" type="curve" smooth="yes"/>
      <point x="220" y="811"/>
      <point x="209" y="838"/>
      <point x="209" y="869" type="curve" smooth="yes"/>
      <point x="209" y="902"/>
      <point x="220" y="929"/>
      <point x="243" y="951" type="curve" smooth="yes"/>
      <point x="266" y="972"/>
      <point x="293" y="984"/>
      <point x="326" y="984" type="curve" smooth="yes"/>
      <point x="357" y="984"/>
      <point x="385" y="972"/>
      <point x="408" y="951" type="curve" smooth="yes"/>
      <point x="429" y="929"/>
      <point x="440" y="902"/>
      <point x="440" y="869" type="curve" smooth="yes"/>
    </contour>
    <contour>
      <point x="488" y="-10" type="line" smooth="yes" name="hr01"/>
      <point x="488" y="-169"/>
      <point x="385" y="-285"/>
      <point x="179" y="-356" type="curve"/>
      <point x="179" y="-309" type="line"/>
      <point x="237" y="-292"/>
      <point x="287" y="-260"/>
      <point x="330" y="-216" type="curve" smooth="yes"/>
      <point x="378" y="-163"/>
      <point x="402" y="-106"/>
      <point x="402" y="-41" type="curve" smooth="yes" name="hr02"/>
      <point x="402" y="-14"/>
      <point x="395" y="0"/>
      <point x="379" y="0" type="curve" smooth="yes"/>
      <point x="369" y="0"/>
      <point x="353" y="-6"/>
      <point x="335" y="-16" type="curve" smooth="yes"/>
      <point x="315" y="-26"/>
      <point x="300" y="-31"/>
      <point x="289" y="-31" type="curve" smooth="yes"/>
      <point x="216" y="-31"/>
      <point x="179" y="9"/>
      <point x="179" y="86" type="curve" smooth="yes" name="hr03"/>
      <point x="179" y="122"/>
      <point x="192" y="150"/>
      <point x="219" y="173" type="curve" smooth="yes"/>
      <point x="245" y="196"/>
      <point x="277" y="207"/>
      <point x="313" y="207" type="curve" smooth="yes"/>
      <point x="357" y="207"/>
      <point x="396" y="189"/>
      <point x="430" y="152" type="curve" smooth="yes"/>
      <point x="469" y="110"/>
      <point x="488" y="57"/>
      <point x="488" y="-10" type="curve" smooth="yes"/>
    </contour>
  </outline>
</glyph>
<glyph name="greater" format="2">
  <advance width="2051"/>
  <unicode hex="003E"/>
  <outline>
    <contour>
      <point x="410" y="80" type="line"/>
      <point x="1640" y="552" type="line"/>
      <point x="1640" y="679" type="line"/>
      <point x="410" y="1150" type="line"/>
      <point x="410" y="1022" type="line"/>
      <point x="1509" y="615" type="line"/>
      <point x="410" y="207" type="line"/>
    </contour>
  </outline>
</glyph>
<glyph name="A" format="2">
  <advance width="1532"/>
  <unicode hex="0041"/>
  <outline>
    <contour>
      <point x="1514" y="0" type="line"/>
      <point x="960" y="0" type="line"/>
      <point x="960" y="39" type="line"/>
      <point x="1054" y="40"/>
      <point x="1101" y="70"/>
      <point x="1101" y="129" type="curve" smooth="yes"/>
      <point x="1101" y="156"/>
      <point x="1088" y="204"/>
      <point x="1060" y="270" type="curve" smooth="yes"/>
      <point x="975" y="473" type="line"/>
      <point x="429" y="473" type="line"/>
      <point x="332" y="247" type="line" smooth="yes"/>
      <point x="309" y="193"/>
      <point x="297" y="154"/>
      <point x="297" y="132" type="curve" smooth="yes"/>
      <point x="297" y="79"/>
      <point x="352" y="49"/>
      <point x="462" y="39" type="curve"/>
      <point x="462" y="0" type="line"/>
      <point x="16" y="0" type="line"/>
      <point x="16" y="39" type="line"/>
      <point x="73" y="43"/>
      <point x="119" y="64"/>
      <point x="154" y="104" type="curve" smooth="yes"/>
      <point x="183" y="137"/>
      <point x="214" y="196"/>
      <point x="250" y="280" type="curve" smooth="yes"/>
      <point x="746" y="1443" type="line"/>
      <point x="784" y="1443" type="line"/>
      <point x="1273" y="270" type="line" smooth="yes"/>
      <point x="1313" y="174"/>
      <point x="1350" y="113"/>
      <point x="1381" y="84" type="curve" smooth="yes"/>
      <point x="1410" y="59"/>
      <point x="1453" y="43"/>
      <point x="1514" y="39" type="curve"/>
    </contour>
    <contour>
      <point x="947" y="549" type="line"/>
      <point x="708" y="1121" type="line"/>
      <point x="462" y="549" type="line"/>
    </contour>
  </outline>
</glyph>
<glyph name="B" format="2">
  <advance width="1386"/>
  <unicode hex="0042"/>
  <outline>
    <contour>
      <point x="1304" y="386" type="line" smooth="yes"/>
      <point x="1304" y="270"/>
      <point x="1257" y="176"/>
      <point x="1163" y="103" type="curve" smooth="yes"/>
      <point x="1075" y="34"/>
      <point x="921" y="0"/>
      <point x="701" y="0" type="curve" smooth="yes"/>
      <point x="37" y="0" type="line"/>
      <point x="37" y="39" type="line" name="hr01"/>
      <point x="89" y="39" type="line" smooth="yes"/>
      <point x="147" y="39"/>
      <point x="190" y="57"/>
      <point x="216" y="96" type="curve" smooth="yes"/>
      <point x="230" y="119"/>
      <point x="237" y="170"/>
      <point x="237" y="250" type="curve" smooth="yes"/>
      <point x="237" y="1163" type="line" smooth="yes"/>
      <point x="237" y="1251"/>
      <point x="229" y="1307"/>
      <point x="209" y="1328" type="curve" smooth="yes"/>
      <point x="183" y="1358"/>
      <point x="143" y="1374"/>
      <point x="89" y="1374" type="curve" smooth="yes"/>
      <point x="37" y="1374" type="line"/>
      <point x="37" y="1410" type="line"/>
      <point x="646" y="1410" type="line" smooth="yes"/>
      <point x="1042" y="1410"/>
      <point x="1240" y="1284"/>
      <point x="1240" y="1034" type="curve" smooth="yes"/>
      <point x="1240" y="962"/>
      <point x="1218" y="899"/>
      <point x="1177" y="847" type="curve" smooth="yes"/>
      <point x="1131" y="789"/>
      <point x="1067" y="748"/>
      <point x="984" y="722" type="curve"/>
      <point x="1197" y="681"/>
      <point x="1304" y="569"/>
      <point x="1304" y="386" type="curve" smooth="yes" name="hr02"/>
    </contour>
    <contour>
      <point x="1021" y="1044" type="line" smooth="yes" name="hr03"/>
      <point x="1021" y="1128"/>
      <point x="990" y="1198"/>
      <point x="925" y="1253" type="curve" smooth="yes"/>
      <point x="854" y="1311"/>
      <point x="755" y="1341"/>
      <point x="628" y="1341" type="curve" smooth="yes"/>
      <point x="555" y="1341"/>
      <point x="492" y="1334"/>
      <point x="439" y="1320" type="curve"/>
      <point x="439" y="776" type="line"/>
      <point x="479" y="768"/>
      <point x="546" y="762"/>
      <point x="638" y="762" type="curve" smooth="yes"/>
      <point x="894" y="762"/>
      <point x="1021" y="857"/>
      <point x="1021" y="1044" type="curve" smooth="yes"/>
    </contour>
    <contour>
      <point x="1064" y="369" type="line" smooth="yes" name="hr04"/>
      <point x="1064" y="466"/>
      <point x="1025" y="543"/>
      <point x="950" y="602" type="curve" smooth="yes"/>
      <point x="872" y="662"/>
      <point x="764" y="691"/>
      <point x="623" y="691" type="curve" smooth="yes"/>
      <point x="533" y="691"/>
      <point x="472" y="688"/>
      <point x="439" y="681" type="curve"/>
      <point x="439" y="103" type="line"/>
      <point x="523" y="83"/>
      <point x="603" y="74"/>
      <point x="679" y="74" type="curve" smooth="yes"/>
      <point x="801" y="74"/>
      <point x="895" y="102"/>
      <point x="965" y="157" type="curve" smooth="yes"/>
      <point x="1031" y="210"/>
      <point x="1064" y="280"/>
      <point x="1064" y="369" type="curve" smooth="yes"/>
    </contour>
  </outline>
</glyph>
<glyph name="F" format="2">
  <advance width="1185"/>
  <unicode hex="0046"/>
  <outline>
    <contour>
      <point x="1098" y="1103" type="line"/>
      <point x="1062" y="1103" type="line"/>
      <point x="1035" y="1193"/>
      <point x="1002" y="1253"/>
      <point x="964" y="1283" type="curve" smooth="yes"/>
      <point x="919" y="1317"/>
      <point x="848" y="1334"/>
      <point x="748" y="1334" type="curve" smooth="yes" name="hr01"/>
      <point x="436" y="1334" type="line"/>
      <point x="436" y="781" type="line"/>
      <point x="694" y="781" type="line" smooth="yes"/>
      <point x="755" y="781"/>
      <point x="798" y="795"/>
      <point x="824" y="821" type="curve" smooth="yes"/>
      <point x="848" y="848"/>
      <point x="867" y="898"/>
      <point x="878" y="972" type="curve"/>
      <point x="917" y="972" type="line"/>
      <point x="917" y="493" type="line" name="hr02"/>
      <point x="878" y="493" type="line"/>
      <point x="878" y="563"/>
      <point x="864" y="615"/>
      <point x="837" y="646" type="curve" smooth="yes"/>
      <point x="809" y="678"/>
      <point x="761" y="694"/>
      <point x="694" y="694" type="curve" smooth="yes" name="hr03"/>
      <point x="436" y="694" type="line"/>
      <point x="436" y="250" type="line" smooth="yes"/>
      <point x="436" y="160"/>
      <point x="445" y="107"/>
      <point x="459" y="93" type="curve"/>
      <point x="488" y="57"/>
      <point x="531" y="39"/>
      <point x="588" y="39" type="curve" smooth="yes"/>
      <point x="639" y="39" type="line"/>
      <point x="639" y="0" type="line"/>
      <point x="34" y="0" type="line"/>
      <point x="34" y="39" type="line"/>
      <point x="86" y="39" type="line" smooth="yes"/>
      <point x="142" y="39"/>
      <point x="184" y="56"/>
      <point x="212" y="90" type="curve" smooth="yes"/>
      <point x="227" y="110"/>
      <point x="236" y="164"/>
      <point x="236" y="250" type="curve" smooth="yes"/>
      <point x="236" y="1163" type="line" smooth="yes"/>
      <point x="236" y="1253"/>
      <point x="226" y="1307"/>
      <point x="207" y="1327" type="curve" smooth="yes"/>
      <point x="176" y="1358"/>
      <point x="136" y="1374"/>
      <point x="86" y="1374" type="curve" smooth="yes"/>
      <point x="34" y="1374" type="line"/>
      <point x="34" y="1410" type="line" name="hr04"/>
      <point x="1084" y="1410" type="line"/>
    </contour>
  </outline>
</glyph>
<glyph name="H" format="2">
  <advance width="1540"/>
  <unicode hex="0048"/>
  <outline>
    <contour>
      <point x="1497" y="0" type="line"/>
      <point x="892" y="0" type="line"/>
      <point x="892" y="39" type="line"/>
      <point x="942" y="39" type="line" smooth="yes"/>
      <point x="1001" y="39"/>
      <point x="1042" y="56"/>
      <point x="1068" y="90" type="curve" smooth="yes"/>
      <point x="1085" y="113"/>
      <point x="1095" y="167"/>
      <point x="1095" y="250" type="curve" smooth="yes"/>
      <point x="1095" y="681" type="line"/>
      <point x="436" y="681" type="line"/>
      <point x="436" y="250" type="line" smooth="yes"/>
      <point x="436" y="163"/>
      <point x="446" y="109"/>
      <point x="463" y="89" type="curve" smooth="yes"/>
      <point x="490" y="56"/>
      <point x="533" y="39"/>
      <point x="591" y="39" type="curve" smooth="yes"/>
      <point x="642" y="39" type="line"/>
      <point x="642" y="0" type="line"/>
      <point x="37" y="0" type="line"/>
      <point x="37" y="39" type="line"/>
      <point x="89" y="39" type="line" smooth="yes"/>
      <point x="144" y="39"/>
      <point x="186" y="56"/>
      <point x="213" y="90" type="curve" smooth="yes"/>
      <point x="230" y="110"/>
      <point x="237" y="164"/>
      <point x="237" y="250" type="curve" smooth="yes"/>
      <point x="237" y="1163" type="line" smooth="yes"/>
      <point x="237" y="1247"/>
      <point x="229" y="1301"/>
      <point x="209" y="1327" type="curve" smooth="yes"/>
      <point x="184" y="1358"/>
      <point x="144" y="1374"/>
      <point x="89" y="1374" type="curve" smooth="yes"/>
      <point x="37" y="1374" type="line"/>
      <point x="37" y="1410" type="line"/>
      <point x="642" y="1410" type="line"/>
      <point x="642" y="1374" type="line"/>
      <point x="591" y="1374" type="line" smooth="yes"/>
      <point x="538" y="1374"/>
      <point x="496" y="1358"/>
      <point x="469" y="1328" type="curve" smooth="yes"/>
      <point x="448" y="1304"/>
      <point x="436" y="1248"/>
      <point x="436" y="1163" type="curve" smooth="yes"/>
      <point x="436" y="756" type="line"/>
      <point x="1095" y="756" type="line"/>
      <point x="1095" y="1163" type="line" smooth="yes"/>
      <point x="1095" y="1253"/>
      <point x="1084" y="1308"/>
      <point x="1064" y="1328" type="curve" smooth="yes"/>
      <point x="1034" y="1358"/>
      <point x="994" y="1374"/>
      <point x="942" y="1374" type="curve" smooth="yes"/>
      <point x="892" y="1374" type="line"/>
      <point x="892" y="1410" type="line"/>
      <point x="1497" y="1410" type="line"/>
      <point x="1497" y="1374" type="line"/>
      <point x="1446" y="1374" type="line" smooth="yes"/>
      <point x="1393" y="1374"/>
      <point x="1353" y="1358"/>
      <point x="1324" y="1328" type="curve" smooth="yes"/>
      <point x="1310" y="1313"/>
      <point x="1301" y="1296"/>
      <point x="1297" y="1276" type="curve" smooth="yes"/>
      <point x="1296" y="1260"/>
      <point x="1294" y="1223"/>
      <point x="1294" y="1163" type="curve" smooth="yes"/>
      <point x="1294" y="250" type="line" smooth="yes"/>
      <point x="1294" y="167"/>
      <point x="1301" y="113"/>
      <point x="1318" y="90" type="curve" smooth="yes"/>
      <point x="1343" y="56"/>
      <point x="1386" y="39"/>
      <point x="1446" y="39" type="curve" smooth="yes"/>
      <point x="1497" y="39" type="line"/>
    </contour>
  </outline>
</glyph>
<glyph name="J" format="2">
  <advance width="831"/>
  <unicode hex="004A"/>
  <outline>
    <contour>
      <point x="817" y="1374" type="line"/>
      <point x="765" y="1374" type="line" smooth="yes"/>
      <point x="711" y="1374"/>
      <point x="669" y="1357"/>
      <point x="639" y="1323" type="curve" smooth="yes"/>
      <point x="622" y="1301"/>
      <point x="615" y="1247"/>
      <point x="615" y="1163" type="curve" smooth="yes"/>
      <point x="615" y="472" type="line" smooth="yes"/>
      <point x="615" y="280"/>
      <point x="571" y="143"/>
      <point x="483" y="57" type="curve" smooth="yes"/>
      <point x="422" y="-3"/>
      <point x="346" y="-33"/>
      <point x="255" y="-33" type="curve" smooth="yes"/>
      <point x="189" y="-33"/>
      <point x="137" y="-17"/>
      <point x="100" y="14" type="curve" smooth="yes"/>
      <point x="63" y="46"/>
      <point x="46" y="83"/>
      <point x="46" y="127" type="curve" smooth="yes"/>
      <point x="46" y="200"/>
      <point x="80" y="236"/>
      <point x="150" y="236" type="curve" smooth="yes"/>
      <point x="196" y="236"/>
      <point x="233" y="203"/>
      <point x="260" y="139" type="curve" smooth="yes"/>
      <point x="287" y="73"/>
      <point x="313" y="41"/>
      <point x="339" y="41" type="curve" smooth="yes"/>
      <point x="390" y="41"/>
      <point x="416" y="93"/>
      <point x="416" y="199" type="curve" smooth="yes"/>
      <point x="416" y="1163" type="line" smooth="yes"/>
      <point x="416" y="1241"/>
      <point x="409" y="1293"/>
      <point x="396" y="1316" type="curve" smooth="yes"/>
      <point x="388" y="1331"/>
      <point x="370" y="1344"/>
      <point x="343" y="1356" type="curve" smooth="yes"/>
      <point x="316" y="1367"/>
      <point x="290" y="1374"/>
      <point x="262" y="1374" type="curve" smooth="yes"/>
      <point x="213" y="1374" type="line"/>
      <point x="213" y="1410" type="line"/>
      <point x="817" y="1410" type="line"/>
    </contour>
  </outline>
</glyph>
<glyph name="K" format="2">
  <advance width="1540"/>
  <unicode hex="004B"/>
  <outline>
    <contour>
      <point x="1559" y="0" type="line"/>
      <point x="885" y="0" type="line"/>
      <point x="885" y="39" type="line"/>
      <point x="957" y="39"/>
      <point x="995" y="61"/>
      <point x="1001" y="104" type="curve" smooth="yes"/>
      <point x="1004" y="127"/>
      <point x="977" y="167"/>
      <point x="922" y="222" type="curve" smooth="yes"/>
      <point x="498" y="643" type="line"/>
      <point x="436" y="582" type="line"/>
      <point x="436" y="250" type="line" smooth="yes"/>
      <point x="436" y="167"/>
      <point x="445" y="113"/>
      <point x="462" y="90" type="curve" smooth="yes"/>
      <point x="486" y="56"/>
      <point x="528" y="39"/>
      <point x="588" y="39" type="curve" smooth="yes"/>
      <point x="638" y="39" type="line"/>
      <point x="638" y="0" type="line"/>
      <point x="37" y="0" type="line"/>
      <point x="37" y="39" type="line"/>
      <point x="86" y="39" type="line" smooth="yes"/>
      <point x="143" y="39"/>
      <point x="186" y="56"/>
      <point x="213" y="90" type="curve" smooth="yes"/>
      <point x="229" y="109"/>
      <point x="236" y="163"/>
      <point x="236" y="250" type="curve" smooth="yes"/>
      <point x="236" y="1163" type="line" smooth="yes"/>
      <point x="236" y="1253"/>
      <point x="227" y="1308"/>
      <point x="209" y="1328" type="curve" smooth="yes"/>
      <point x="200" y="1338"/>
      <point x="184" y="1348"/>
      <point x="157" y="1358" type="curve" smooth="yes"/>
      <point x="132" y="1369"/>
      <point x="109" y="1374"/>
      <point x="86" y="1374" type="curve" smooth="yes"/>
      <point x="37" y="1374" type="line"/>
      <point x="37" y="1410" type="line"/>
      <point x="638" y="1410" type="line"/>
      <point x="638" y="1374" type="line"/>
      <point x="588" y="1374" type="line" smooth="yes"/>
      <point x="538" y="1374"/>
      <point x="500" y="1361"/>
      <point x="475" y="1336" type="curve" smooth="yes"/>
      <point x="449" y="1310"/>
      <point x="436" y="1253"/>
      <point x="436" y="1163" type="curve" smooth="yes"/>
      <point x="436" y="719" type="line"/>
      <point x="456" y="736"/>
      <point x="503" y="779"/>
      <point x="581" y="851" type="curve" smooth="yes"/>
      <point x="775" y="1032"/>
      <point x="899" y="1163"/>
      <point x="954" y="1240" type="curve" smooth="yes"/>
      <point x="971" y="1266"/>
      <point x="980" y="1291"/>
      <point x="980" y="1314" type="curve" smooth="yes"/>
      <point x="980" y="1354"/>
      <point x="948" y="1374"/>
      <point x="885" y="1374" type="curve" smooth="yes"/>
      <point x="852" y="1374" type="line" name="hr01"/>
      <point x="852" y="1410" type="line"/>
      <point x="1374" y="1410" type="line"/>
      <point x="1374" y="1374" type="line"/>
      <point x="1317" y="1374"/>
      <point x="1258" y="1354"/>
      <point x="1197" y="1316" type="curve" smooth="yes"/>
      <point x="1155" y="1290"/>
      <point x="1120" y="1264"/>
      <point x="1091" y="1236" type="curve" smooth="yes"/>
      <point x="1088" y="1234"/>
      <point x="1008" y="1154"/>
      <point x="852" y="998" type="curve" smooth="yes"/>
      <point x="638" y="784" type="line"/>
      <point x="1158" y="265" type="line" smooth="yes"/>
      <point x="1244" y="179"/>
      <point x="1317" y="122"/>
      <point x="1377" y="90" type="curve" smooth="yes"/>
      <point x="1431" y="63"/>
      <point x="1493" y="46"/>
      <point x="1559" y="39" type="curve" name="hr02"/>
    </contour>
  </outline>
</glyph>
<glyph name="O" format="2">
  <advance width="1540"/>
  <unicode hex="004F"/>
  <outline>
    <contour>
      <point x="762" y="-33" type="curve" smooth="yes"/>
      <point x="960" y="-33"/>
      <point x="1124" y="39"/>
      <point x="1257" y="180" type="curve" smooth="yes"/>
      <point x="1389" y="323"/>
      <point x="1456" y="500"/>
      <point x="1456" y="714" type="curve" smooth="yes"/>
      <point x="1456" y="922"/>
      <point x="1390" y="1097"/>
      <point x="1258" y="1236" type="curve" smooth="yes"/>
      <point x="1127" y="1374"/>
      <point x="968" y="1443"/>
      <point x="781" y="1443" type="curve" smooth="yes"/>
      <point x="581" y="1443"/>
      <point x="412" y="1374"/>
      <point x="277" y="1234" type="curve" smooth="yes"/>
      <point x="142" y="1095"/>
      <point x="74" y="919"/>
      <point x="74" y="709" type="curve" smooth="yes"/>
      <point x="74" y="492"/>
      <point x="140" y="313"/>
      <point x="275" y="172" type="curve" smooth="yes"/>
      <point x="405" y="36"/>
      <point x="568" y="-33"/>
    </contour>
    <contour>
      <point x="761" y="41" type="curve" smooth="yes"/>
      <point x="618" y="43"/>
      <point x="508" y="106"/>
      <point x="429" y="230" type="curve" smooth="yes"/>
      <point x="352" y="350"/>
      <point x="313" y="512"/>
      <point x="313" y="715" type="curve" smooth="yes"/>
      <point x="313" y="919"/>
      <point x="353" y="1080"/>
      <point x="430" y="1197" type="curve" smooth="yes"/>
      <point x="509" y="1313"/>
      <point x="618" y="1371"/>
      <point x="758" y="1370" type="curve" smooth="yes"/>
      <point x="1068" y="1367"/>
      <point x="1223" y="1140"/>
      <point x="1220" y="686" type="curve" smooth="yes"/>
      <point x="1218" y="472"/>
      <point x="1175" y="309"/>
      <point x="1091" y="197" type="curve" smooth="yes"/>
      <point x="1011" y="92"/>
      <point x="899" y="40"/>
    </contour>
  </outline>
</glyph>
<glyph name="P" format="2">
  <advance width="1185"/>
  <unicode hex="0050"/>
  <outline>
    <contour>
      <point x="37" y="0" type="line"/>
      <point x="639" y="0" type="line"/>
      <point x="639" y="39" type="line"/>
      <point x="586" y="39" type="line" smooth="yes"/>
      <point x="532" y="39"/>
      <point x="492" y="54"/>
      <point x="468" y="86" type="curve"/>
      <point x="448" y="106"/>
      <point x="436" y="160"/>
      <point x="436" y="250" type="curve" smooth="yes"/>
      <point x="436" y="642" type="line"/>
      <point x="532" y="635"/>
      <point x="592" y="632"/>
      <point x="618" y="632" type="curve" smooth="yes"/>
      <point x="947" y="631"/>
      <point x="1111" y="759"/>
      <point x="1111" y="1021" type="curve" smooth="yes"/>
      <point x="1111" y="1021" type="line" smooth="yes"/>
      <point x="1111" y="1141"/>
      <point x="1057" y="1241"/>
      <point x="950" y="1323" type="curve" smooth="yes"/>
      <point x="871" y="1381"/>
      <point x="739" y="1410"/>
      <point x="552" y="1410" type="curve" smooth="yes"/>
      <point x="37" y="1410" type="line"/>
      <point x="37" y="1374" type="line"/>
      <point x="89" y="1374" type="line" smooth="yes" name="hr01"/>
      <point x="142" y="1374"/>
      <point x="183" y="1360"/>
      <point x="209" y="1328" type="curve" smooth="yes"/>
      <point x="227" y="1306"/>
      <point x="236" y="1250"/>
      <point x="236" y="1163" type="curve" smooth="yes"/>
      <point x="236" y="250" type="line" smooth="yes"/>
      <point x="236" y="170"/>
      <point x="229" y="119"/>
      <point x="216" y="96" type="curve" smooth="yes"/>
      <point x="192" y="59"/>
      <point x="150" y="39"/>
      <point x="89" y="39" type="curve" smooth="yes"/>
      <point x="37" y="39" type="line"/>
    </contour>
    <contour>
      <point x="606" y="699" type="curve" smooth="yes"/>
      <point x="551" y="699"/>
      <point x="493" y="704"/>
      <point x="436" y="711" type="curve"/>
      <point x="436" y="1308" type="line"/>
      <point x="498" y="1321"/>
      <point x="543" y="1328"/>
      <point x="573" y="1328" type="curve" smooth="yes" name="hr02"/>
      <point x="668" y="1328"/>
      <point x="744" y="1296"/>
      <point x="799" y="1228" type="curve" smooth="yes"/>
      <point x="849" y="1168"/>
      <point x="875" y="1093"/>
      <point x="874" y="1001" type="curve" smooth="yes"/>
      <point x="874" y="1001" type="line" smooth="yes"/>
      <point x="872" y="911"/>
      <point x="845" y="839"/>
      <point x="795" y="784" type="curve" smooth="yes"/>
      <point x="744" y="726"/>
      <point x="681" y="699"/>
    </contour>
  </outline>
</glyph>
<glyph name="Q" format="2">
  <advance width="1540"/>
  <unicode hex="0051"/>
  <outline>
    <contour>
      <point x="1457" y="705" type="curve" smooth="yes"/>
      <point x="1457" y="535"/>
      <point x="1410" y="383"/>
      <point x="1316" y="253" type="curve" smooth="yes"/>
      <point x="1221" y="123"/>
      <point x="1095" y="33"/>
      <point x="940" y="-14" type="curve"/>
      <point x="1072" y="-245"/>
      <point x="1243" y="-368"/>
      <point x="1450" y="-383" type="curve"/>
      <point x="1450" y="-418" type="line"/>
      <point x="1290" y="-412"/>
      <point x="1125" y="-366"/>
      <point x="957" y="-285" type="curve" smooth="yes"/>
      <point x="802" y="-209"/>
      <point x="676" y="-120"/>
      <point x="581" y="-14" type="curve"/>
      <point x="243" y="104"/>
      <point x="74" y="345"/>
      <point x="74" y="708" type="curve" smooth="yes"/>
      <point x="74" y="919"/>
      <point x="142" y="1095"/>
      <point x="276" y="1234" type="curve" smooth="yes"/>
      <point x="410" y="1374"/>
      <point x="578" y="1443"/>
      <point x="776" y="1443" type="curve" smooth="yes"/>
      <point x="967" y="1443"/>
      <point x="1128" y="1374"/>
      <point x="1260" y="1234" type="curve" smooth="yes"/>
      <point x="1391" y="1095"/>
      <point x="1457" y="918"/>
    </contour>
    <contour>
      <point x="1220" y="679" type="curve" smooth="yes"/>
      <point x="1220" y="892"/>
      <point x="1180" y="1060"/>
      <point x="1101" y="1181" type="curve" smooth="yes"/>
      <point x="1021" y="1304"/>
      <point x="909" y="1366"/>
      <point x="762" y="1366" type="curve" smooth="yes"/>
      <point x="622" y="1366"/>
      <point x="512" y="1308"/>
      <point x="432" y="1195" type="curve" smooth="yes"/>
      <point x="353" y="1081"/>
      <point x="313" y="919"/>
      <point x="313" y="708" type="curve" smooth="yes"/>
      <point x="313" y="505"/>
      <point x="352" y="345"/>
      <point x="429" y="226" type="curve" smooth="yes"/>
      <point x="509" y="102"/>
      <point x="621" y="40"/>
      <point x="762" y="39" type="curve" smooth="yes"/>
      <point x="908" y="37"/>
      <point x="1020" y="93"/>
      <point x="1100" y="207" type="curve" smooth="yes"/>
      <point x="1180" y="320"/>
      <point x="1220" y="478"/>
    </contour>
  </outline>
</glyph>
<glyph name="R" format="2">
  <advance width="1423"/>
  <unicode hex="0052"/>
  <outline>
    <contour>
      <point x="37" y="0" type="line"/>
      <point x="642" y="0" type="line"/>
      <point x="642" y="39" type="line"/>
      <point x="586" y="39" type="line" smooth="yes"/>
      <point x="532" y="39"/>
      <point x="492" y="54"/>
      <point x="468" y="86" type="curve"/>
      <point x="448" y="107"/>
      <point x="436" y="162"/>
      <point x="436" y="250" type="curve" smooth="yes"/>
      <point x="436" y="661" type="line"/>
      <point x="460" y="656"/>
      <point x="509" y="656"/>
      <point x="586" y="661" type="curve"/>
      <point x="1064" y="0" type="line"/>
      <point x="1441" y="0" type="line"/>
      <point x="1441" y="39" type="line"/>
      <point x="1361" y="47"/>
      <point x="1297" y="67"/>
      <point x="1248" y="100" type="curve" smooth="yes"/>
      <point x="1200" y="133"/>
      <point x="1143" y="193"/>
      <point x="1081" y="280" type="curve" smooth="yes"/>
      <point x="791" y="686" type="line"/>
      <point x="1022" y="739"/>
      <point x="1138" y="859"/>
      <point x="1138" y="1050" type="curve" smooth="yes"/>
      <point x="1138" y="1127"/>
      <point x="1114" y="1197"/>
      <point x="1065" y="1257" type="curve" smooth="yes"/>
      <point x="1020" y="1313"/>
      <point x="958" y="1353"/>
      <point x="884" y="1377" type="curve" smooth="yes"/>
      <point x="815" y="1400"/>
      <point x="704" y="1410"/>
      <point x="549" y="1410" type="curve" smooth="yes"/>
      <point x="37" y="1410" type="line"/>
      <point x="37" y="1374" type="line"/>
      <point x="90" y="1374" type="line" smooth="yes"/>
      <point x="140" y="1374"/>
      <point x="182" y="1358"/>
      <point x="212" y="1328" type="curve"/>
      <point x="229" y="1306"/>
      <point x="237" y="1250"/>
      <point x="237" y="1163" type="curve" smooth="yes"/>
      <point x="237" y="250" type="line" smooth="yes"/>
      <point x="237" y="169"/>
      <point x="230" y="117"/>
      <point x="217" y="96" type="curve" smooth="yes"/>
      <point x="193" y="59"/>
      <point x="150" y="39"/>
      <point x="90" y="39" type="curve" smooth="yes"/>
      <point x="37" y="39" type="line"/>
    </contour>
    <contour>
      <point x="436" y="725" type="line"/>
      <point x="436" y="1314" type="line"/>
      <point x="512" y="1327"/>
      <point x="566" y="1333"/>
      <point x="601" y="1333" type="curve" smooth="yes" name="hr01"/>
      <point x="692" y="1331"/>
      <point x="765" y="1303"/>
      <point x="821" y="1248" type="curve" smooth="yes"/>
      <point x="877" y="1194"/>
      <point x="904" y="1123"/>
      <point x="904" y="1034" type="curve" smooth="yes"/>
      <point x="904" y="1034" type="line" smooth="yes"/>
      <point x="904" y="941"/>
      <point x="871" y="867"/>
      <point x="804" y="812" type="curve" smooth="yes"/>
      <point x="732" y="754"/>
      <point x="631" y="725"/>
      <point x="496" y="725" type="curve" smooth="yes"/>
    </contour>
  </outline>
</glyph>
<glyph name="S" format="2">
  <advance width="1185"/>
  <unicode hex="0053"/>
  <outline>
    <contour>
      <point x="147" y="-33" type="line"/>
      <point x="184" y="-33" type="line"/>
      <point x="193" y="21"/>
      <point x="214" y="49"/>
      <point x="247" y="49" type="curve" smooth="yes"/>
      <point x="260" y="49"/>
      <point x="307" y="36"/>
      <point x="390" y="9" type="curve" smooth="yes"/>
      <point x="473" y="-19"/>
      <point x="552" y="-33"/>
      <point x="628" y="-33" type="curve" smooth="yes"/>
      <point x="756" y="-33"/>
      <point x="862" y="6"/>
      <point x="947" y="82" type="curve" smooth="yes"/>
      <point x="1030" y="159"/>
      <point x="1072" y="252"/>
      <point x="1072" y="360" type="curve" smooth="yes"/>
      <point x="1072" y="479"/>
      <point x="1021" y="578"/>
      <point x="921" y="654" type="curve" smooth="yes"/>
      <point x="865" y="696"/>
      <point x="775" y="751"/>
      <point x="649" y="818" type="curve" smooth="yes"/>
      <point x="509" y="894"/>
      <point x="416" y="952"/>
      <point x="369" y="997" type="curve" smooth="yes"/>
      <point x="323" y="1040"/>
      <point x="299" y="1090"/>
      <point x="299" y="1144" type="curve" smooth="yes"/>
      <point x="299" y="1203"/>
      <point x="323" y="1254"/>
      <point x="372" y="1297" type="curve" smooth="yes"/>
      <point x="420" y="1340"/>
      <point x="479" y="1361"/>
      <point x="548" y="1361" type="curve" smooth="yes"/>
      <point x="649" y="1361"/>
      <point x="738" y="1326"/>
      <point x="811" y="1254" type="curve" smooth="yes"/>
      <point x="884" y="1184"/>
      <point x="927" y="1084"/>
      <point x="940" y="955" type="curve"/>
      <point x="978" y="955" type="line"/>
      <point x="978" y="1443" type="line"/>
      <point x="940" y="1443" type="line"/>
      <point x="925" y="1390"/>
      <point x="902" y="1363"/>
      <point x="871" y="1363" type="curve" smooth="yes"/>
      <point x="861" y="1363"/>
      <point x="819" y="1377"/>
      <point x="748" y="1403" type="curve" smooth="yes"/>
      <point x="678" y="1430"/>
      <point x="609" y="1443"/>
      <point x="545" y="1443" type="curve" smooth="yes"/>
      <point x="422" y="1443"/>
      <point x="323" y="1407"/>
      <point x="247" y="1334" type="curve" smooth="yes"/>
      <point x="173" y="1263"/>
      <point x="136" y="1174"/>
      <point x="136" y="1072" type="curve" smooth="yes"/>
      <point x="136" y="984"/>
      <point x="163" y="909"/>
      <point x="216" y="851" type="curve" smooth="yes"/>
      <point x="270" y="788"/>
      <point x="380" y="711"/>
      <point x="545" y="618" type="curve" smooth="yes"/>
      <point x="681" y="541"/>
      <point x="768" y="485"/>
      <point x="808" y="449" type="curve" smooth="yes"/>
      <point x="859" y="402"/>
      <point x="885" y="345"/>
      <point x="885" y="279" type="curve" smooth="yes"/>
      <point x="885" y="214"/>
      <point x="859" y="162"/>
      <point x="809" y="119" type="curve" smooth="yes"/>
      <point x="756" y="73"/>
      <point x="688" y="49"/>
      <point x="605" y="49" type="curve" smooth="yes"/>
      <point x="495" y="49"/>
      <point x="405" y="80"/>
      <point x="332" y="142" type="curve" smooth="yes"/>
      <point x="250" y="212"/>
      <point x="200" y="315"/>
      <point x="184" y="450" type="curve"/>
      <point x="147" y="450" type="line"/>
    </contour>
  </outline>
</glyph>
<glyph name="T" format="2">
  <advance width="1297"/>
  <unicode hex="0054"/>
  <outline>
    <contour>
      <point x="346" y="0" type="line"/>
      <point x="945" y="0" type="line"/>
      <point x="945" y="39" type="line"/>
      <point x="895" y="39" type="line" smooth="yes"/>
      <point x="839" y="39"/>
      <point x="799" y="53"/>
      <point x="775" y="82" type="curve" smooth="yes"/>
      <point x="755" y="104"/>
      <point x="746" y="160"/>
      <point x="746" y="246" type="curve" smooth="yes"/>
      <point x="746" y="1324" type="line"/>
      <point x="945" y="1324" type="line" smooth="yes" name="hr01"/>
      <point x="1028" y="1324"/>
      <point x="1093" y="1301"/>
      <point x="1138" y="1254" type="curve" smooth="yes"/>
      <point x="1174" y="1218"/>
      <point x="1195" y="1160"/>
      <point x="1204" y="1081" type="curve"/>
      <point x="1248" y="1081" type="line"/>
      <point x="1236" y="1410" type="line"/>
      <point x="66" y="1410" type="line"/>
      <point x="51" y="1081" type="line"/>
      <point x="99" y="1081" type="line" name="hr02"/>
      <point x="107" y="1175"/>
      <point x="136" y="1243"/>
      <point x="186" y="1280" type="curve"/>
      <point x="220" y="1310"/>
      <point x="285" y="1324"/>
      <point x="378" y="1324" type="curve" smooth="yes"/>
      <point x="545" y="1324" type="line"/>
      <point x="545" y="246" type="line" smooth="yes"/>
      <point x="545" y="169"/>
      <point x="539" y="117"/>
      <point x="525" y="94" type="curve"/>
      <point x="498" y="57"/>
      <point x="455" y="39"/>
      <point x="398" y="39" type="curve" smooth="yes"/>
      <point x="346" y="39" type="line"/>
    </contour>
  </outline>
</glyph>
<glyph name="V" format="2">
  <advance width="1540"/>
  <unicode hex="0056"/>
  <outline>
    <contour>
      <point x="1513" y="1374" type="line"/>
      <point x="1463" y="1366"/>
      <point x="1424" y="1350"/>
      <point x="1400" y="1327" type="curve" smooth="yes"/>
      <point x="1363" y="1291"/>
      <point x="1330" y="1240"/>
      <point x="1301" y="1171" type="curve" smooth="yes"/>
      <point x="809" y="-33" type="line"/>
      <point x="771" y="-33" type="line"/>
      <point x="245" y="1185" type="line" smooth="yes"/>
      <point x="213" y="1257"/>
      <point x="182" y="1306"/>
      <point x="153" y="1330" type="curve" smooth="yes"/>
      <point x="123" y="1353"/>
      <point x="79" y="1369"/>
      <point x="19" y="1374" type="curve"/>
      <point x="19" y="1410" type="line"/>
      <point x="595" y="1410" type="line"/>
      <point x="595" y="1374" type="line"/>
      <point x="516" y="1366"/>
      <point x="469" y="1348"/>
      <point x="450" y="1323" type="curve" smooth="yes"/>
      <point x="443" y="1310"/>
      <point x="439" y="1294"/>
      <point x="439" y="1276" type="curve" smooth="yes"/>
      <point x="439" y="1241"/>
      <point x="455" y="1187"/>
      <point x="486" y="1115" type="curve" smooth="yes"/>
      <point x="847" y="287" type="line"/>
      <point x="1178" y="1107" type="line" smooth="yes"/>
      <point x="1211" y="1187"/>
      <point x="1228" y="1240"/>
      <point x="1228" y="1268" type="curve" smooth="yes"/>
      <point x="1228" y="1284"/>
      <point x="1224" y="1297"/>
      <point x="1218" y="1308" type="curve" smooth="yes"/>
      <point x="1200" y="1338"/>
      <point x="1154" y="1360"/>
      <point x="1078" y="1374" type="curve"/>
      <point x="1078" y="1410" type="line"/>
      <point x="1513" y="1410" type="line"/>
    </contour>
  </outline>
</glyph>
<glyph name="W" format="2">
  <advance width="2013"/>
  <unicode hex="0057"/>
  <outline>
    <contour>
      <point x="1995" y="1374" type="line"/>
      <point x="1926" y="1374"/>
      <point x="1875" y="1341"/>
      <point x="1840" y="1280" type="curve" smooth="yes"/>
      <point x="1826" y="1251"/>
      <point x="1803" y="1194"/>
      <point x="1773" y="1107" type="curve" smooth="yes"/>
      <point x="1381" y="-33" type="line"/>
      <point x="1338" y="-33" type="line"/>
      <point x="1018" y="869" type="line"/>
      <point x="699" y="-33" type="line"/>
      <point x="661" y="-33" type="line"/>
      <point x="242" y="1140" type="line" smooth="yes"/>
      <point x="202" y="1253"/>
      <point x="173" y="1316"/>
      <point x="156" y="1328" type="curve"/>
      <point x="132" y="1358"/>
      <point x="89" y="1374"/>
      <point x="29" y="1374" type="curve"/>
      <point x="29" y="1410" type="line"/>
      <point x="549" y="1410" type="line"/>
      <point x="549" y="1374" type="line"/>
      <point x="525" y="1374" type="line" smooth="yes"/>
      <point x="475" y="1374"/>
      <point x="440" y="1357"/>
      <point x="425" y="1327" type="curve" smooth="yes"/>
      <point x="418" y="1314"/>
      <point x="415" y="1301"/>
      <point x="415" y="1290" type="curve" smooth="yes"/>
      <point x="415" y="1263"/>
      <point x="429" y="1207"/>
      <point x="459" y="1121" type="curve" smooth="yes"/>
      <point x="736" y="327" type="line"/>
      <point x="970" y="1002" type="line"/>
      <point x="954" y="1057"/>
      <point x="937" y="1105"/>
      <point x="921" y="1148" type="curve" smooth="yes"/>
      <point x="881" y="1250"/>
      <point x="847" y="1311"/>
      <point x="817" y="1337" type="curve" smooth="yes"/>
      <point x="786" y="1361"/>
      <point x="746" y="1374"/>
      <point x="699" y="1374" type="curve"/>
      <point x="699" y="1410" type="line"/>
      <point x="1248" y="1410" type="line"/>
      <point x="1248" y="1374" type="line"/>
      <point x="1211" y="1374" type="line" smooth="yes"/>
      <point x="1137" y="1374"/>
      <point x="1098" y="1343"/>
      <point x="1098" y="1281" type="curve" smooth="yes"/>
      <point x="1098" y="1243"/>
      <point x="1114" y="1181"/>
      <point x="1144" y="1097" type="curve" smooth="yes"/>
      <point x="1417" y="327" type="line"/>
      <point x="1685" y="1107" type="line" smooth="yes"/>
      <point x="1715" y="1191"/>
      <point x="1729" y="1248"/>
      <point x="1729" y="1277" type="curve" smooth="yes"/>
      <point x="1729" y="1341"/>
      <point x="1677" y="1374"/>
      <point x="1574" y="1374" type="curve"/>
      <point x="1574" y="1410" type="line"/>
      <point x="1995" y="1410" type="line"/>
    </contour>
  </outline>
</glyph>
<glyph name="Y" format="2">
  <advance width="1540"/>
  <unicode hex="0059"/>
  <outline>
    <contour>
      <point x="463" y="0" type="line"/>
      <point x="1062" y="0" type="line"/>
      <point x="1062" y="39" type="line"/>
      <point x="1017" y="39" type="line" smooth="yes"/>
      <point x="958" y="39"/>
      <point x="917" y="53"/>
      <point x="892" y="82" type="curve" smooth="yes"/>
      <point x="871" y="106"/>
      <point x="861" y="160"/>
      <point x="861" y="246" type="curve" smooth="yes"/>
      <point x="861" y="599" type="line"/>
      <point x="1204" y="1134" type="line" smooth="yes"/>
      <point x="1251" y="1208"/>
      <point x="1286" y="1257"/>
      <point x="1308" y="1281" type="curve" smooth="yes"/>
      <point x="1364" y="1343"/>
      <point x="1421" y="1374"/>
      <point x="1481" y="1374" type="curve" smooth="yes"/>
      <point x="1509" y="1374" type="line"/>
      <point x="1509" y="1410" type="line"/>
      <point x="1017" y="1410" type="line"/>
      <point x="1017" y="1374" type="line"/>
      <point x="1080" y="1374"/>
      <point x="1121" y="1357"/>
      <point x="1143" y="1324" type="curve" smooth="yes"/>
      <point x="1153" y="1307"/>
      <point x="1160" y="1290"/>
      <point x="1160" y="1271" type="curve" smooth="yes"/>
      <point x="1160" y="1241"/>
      <point x="1140" y="1193"/>
      <point x="1097" y="1125" type="curve" smooth="yes"/>
      <point x="818" y="691" type="line"/>
      <point x="525" y="1144" type="line" smooth="yes"/>
      <point x="482" y="1210"/>
      <point x="462" y="1256"/>
      <point x="462" y="1281" type="curve" smooth="yes"/>
      <point x="462" y="1311"/>
      <point x="476" y="1336"/>
      <point x="506" y="1353" type="curve" smooth="yes"/>
      <point x="531" y="1367"/>
      <point x="559" y="1374"/>
      <point x="592" y="1374" type="curve" smooth="yes"/>
      <point x="623" y="1374" type="line"/>
      <point x="623" y="1410" type="line"/>
      <point x="19" y="1410" type="line"/>
      <point x="19" y="1374" type="line"/>
      <point x="64" y="1374"/>
      <point x="113" y="1354"/>
      <point x="162" y="1316" type="curve" smooth="yes"/>
      <point x="180" y="1303"/>
      <point x="197" y="1283"/>
      <point x="217" y="1257" type="curve" smooth="yes"/>
      <point x="226" y="1244"/>
      <point x="246" y="1215"/>
      <point x="275" y="1171" type="curve" smooth="yes"/>
      <point x="661" y="581" type="line"/>
      <point x="661" y="246" type="line" smooth="yes"/>
      <point x="661" y="169"/>
      <point x="654" y="117"/>
      <point x="639" y="94" type="curve"/>
      <point x="612" y="57"/>
      <point x="571" y="39"/>
      <point x="512" y="39" type="curve" smooth="yes"/>
      <point x="463" y="39" type="line"/>
    </contour>
  </outline>
</glyph>
<glyph name="Z" format="2">
  <advance width="1301"/>
  <unicode hex="005A"/>
  <outline>
    <contour>
      <point x="1243" y="373" type="line"/>
      <point x="1177" y="0" type="line"/>
      <point x="29" y="0" type="line"/>
      <point x="29" y="39" type="line"/>
      <point x="931" y="1328" type="line"/>
      <point x="482" y="1328" type="line" smooth="yes"/>
      <point x="385" y="1328"/>
      <point x="317" y="1311"/>
      <point x="279" y="1278" type="curve" smooth="yes"/>
      <point x="240" y="1244"/>
      <point x="212" y="1171"/>
      <point x="193" y="1058" type="curve"/>
      <point x="154" y="1058" type="line"/>
      <point x="183" y="1410" type="line"/>
      <point x="1226" y="1410" type="line"/>
      <point x="299" y="86" type="line"/>
      <point x="878" y="86" type="line" smooth="yes"/>
      <point x="975" y="86"/>
      <point x="1051" y="112"/>
      <point x="1101" y="162" type="curve" smooth="yes"/>
      <point x="1140" y="202"/>
      <point x="1175" y="275"/>
      <point x="1210" y="379" type="curve"/>
    </contour>
  </outline>
</glyph>
<glyph name="bracketleft" format="2">
  <advance width="709"/>
  <unicode hex="005B"/>
  <outline>
    <contour>
      <point x="172" y="-422" type="line"/>
      <point x="632" y="-422" type="line"/>
      <point x="632" y="-340" type="line" name="hr02"/>
      <point x="327" y="-340" type="line"/>
      <point x="327" y="1363" type="line" name="hr01"/>
      <point x="632" y="1363" type="line"/>
      <point x="632" y="1443" type="line"/>
      <point x="172" y="1443" type="line"/>
    </contour>
  </outline>
</glyph>
<glyph name="bracketright" format="2">
  <advance width="709"/>
  <unicode hex="005D"/>
  <outline>
    <contour>
      <point x="538" y="-425" type="line"/>
      <point x="80" y="-425" type="line"/>
      <point x="80" y="-340" type="line"/>
      <point x="382" y="-340" type="line" name="hr01"/>
      <point x="382" y="1363" type="line"/>
      <point x="80" y="1363" type="line" name="hr02"/>
      <point x="80" y="1443" type="line"/>
      <point x="538" y="1443" type="line"/>
    </contour>
  </outline>
</glyph>
<glyph name="asciicircum" format="2">
  <advance width="2051"/>
  <unicode hex="005E"/>
  <outline>
    <contour>
      <point x="1560" y="20" type="line"/>
      <point x="1433" y="20" type="line"/>
      <point x="1025" y="1120" type="line"/>
      <point x="618" y="20" type="line"/>
      <point x="490" y="20" type="line"/>
      <point x="961" y="1250" type="line"/>
      <point x="1088" y="1250" type="line"/>
    </contour>
  </outline>
</glyph>
<glyph name="underscore" format="2">
  <advance width="1025"/>
  <unicode hex="005F"/>
  <outline>
    <contour>
      <point x="1025" y="-240" type="line"/>
      <point x="0" y="-240" type="line"/>
      <point x="0" y="-164" type="line"/>
      <point x="1025" y="-164" type="line"/>
    </contour>
  </outline>
</glyph>
<glyph name="grave" format="2">
  <advance width="799"/>
  <unicode hex="0060"/>
  <outline>
    <contour>
      <point x="486" y="1084" type="line"/>
      <point x="400" y="1084" type="line"/>
      <point x="93" y="1280" type="line" smooth="yes"/>
      <point x="31" y="1318"/>
      <point x="0" y="1348"/>
      <point x="0" y="1371" type="curve" smooth="yes"/>
      <point x="0" y="1424"/>
      <point x="21" y="1451"/>
      <point x="66" y="1451" type="curve" smooth="yes"/>
      <point x="103" y="1451"/>
      <point x="144" y="1429"/>
      <point x="190" y="1381" type="curve" smooth="yes"/>
    </contour>
  </outline>
</glyph>
<glyph name="b" format="2">
  <advance width="1065"/>
  <unicode hex="0062"/>
  <outline>
    <contour>
      <point x="992" y="515" type="line" smooth="yes"/>
      <point x="992" y="360"/>
      <point x="944" y="230"/>
      <point x="847" y="126" type="curve" smooth="yes"/>
      <point x="749" y="21"/>
      <point x="633" y="-31"/>
      <point x="500" y="-31" type="curve" smooth="yes"/>
      <point x="389" y="-31"/>
      <point x="275" y="10"/>
      <point x="154" y="93" type="curve"/>
      <point x="154" y="1078" type="line" smooth="yes"/>
      <point x="154" y="1180"/>
      <point x="152" y="1246"/>
      <point x="147" y="1277" type="curve" smooth="yes"/>
      <point x="144" y="1301"/>
      <point x="134" y="1320"/>
      <point x="122" y="1330" type="curve" smooth="yes"/>
      <point x="102" y="1347"/>
      <point x="63" y="1346"/>
      <point x="6" y="1328" type="curve"/>
      <point x="-9" y="1366" type="line"/>
      <point x="279" y="1480" type="line"/>
      <point x="327" y="1480" type="line"/>
      <point x="327" y="789" type="line"/>
      <point x="420" y="917"/>
      <point x="521" y="980"/>
      <point x="628" y="980" type="curve" smooth="yes"/>
      <point x="728" y="980"/>
      <point x="815" y="940"/>
      <point x="884" y="857" type="curve" smooth="yes"/>
      <point x="957" y="769"/>
      <point x="992" y="655"/>
      <point x="992" y="515" type="curve" smooth="yes"/>
    </contour>
    <contour>
      <point x="812" y="455" type="line" smooth="yes"/>
      <point x="812" y="571"/>
      <point x="786" y="664"/>
      <point x="734" y="732" type="curve" smooth="yes"/>
      <point x="682" y="801"/>
      <point x="618" y="834"/>
      <point x="543" y="834" type="curve" smooth="yes"/>
      <point x="478" y="834"/>
      <point x="406" y="798"/>
      <point x="327" y="724" type="curve"/>
      <point x="327" y="152" type="line"/>
      <point x="398" y="82"/>
      <point x="473" y="47"/>
      <point x="553" y="47" type="curve" smooth="yes"/>
      <point x="621" y="47"/>
      <point x="679" y="82"/>
      <point x="729" y="150" type="curve" smooth="yes"/>
      <point x="785" y="226"/>
      <point x="812" y="327"/>
      <point x="812" y="455" type="curve" smooth="yes"/>
    </contour>
  </outline>
</glyph>
<glyph name="c" format="2">
  <advance width="947"/>
  <unicode hex="0063"/>
  <outline>
    <contour>
      <point x="875" y="363" type="line"/>
      <point x="858" y="247"/>
      <point x="811" y="154"/>
      <point x="734" y="80" type="curve" smooth="yes"/>
      <point x="658" y="6"/>
      <point x="572" y="-31"/>
      <point x="478" y="-31" type="curve" smooth="yes"/>
      <point x="363" y="-31"/>
      <point x="266" y="16"/>
      <point x="189" y="109" type="curve" smooth="yes"/>
      <point x="110" y="202"/>
      <point x="71" y="325"/>
      <point x="71" y="476" type="curve" smooth="yes"/>
      <point x="71" y="623"/>
      <point x="117" y="745"/>
      <point x="207" y="841" type="curve" smooth="yes"/>
      <point x="293" y="932"/>
      <point x="400" y="980"/>
      <point x="526" y="980" type="curve" smooth="yes"/>
      <point x="599" y="980"/>
      <point x="669" y="961"/>
      <point x="736" y="922" type="curve" smooth="yes"/>
      <point x="812" y="878"/>
      <point x="851" y="821"/>
      <point x="851" y="752" type="curve" smooth="yes"/>
      <point x="851" y="694"/>
      <point x="818" y="664"/>
      <point x="752" y="664" type="curve" smooth="yes"/>
      <point x="682" y="664"/>
      <point x="645" y="705"/>
      <point x="638" y="788" type="curve" smooth="yes"/>
      <point x="631" y="871"/>
      <point x="582" y="912"/>
      <point x="492" y="912" type="curve" smooth="yes"/>
      <point x="416" y="912"/>
      <point x="355" y="879"/>
      <point x="309" y="815" type="curve" smooth="yes"/>
      <point x="265" y="749"/>
      <point x="242" y="666"/>
      <point x="242" y="566" type="curve" smooth="yes"/>
      <point x="242" y="448"/>
      <point x="269" y="347"/>
      <point x="322" y="266" type="curve" smooth="yes"/>
      <point x="379" y="179"/>
      <point x="456" y="136"/>
      <point x="552" y="136" type="curve" smooth="yes"/>
      <point x="681" y="136"/>
      <point x="779" y="216"/>
      <point x="847" y="378" type="curve"/>
    </contour>
  </outline>
</glyph>
<glyph name="e" format="2">
  <advance width="947"/>
  <unicode hex="0065"/>
  <outline>
    <contour>
      <point x="885" y="349" type="line"/>
      <point x="871" y="247"/>
      <point x="828" y="160"/>
      <point x="761" y="89" type="curve" smooth="yes"/>
      <point x="686" y="9"/>
      <point x="598" y="-31"/>
      <point x="493" y="-31" type="curve" smooth="yes"/>
      <point x="378" y="-31"/>
      <point x="279" y="16"/>
      <point x="199" y="107" type="curve" smooth="yes"/>
      <point x="119" y="199"/>
      <point x="77" y="317"/>
      <point x="77" y="465" type="curve" smooth="yes"/>
      <point x="77" y="625"/>
      <point x="119" y="751"/>
      <point x="200" y="844" type="curve" smooth="yes"/>
      <point x="283" y="935"/>
      <point x="389" y="982"/>
      <point x="521" y="982" type="curve" smooth="yes"/>
      <point x="628" y="982"/>
      <point x="715" y="947"/>
      <point x="784" y="878" type="curve" smooth="yes"/>
      <point x="851" y="808"/>
      <point x="885" y="714"/>
      <point x="885" y="595" type="curve"/>
      <point x="226" y="595" type="line"/>
      <point x="226" y="458"/>
      <point x="260" y="347"/>
      <point x="330" y="262" type="curve" smooth="yes"/>
      <point x="396" y="183"/>
      <point x="478" y="143"/>
      <point x="573" y="142" type="curve" smooth="yes"/>
      <point x="701" y="140"/>
      <point x="794" y="216"/>
      <point x="852" y="369" type="curve"/>
    </contour>
    <contour>
      <point x="668" y="654" type="line"/>
      <point x="668" y="745"/>
      <point x="642" y="814"/>
      <point x="591" y="859" type="curve" smooth="yes"/>
      <point x="553" y="891"/>
      <point x="511" y="908"/>
      <point x="462" y="908" type="curve" smooth="yes"/>
      <point x="402" y="908"/>
      <point x="350" y="885"/>
      <point x="306" y="841" type="curve" smooth="yes"/>
      <point x="260" y="795"/>
      <point x="233" y="734"/>
      <point x="226" y="654" type="curve"/>
    </contour>
  </outline>
</glyph>
<glyph name="j" format="2">
  <advance width="592"/>
  <unicode hex="006A"/>
  <outline>
    <contour>
      <point x="416" y="1277" type="line" smooth="yes"/>
      <point x="416" y="1248"/>
      <point x="406" y="1224"/>
      <point x="386" y="1203" type="curve" smooth="yes"/>
      <point x="365" y="1181"/>
      <point x="339" y="1171"/>
      <point x="309" y="1171" type="curve" smooth="yes"/>
      <point x="279" y="1171"/>
      <point x="255" y="1181"/>
      <point x="233" y="1201" type="curve" smooth="yes"/>
      <point x="213" y="1221"/>
      <point x="203" y="1247"/>
      <point x="203" y="1277" type="curve" smooth="yes"/>
      <point x="203" y="1306"/>
      <point x="213" y="1331"/>
      <point x="235" y="1351" type="curve" smooth="yes"/>
      <point x="256" y="1373"/>
      <point x="280" y="1384"/>
      <point x="309" y="1384" type="curve" smooth="yes"/>
      <point x="337" y="1384"/>
      <point x="362" y="1373"/>
      <point x="383" y="1351" type="curve" smooth="yes"/>
      <point x="405" y="1331"/>
      <point x="416" y="1306"/>
      <point x="416" y="1277" type="curve" smooth="yes"/>
    </contour>
    <contour>
      <point x="400" y="20" type="line" name="hr01"/>
      <point x="400" y="-139"/>
      <point x="365" y="-260"/>
      <point x="293" y="-345" type="curve" smooth="yes"/>
      <point x="227" y="-423"/>
      <point x="136" y="-462"/>
      <point x="23" y="-462" type="curve" smooth="yes"/>
      <point x="-37" y="-462"/>
      <point x="-84" y="-449"/>
      <point x="-119" y="-425" type="curve" smooth="yes"/>
      <point x="-146" y="-405"/>
      <point x="-162" y="-383"/>
      <point x="-164" y="-356" type="curve"/>
      <point x="-164" y="-330"/>
      <point x="-156" y="-309"/>
      <point x="-139" y="-292" type="curve" smooth="yes"/>
      <point x="-122" y="-275"/>
      <point x="-102" y="-266"/>
      <point x="-77" y="-266" type="curve" smooth="yes"/>
      <point x="-40" y="-266"/>
      <point x="1" y="-289"/>
      <point x="46" y="-332" type="curve" smooth="yes"/>
      <point x="76" y="-362"/>
      <point x="103" y="-378"/>
      <point x="129" y="-378" type="curve" smooth="yes"/>
      <point x="173" y="-378"/>
      <point x="202" y="-347"/>
      <point x="216" y="-287" type="curve" smooth="yes"/>
      <point x="223" y="-255"/>
      <point x="226" y="-192"/>
      <point x="226" y="-99" type="curve" smooth="yes"/>
      <point x="226" y="581" type="line" smooth="yes"/>
      <point x="226" y="731"/>
      <point x="214" y="814"/>
      <point x="194" y="831" type="curve" smooth="yes"/>
      <point x="173" y="848"/>
      <point x="134" y="848"/>
      <point x="77" y="828" type="curve"/>
      <point x="66" y="865" type="line"/>
      <point x="355" y="980" type="line"/>
      <point x="400" y="980" type="line"/>
    </contour>
  </outline>
</glyph>
<glyph name="k" format="2">
  <advance width="1065"/>
  <unicode hex="006B"/>
  <outline>
    <contour>
      <point x="14" y="0" type="line"/>
      <point x="502" y="0" type="line"/>
      <point x="502" y="39" type="line"/>
      <point x="435" y="39"/>
      <point x="392" y="50"/>
      <point x="373" y="74" type="curve" smooth="yes"/>
      <point x="357" y="92"/>
      <point x="350" y="139"/>
      <point x="350" y="216" type="curve" smooth="yes"/>
      <point x="350" y="526" type="line"/>
      <point x="642" y="157" type="line" smooth="yes"/>
      <point x="674" y="117"/>
      <point x="686" y="86"/>
      <point x="679" y="63" type="curve"/>
      <point x="672" y="47"/>
      <point x="652" y="39"/>
      <point x="615" y="39" type="curve"/>
      <point x="615" y="0" type="line"/>
      <point x="1078" y="0" type="line"/>
      <point x="1078" y="39" type="line"/>
      <point x="1028" y="39"/>
      <point x="998" y="41"/>
      <point x="988" y="47" type="curve" smooth="yes"/>
      <point x="950" y="69"/>
      <point x="924" y="86"/>
      <point x="911" y="99" type="curve" smooth="yes"/>
      <point x="887" y="120"/>
      <point x="838" y="179"/>
      <point x="762" y="273" type="curve" smooth="yes"/>
      <point x="512" y="585" type="line"/>
      <point x="762" y="808" type="line" smooth="yes"/>
      <point x="808" y="848"/>
      <point x="849" y="877"/>
      <point x="885" y="892" type="curve" smooth="yes"/>
      <point x="922" y="908"/>
      <point x="971" y="918"/>
      <point x="1030" y="921" type="curve"/>
      <point x="1030" y="954" type="line"/>
      <point x="615" y="954" type="line"/>
      <point x="615" y="921" type="line"/>
      <point x="664" y="917"/>
      <point x="689" y="898"/>
      <point x="689" y="867" type="curve" smooth="yes"/>
      <point x="689" y="847"/>
      <point x="656" y="808"/>
      <point x="591" y="752" type="curve" smooth="yes"/>
      <point x="350" y="549" type="line"/>
      <point x="350" y="1480" type="line"/>
      <point x="302" y="1480" type="line"/>
      <point x="14" y="1366" type="line"/>
      <point x="34" y="1328" type="line"/>
      <point x="61" y="1340"/>
      <point x="84" y="1344"/>
      <point x="103" y="1344" type="curve" smooth="yes"/>
      <point x="119" y="1344"/>
      <point x="133" y="1340"/>
      <point x="144" y="1330" type="curve" smooth="yes"/>
      <point x="156" y="1320"/>
      <point x="163" y="1301"/>
      <point x="167" y="1276" type="curve" smooth="yes"/>
      <point x="170" y="1250"/>
      <point x="172" y="1183"/>
      <point x="172" y="1077" type="curve" smooth="yes"/>
      <point x="172" y="209" type="line" smooth="yes"/>
      <point x="172" y="136"/>
      <point x="163" y="89"/>
      <point x="144" y="69" type="curve" smooth="yes"/>
      <point x="126" y="49"/>
      <point x="83" y="39"/>
      <point x="14" y="39" type="curve"/>
    </contour>
  </outline>
</glyph>
<glyph name="m" format="2">
  <advance width="1659"/>
  <unicode hex="006D"/>
  <outline>
    <contour>
      <point x="1650" y="0" type="line"/>
      <point x="1178" y="0" type="line"/>
      <point x="1178" y="39" type="line"/>
      <point x="1248" y="39"/>
      <point x="1293" y="51"/>
      <point x="1311" y="77" type="curve" smooth="yes"/>
      <point x="1326" y="99"/>
      <point x="1333" y="144"/>
      <point x="1333" y="216" type="curve" smooth="yes" name="hr01"/>
      <point x="1333" y="628" type="line" smooth="yes"/>
      <point x="1333" y="781"/>
      <point x="1280" y="857"/>
      <point x="1174" y="857" type="curve" smooth="yes"/>
      <point x="1097" y="857"/>
      <point x="1015" y="814"/>
      <point x="928" y="728" type="curve"/>
      <point x="928" y="216" type="line" smooth="yes"/>
      <point x="928" y="143"/>
      <point x="937" y="96"/>
      <point x="951" y="76" type="curve" smooth="yes"/>
      <point x="970" y="51"/>
      <point x="1012" y="39"/>
      <point x="1083" y="39" type="curve"/>
      <point x="1083" y="0" type="line"/>
      <point x="599" y="0" type="line"/>
      <point x="599" y="39" type="line"/>
      <point x="672" y="39"/>
      <point x="719" y="53"/>
      <point x="738" y="82" type="curve" smooth="yes"/>
      <point x="749" y="100"/>
      <point x="755" y="144"/>
      <point x="755" y="216" type="curve" smooth="yes"/>
      <point x="755" y="628" type="line" smooth="yes"/>
      <point x="755" y="782"/>
      <point x="701" y="859"/>
      <point x="592" y="859" type="curve" smooth="yes"/>
      <point x="512" y="859"/>
      <point x="430" y="815"/>
      <point x="349" y="728" type="curve"/>
      <point x="349" y="216" type="line" smooth="yes"/>
      <point x="349" y="137"/>
      <point x="357" y="89"/>
      <point x="378" y="69" type="curve" smooth="yes"/>
      <point x="396" y="49"/>
      <point x="438" y="39"/>
      <point x="502" y="39" type="curve" name="hr02"/>
      <point x="502" y="0" type="line"/>
      <point x="31" y="0" type="line"/>
      <point x="31" y="39" type="line"/>
      <point x="92" y="39"/>
      <point x="130" y="50"/>
      <point x="147" y="70" type="curve" smooth="yes"/>
      <point x="166" y="92"/>
      <point x="174" y="140"/>
      <point x="174" y="216" type="curve" smooth="yes" name="hr03"/>
      <point x="174" y="581" type="line" smooth="yes"/>
      <point x="174" y="688"/>
      <point x="172" y="754"/>
      <point x="169" y="776" type="curve" smooth="yes"/>
      <point x="160" y="822"/>
      <point x="139" y="845"/>
      <point x="103" y="845" type="curve" smooth="yes"/>
      <point x="84" y="845"/>
      <point x="61" y="839"/>
      <point x="31" y="828" type="curve" name="hr04"/>
      <point x="14" y="865" type="line"/>
      <point x="303" y="980" type="line"/>
      <point x="349" y="980" type="line" name="hr05"/>
      <point x="349" y="779" type="line"/>
      <point x="420" y="858"/>
      <point x="483" y="914"/>
      <point x="535" y="942" type="curve" smooth="yes"/>
      <point x="579" y="968"/>
      <point x="628" y="980"/>
      <point x="679" y="980" type="curve" smooth="yes"/>
      <point x="809" y="980"/>
      <point x="891" y="912"/>
      <point x="921" y="779" type="curve"/>
      <point x="988" y="857"/>
      <point x="1048" y="911"/>
      <point x="1101" y="941" type="curve" smooth="yes"/>
      <point x="1147" y="967"/>
      <point x="1198" y="980"/>
      <point x="1254" y="980" type="curve" smooth="yes"/>
      <point x="1423" y="980"/>
      <point x="1507" y="862"/>
      <point x="1507" y="628" type="curve" smooth="yes"/>
      <point x="1507" y="216" type="line" smooth="yes"/>
      <point x="1507" y="143"/>
      <point x="1516" y="96"/>
      <point x="1536" y="73" type="curve" smooth="yes"/>
      <point x="1554" y="50"/>
      <point x="1593" y="39"/>
      <point x="1650" y="39" type="curve" name="hr06"/>
    </contour>
  </outline>
</glyph>
<glyph name="n" format="2">
  <advance width="1065"/>
  <unicode hex="006E"/>
  <outline>
    <contour>
      <point x="1062" y="0" type="line"/>
      <point x="585" y="0" type="line"/>
      <point x="585" y="39" type="line"/>
      <point x="654" y="39"/>
      <point x="698" y="50"/>
      <point x="715" y="70" type="curve" smooth="yes"/>
      <point x="732" y="92"/>
      <point x="741" y="140"/>
      <point x="741" y="216" type="curve" smooth="yes"/>
      <point x="741" y="605" type="line" smooth="yes"/>
      <point x="741" y="692"/>
      <point x="729" y="755"/>
      <point x="706" y="795" type="curve" smooth="yes"/>
      <point x="684" y="834"/>
      <point x="645" y="852"/>
      <point x="591" y="852" type="curve" smooth="yes"/>
      <point x="509" y="852"/>
      <point x="426" y="808"/>
      <point x="345" y="718" type="curve"/>
      <point x="345" y="216" type="line" smooth="yes"/>
      <point x="345" y="144"/>
      <point x="352" y="99"/>
      <point x="365" y="80" type="curve" smooth="yes"/>
      <point x="385" y="53"/>
      <point x="429" y="39"/>
      <point x="500" y="39" type="curve" name="hr01"/>
      <point x="500" y="0" type="line"/>
      <point x="27" y="0" type="line"/>
      <point x="27" y="39" type="line"/>
      <point x="87" y="39"/>
      <point x="126" y="50"/>
      <point x="143" y="71" type="curve" smooth="yes"/>
      <point x="162" y="93"/>
      <point x="170" y="142"/>
      <point x="170" y="216" type="curve" smooth="yes" name="hr02"/>
      <point x="170" y="571" type="line" smooth="yes"/>
      <point x="170" y="725"/>
      <point x="160" y="812"/>
      <point x="139" y="831" type="curve" smooth="yes"/>
      <point x="116" y="849"/>
      <point x="79" y="849"/>
      <point x="27" y="828" type="curve" name="hr03"/>
      <point x="10" y="865" type="line"/>
      <point x="302" y="980" type="line"/>
      <point x="345" y="980" type="line" name="hr04"/>
      <point x="345" y="781" type="line"/>
      <point x="456" y="914"/>
      <point x="563" y="980"/>
      <point x="664" y="980" type="curve" smooth="yes"/>
      <point x="831" y="980"/>
      <point x="914" y="861"/>
      <point x="914" y="623" type="curve" smooth="yes"/>
      <point x="914" y="216" type="line" smooth="yes"/>
      <point x="914" y="149"/>
      <point x="921" y="103"/>
      <point x="935" y="82" type="curve" smooth="yes"/>
      <point x="954" y="53"/>
      <point x="997" y="39"/>
      <point x="1062" y="39" type="curve"/>
    </contour>
  </outline>
</glyph>
<glyph name="o" format="2">
  <advance width="1065"/>
  <unicode hex="006F"/>
  <outline>
    <contour>
      <point x="523" y="-31" type="curve" smooth="yes"/>
      <point x="669" y="-31"/>
      <point x="786" y="26"/>
      <point x="875" y="139" type="curve" smooth="yes"/>
      <point x="954" y="240"/>
      <point x="992" y="359"/>
      <point x="992" y="493" type="curve" smooth="yes"/>
      <point x="992" y="493" type="line" smooth="yes"/>
      <point x="992" y="632"/>
      <point x="950" y="748"/>
      <point x="864" y="841" type="curve" smooth="yes"/>
      <point x="776" y="934"/>
      <point x="666" y="980"/>
      <point x="533" y="980" type="curve" smooth="yes"/>
      <point x="396" y="980"/>
      <point x="283" y="927"/>
      <point x="194" y="819" type="curve" smooth="yes"/>
      <point x="113" y="721"/>
      <point x="71" y="602"/>
      <point x="71" y="468" type="curve" smooth="yes"/>
      <point x="71" y="332"/>
      <point x="114" y="216"/>
      <point x="200" y="117" type="curve" smooth="yes"/>
      <point x="286" y="19"/>
      <point x="393" y="-31"/>
    </contour>
    <contour>
      <point x="566" y="46" type="curve" smooth="yes"/>
      <point x="478" y="46"/>
      <point x="403" y="96"/>
      <point x="346" y="197" type="curve" smooth="yes"/>
      <point x="292" y="293"/>
      <point x="265" y="413"/>
      <point x="265" y="553" type="curve" smooth="yes"/>
      <point x="265" y="679"/>
      <point x="290" y="774"/>
      <point x="342" y="838" type="curve" smooth="yes"/>
      <point x="383" y="889"/>
      <point x="436" y="914"/>
      <point x="500" y="914" type="curve" smooth="yes"/>
      <point x="591" y="914"/>
      <point x="662" y="867"/>
      <point x="716" y="772" type="curve" smooth="yes"/>
      <point x="771" y="679"/>
      <point x="798" y="559"/>
      <point x="798" y="415" type="curve" smooth="yes"/>
      <point x="798" y="415" type="line" smooth="yes"/>
      <point x="798" y="169"/>
      <point x="721" y="46"/>
    </contour>
  </outline>
</glyph>
<glyph name="q" format="2">
  <advance width="1065"/>
  <unicode hex="0071"/>
  <outline>
    <contour>
      <point x="585" y="-458" type="line"/>
      <point x="1070" y="-458" type="line"/>
      <point x="1070" y="-418" type="line"/>
      <point x="1004" y="-418"/>
      <point x="962" y="-408"/>
      <point x="942" y="-386" type="curve" smooth="yes"/>
      <point x="924" y="-365"/>
      <point x="914" y="-319"/>
      <point x="914" y="-246" type="curve" smooth="yes"/>
      <point x="914" y="980" type="line"/>
      <point x="878" y="980" type="line"/>
      <point x="827" y="950"/>
      <point x="786" y="928"/>
      <point x="758" y="914" type="curve"/>
      <point x="715" y="958"/>
      <point x="649" y="980"/>
      <point x="562" y="980" type="curve" smooth="yes"/>
      <point x="420" y="980"/>
      <point x="303" y="928"/>
      <point x="210" y="827" type="curve" smooth="yes"/>
      <point x="116" y="724"/>
      <point x="70" y="593"/>
      <point x="70" y="435" type="curve" smooth="yes"/>
      <point x="70" y="293"/>
      <point x="107" y="180"/>
      <point x="183" y="93" type="curve" smooth="yes"/>
      <point x="252" y="10"/>
      <point x="333" y="-31"/>
      <point x="426" y="-31" type="curve" smooth="yes"/>
      <point x="526" y="-31"/>
      <point x="631" y="34"/>
      <point x="741" y="166" type="curve"/>
      <point x="741" y="-246" type="line" smooth="yes"/>
      <point x="741" y="-322"/>
      <point x="731" y="-369"/>
      <point x="711" y="-389" type="curve" smooth="yes"/>
      <point x="691" y="-409"/>
      <point x="648" y="-418"/>
      <point x="585" y="-418" type="curve"/>
    </contour>
    <contour>
      <point x="535" y="117" type="curve" smooth="yes"/>
      <point x="453" y="117"/>
      <point x="385" y="150"/>
      <point x="332" y="216" type="curve" smooth="yes"/>
      <point x="275" y="286"/>
      <point x="246" y="385"/>
      <point x="246" y="511" type="curve" smooth="yes"/>
      <point x="246" y="639"/>
      <point x="275" y="738"/>
      <point x="330" y="809" type="curve" smooth="yes"/>
      <point x="380" y="875"/>
      <point x="448" y="908"/>
      <point x="529" y="908" type="curve" smooth="yes"/>
      <point x="669" y="908"/>
      <point x="741" y="832"/>
      <point x="741" y="679" type="curve" smooth="yes"/>
      <point x="741" y="230" type="line"/>
      <point x="674" y="154"/>
      <point x="605" y="117"/>
    </contour>
  </outline>
</glyph>
<glyph name="t" format="2">
  <advance width="592"/>
  <unicode hex="0074"/>
  <outline>
    <contour>
      <point x="595" y="174" type="line"/>
      <point x="573" y="109"/>
      <point x="539" y="57"/>
      <point x="490" y="19" type="curve" smooth="yes"/>
      <point x="448" y="-14"/>
      <point x="403" y="-31"/>
      <point x="356" y="-31" type="curve" smooth="yes"/>
      <point x="232" y="-31"/>
      <point x="169" y="53"/>
      <point x="169" y="222" type="curve" smooth="yes"/>
      <point x="169" y="881" type="line"/>
      <point x="16" y="881" type="line" name="hr01"/>
      <point x="16" y="914" type="line"/>
      <point x="71" y="935"/>
      <point x="130" y="982"/>
      <point x="193" y="1055" type="curve" smooth="yes"/>
      <point x="230" y="1100"/>
      <point x="269" y="1170"/>
      <point x="312" y="1267" type="curve"/>
      <point x="342" y="1267" type="line" name="hr02"/>
      <point x="342" y="954" type="line"/>
      <point x="566" y="954" type="line" name="hr03"/>
      <point x="566" y="881" type="line"/>
      <point x="342" y="881" type="line" name="hr04"/>
      <point x="342" y="246" type="line" smooth="yes"/>
      <point x="342" y="143"/>
      <point x="373" y="90"/>
      <point x="436" y="89" type="curve" smooth="yes"/>
      <point x="489" y="86"/>
      <point x="528" y="116"/>
      <point x="553" y="174" type="curve"/>
    </contour>
  </outline>
</glyph>
<glyph name="y" format="2">
  <advance width="1065"/>
  <unicode hex="0079"/>
  <outline>
    <contour>
      <point x="1054" y="914" type="line"/>
      <point x="1021" y="911"/>
      <point x="997" y="902"/>
      <point x="980" y="888" type="curve" smooth="yes"/>
      <point x="960" y="868"/>
      <point x="937" y="829"/>
      <point x="912" y="771" type="curve" smooth="yes"/>
      <point x="525" y="-180" type="line" smooth="yes"/>
      <point x="489" y="-267"/>
      <point x="442" y="-336"/>
      <point x="383" y="-386" type="curve" smooth="yes"/>
      <point x="325" y="-436"/>
      <point x="265" y="-462"/>
      <point x="203" y="-462" type="curve" smooth="yes"/>
      <point x="162" y="-462"/>
      <point x="129" y="-449"/>
      <point x="102" y="-426" type="curve" smooth="yes"/>
      <point x="74" y="-403"/>
      <point x="61" y="-375"/>
      <point x="61" y="-342" type="curve" smooth="yes"/>
      <point x="61" y="-279"/>
      <point x="97" y="-247"/>
      <point x="169" y="-247" type="curve" smooth="yes"/>
      <point x="186" y="-247"/>
      <point x="214" y="-255"/>
      <point x="252" y="-266" type="curve" smooth="yes"/>
      <point x="290" y="-279"/>
      <point x="310" y="-285"/>
      <point x="313" y="-285" type="curve" smooth="yes"/>
      <point x="368" y="-285"/>
      <point x="415" y="-232"/>
      <point x="458" y="-127" type="curve" smooth="yes"/>
      <point x="525" y="39" type="line"/>
      <point x="183" y="756" type="line" smooth="yes"/>
      <point x="162" y="799"/>
      <point x="143" y="832"/>
      <point x="127" y="851" type="curve" smooth="yes"/>
      <point x="94" y="889"/>
      <point x="56" y="911"/>
      <point x="13" y="914" type="curve"/>
      <point x="13" y="954" type="line"/>
      <point x="458" y="954" type="line"/>
      <point x="458" y="914" type="line"/>
      <point x="435" y="914" type="line" smooth="yes"/>
      <point x="372" y="914"/>
      <point x="340" y="891"/>
      <point x="340" y="845" type="curve" smooth="yes"/>
      <point x="340" y="818"/>
      <point x="352" y="779"/>
      <point x="375" y="732" type="curve" smooth="yes"/>
      <point x="606" y="252" type="line"/>
      <point x="819" y="779" type="line"/>
      <point x="847" y="829"/>
      <point x="849" y="867"/>
      <point x="832" y="892" type="curve" smooth="yes"/>
      <point x="821" y="907"/>
      <point x="792" y="914"/>
      <point x="744" y="914" type="curve"/>
      <point x="744" y="954" type="line"/>
      <point x="1054" y="954" type="line"/>
    </contour>
  </outline>
</glyph>
<glyph name="z" format="2">
  <advance width="947"/>
  <unicode hex="007A"/>
  <outline>
    <contour>
      <point x="43" y="0" type="line"/>
      <point x="884" y="0" type="line"/>
      <point x="895" y="292" type="line"/>
      <point x="859" y="292" type="line"/>
      <point x="849" y="212"/>
      <point x="837" y="159"/>
      <point x="822" y="132" type="curve" smooth="yes"/>
      <point x="814" y="116"/>
      <point x="797" y="102"/>
      <point x="769" y="89" type="curve" smooth="yes"/>
      <point x="744" y="76"/>
      <point x="694" y="70"/>
      <point x="621" y="70" type="curve" smooth="yes"/>
      <point x="273" y="70" type="line"/>
      <point x="912" y="914" type="line"/>
      <point x="912" y="954" type="line"/>
      <point x="113" y="954" type="line"/>
      <point x="107" y="689" type="line"/>
      <point x="147" y="689" type="line"/>
      <point x="157" y="786"/>
      <point x="184" y="847"/>
      <point x="230" y="867" type="curve"/>
      <point x="259" y="877"/>
      <point x="303" y="881"/>
      <point x="363" y="881" type="curve" smooth="yes"/>
      <point x="676" y="881" type="line"/>
      <point x="43" y="39" type="line"/>
    </contour>
  </outline>
</glyph>
<glyph name="bar" format="2">
  <advance width="426"/>
  <unicode hex="007C"/>
  <outline>
    <contour>
      <point x="169" y="-462" type="line"/>
      <point x="256" y="-462" type="line"/>
      <point x="256" y="1480" type="line"/>
      <point x="169" y="1480" type="line"/>
    </contour>
  </outline>
</glyph>
<glyph name="braceright" format="2">
  <advance width="1018"/>
  <unicode hex="007D"/>
  <outline>
    <contour>
      <point x="213" y="-459" type="line"/>
      <point x="316" y="-448"/>
      <point x="406" y="-405"/>
      <point x="483" y="-327" type="curve" smooth="yes"/>
      <point x="562" y="-250"/>
      <point x="601" y="-160"/>
      <point x="601" y="-60" type="curve" smooth="yes" name="hr01"/>
      <point x="601" y="-21"/>
      <point x="593" y="34"/>
      <point x="578" y="106" type="curve" smooth="yes"/>
      <point x="562" y="177"/>
      <point x="553" y="227"/>
      <point x="553" y="256" type="curve" smooth="yes"/>
      <point x="553" y="317"/>
      <point x="582" y="369"/>
      <point x="635" y="415" type="curve" smooth="yes"/>
      <point x="682" y="453"/>
      <point x="734" y="478"/>
      <point x="791" y="483" type="curve"/>
      <point x="791" y="538" type="line"/>
      <point x="734" y="543"/>
      <point x="682" y="566"/>
      <point x="635" y="605" type="curve" smooth="yes"/>
      <point x="581" y="649"/>
      <point x="553" y="701"/>
      <point x="553" y="761" type="curve" smooth="yes" name="hr04"/>
      <point x="553" y="791"/>
      <point x="562" y="844"/>
      <point x="578" y="919" type="curve" smooth="yes"/>
      <point x="593" y="995"/>
      <point x="601" y="1054"/>
      <point x="601" y="1095" type="curve" smooth="yes"/>
      <point x="601" y="1191"/>
      <point x="561" y="1278"/>
      <point x="479" y="1356" type="curve" smooth="yes"/>
      <point x="402" y="1429"/>
      <point x="313" y="1469"/>
      <point x="213" y="1480" type="curve"/>
      <point x="213" y="1443" type="line"/>
      <point x="368" y="1404"/>
      <point x="445" y="1313"/>
      <point x="445" y="1168" type="curve" smooth="yes" name="hr03"/>
      <point x="445" y="1135"/>
      <point x="438" y="1088"/>
      <point x="422" y="1024" type="curve" smooth="yes"/>
      <point x="408" y="961"/>
      <point x="400" y="912"/>
      <point x="400" y="879" type="curve" smooth="yes"/>
      <point x="400" y="704"/>
      <point x="495" y="581"/>
      <point x="685" y="511" type="curve"/>
      <point x="495" y="440"/>
      <point x="400" y="316"/>
      <point x="400" y="137" type="curve" smooth="yes" name="hr02"/>
      <point x="400" y="104"/>
      <point x="408" y="57"/>
      <point x="422" y="-6" type="curve" smooth="yes"/>
      <point x="438" y="-67"/>
      <point x="445" y="-114"/>
      <point x="445" y="-147" type="curve" smooth="yes"/>
      <point x="445" y="-293"/>
      <point x="368" y="-385"/>
      <point x="213" y="-422" type="curve"/>
    </contour>
  </outline>
</glyph>
<glyph name="asciitilde" format="2">
  <advance width="1160"/>
  <unicode hex="007E"/>
  <outline>
    <contour>
      <point x="1120" y="656" type="line"/>
      <point x="1038" y="505"/>
      <point x="941" y="429"/>
      <point x="827" y="429" type="curve" smooth="yes"/>
      <point x="771" y="429"/>
      <point x="685" y="455"/>
      <point x="571" y="505" type="curve" smooth="yes"/>
      <point x="456" y="556"/>
      <point x="375" y="582"/>
      <point x="326" y="582" type="curve" smooth="yes"/>
      <point x="276" y="582"/>
      <point x="230" y="561"/>
      <point x="189" y="516" type="curve" smooth="yes"/>
      <point x="167" y="493"/>
      <point x="137" y="449"/>
      <point x="99" y="386" type="curve"/>
      <point x="41" y="462" type="line"/>
      <point x="83" y="539"/>
      <point x="122" y="595"/>
      <point x="156" y="629" type="curve" smooth="yes"/>
      <point x="209" y="682"/>
      <point x="269" y="708"/>
      <point x="336" y="708" type="curve" smooth="yes"/>
      <point x="388" y="708"/>
      <point x="476" y="681"/>
      <point x="599" y="628" type="curve" smooth="yes"/>
      <point x="722" y="576"/>
      <point x="801" y="549"/>
      <point x="837" y="549" type="curve" smooth="yes"/>
      <point x="924" y="549"/>
      <point x="998" y="611"/>
      <point x="1060" y="734" type="curve"/>
    </contour>
  </outline>
</glyph>
<glyph name="currency" format="2">
  <advance width="1600"/>
  <unicode hex="00A4"/>
  <outline>
    <contour>
      <point x="252" y="626" type="line"/>
      <point x="493" y="868" type="line"/>
      <point x="579" y="794"/>
      <point x="688" y="758"/>
      <point x="805" y="758" type="curve" smooth="yes"/>
      <point x="912" y="758"/>
      <point x="1023" y="795"/>
      <point x="1107" y="868" type="curve"/>
      <point x="1349" y="626" type="line"/>
      <point x="1433" y="711" type="line"/>
      <point x="1191" y="952" type="line"/>
      <point x="1261" y="1037"/>
      <point x="1294" y="1144"/>
      <point x="1294" y="1254" type="curve" smooth="yes"/>
      <point x="1294" y="1364"/>
      <point x="1254" y="1481"/>
      <point x="1188" y="1564" type="curve"/>
      <point x="1433" y="1808" type="line"/>
      <point x="1349" y="1892" type="line"/>
      <point x="1100" y="1643" type="line"/>
      <point x="1020" y="1712"/>
      <point x="912" y="1749"/>
      <point x="805" y="1749" type="curve" smooth="yes"/>
      <point x="695" y="1749"/>
      <point x="582" y="1713"/>
      <point x="498" y="1646" type="curve"/>
      <point x="252" y="1892" type="line"/>
      <point x="167" y="1808" type="line"/>
      <point x="413" y="1562" type="line"/>
      <point x="339" y="1480"/>
      <point x="306" y="1360"/>
      <point x="306" y="1253" type="curve" smooth="yes"/>
      <point x="306" y="1143"/>
      <point x="340" y="1037"/>
      <point x="409" y="952" type="curve"/>
      <point x="167" y="711" type="line"/>
    </contour>
    <contour>
      <point x="805" y="891" type="curve" smooth="yes"/>
      <point x="604" y="891"/>
      <point x="439" y="1051"/>
      <point x="439" y="1253" type="curve" smooth="yes"/>
      <point x="439" y="1456"/>
      <point x="601" y="1616"/>
      <point x="805" y="1616" type="curve" smooth="yes"/>
      <point x="1001" y="1616"/>
      <point x="1161" y="1449"/>
      <point x="1161" y="1254" type="curve" smooth="yes"/>
      <point x="1161" y="1254" type="line" smooth="yes"/>
      <point x="1161" y="1058"/>
      <point x="1004" y="891"/>
    </contour>
  </outline>
</glyph>
<glyph name="yen" format="2">
  <advance width="1066"/>
  <unicode hex="00A5"/>
  <outline>
    <contour>
      <point x="1045" y="367" type="line"/>
      <point x="1045" y="442" type="line"/>
      <point x="621" y="442" type="line"/>
      <point x="621" y="610" type="line"/>
      <point x="629" y="629" type="line"/>
      <point x="1045" y="629" type="line"/>
      <point x="1045" y="705" type="line"/>
      <point x="659" y="705" type="line"/>
      <point x="886" y="1211" type="line" smooth="yes"/>
      <point x="916" y="1279"/>
      <point x="946" y="1323"/>
      <point x="973" y="1346" type="curve" smooth="yes"/>
      <point x="994" y="1365"/>
      <point x="1023" y="1372"/>
      <point x="1066" y="1372" type="curve"/>
      <point x="1066" y="1410" type="line"/>
      <point x="705" y="1410" type="line"/>
      <point x="705" y="1372" type="line"/>
      <point x="745" y="1370"/>
      <point x="774" y="1367"/>
      <point x="799" y="1350" type="curve" smooth="yes"/>
      <point x="838" y="1323"/>
      <point x="813" y="1264"/>
      <point x="799" y="1230" type="curve" smooth="yes"/>
      <point x="578" y="705" type="line"/>
      <point x="356" y="1245" type="line" smooth="yes"/>
      <point x="344" y="1279"/>
      <point x="313" y="1316"/>
      <point x="359" y="1346" type="curve" smooth="yes"/>
      <point x="388" y="1365"/>
      <point x="413" y="1369"/>
      <point x="463" y="1372" type="curve"/>
      <point x="463" y="1410" type="line"/>
      <point x="2" y="1410" type="line"/>
      <point x="2" y="1372" type="line"/>
      <point x="40" y="1369"/>
      <point x="71" y="1361"/>
      <point x="95" y="1340" type="curve"/>
      <point x="122" y="1321"/>
      <point x="146" y="1281"/>
      <point x="172" y="1222" type="curve" smooth="yes"/>
      <point x="393" y="705" type="line"/>
      <point x="19" y="705" type="line"/>
      <point x="19" y="629" type="line"/>
      <point x="428" y="629" type="line"/>
      <point x="442" y="592" type="line"/>
      <point x="442" y="442" type="line"/>
      <point x="19" y="442" type="line"/>
      <point x="19" y="367" type="line"/>
      <point x="442" y="367" type="line"/>
      <point x="442" y="253" type="line" smooth="yes"/>
      <point x="442" y="182"/>
      <point x="444" y="111"/>
      <point x="422" y="86" type="curve" smooth="yes"/>
      <point x="391" y="50"/>
      <point x="344" y="42"/>
      <point x="297" y="42" type="curve" smooth="yes"/>
      <point x="262" y="42" type="line"/>
      <point x="262" y="0" type="line"/>
      <point x="799" y="0" type="line"/>
      <point x="799" y="42" type="line"/>
      <point x="757" y="42" type="line" smooth="yes"/>
      <point x="723" y="42"/>
      <point x="672" y="55"/>
      <point x="647" y="84" type="curve" smooth="yes"/>
      <point x="621" y="115"/>
      <point x="621" y="175"/>
      <point x="621" y="253" type="curve" smooth="yes"/>
      <point x="621" y="367" type="line"/>
    </contour>
  </outline>
</glyph>
<glyph name="brokenbar" format="2">
  <advance width="707"/>
  <unicode hex="00A6"/>
  <outline>
    <contour>
      <point x="301" y="688" type="line"/>
      <point x="405" y="688" type="line"/>
      <point x="405" y="1508" type="line"/>
      <point x="301" y="1508" type="line"/>
    </contour>
    <contour>
      <point x="301" y="-406" type="line"/>
      <point x="405" y="-406" type="line"/>
      <point x="405" y="413" type="line"/>
      <point x="301" y="413" type="line"/>
    </contour>
  </outline>
</glyph>
<glyph name="section" format="2">
  <advance width="1066"/>
  <unicode hex="00A7"/>
  <outline>
    <contour>
      <point x="504" y="-416" type="curve" smooth="yes"/>
      <point x="664" y="-416"/>
      <point x="801" y="-297"/>
      <point x="801" y="-119" type="curve" smooth="yes"/>
      <point x="801" y="12"/>
      <point x="721" y="93"/>
      <point x="674" y="145" type="curve"/>
      <point x="755" y="195"/>
      <point x="903" y="308"/>
      <point x="903" y="500" type="curve"/>
      <point x="903" y="705"/>
      <point x="700" y="846"/>
      <point x="563" y="950" type="curve" smooth="yes"/>
      <point x="463" y="1026"/>
      <point x="377" y="1095"/>
      <point x="377" y="1214" type="curve" smooth="yes"/>
      <point x="377" y="1308"/>
      <point x="444" y="1396"/>
      <point x="557" y="1396" type="curve" smooth="yes"/>
      <point x="631" y="1396"/>
      <point x="672" y="1353"/>
      <point x="672" y="1296" type="curve" smooth="yes"/>
      <point x="672" y="1264"/>
      <point x="657" y="1217"/>
      <point x="657" y="1197" type="curve" smooth="yes"/>
      <point x="657" y="1159"/>
      <point x="690" y="1116"/>
      <point x="739" y="1116" type="curve" smooth="yes"/>
      <point x="785" y="1116"/>
      <point x="821" y="1154"/>
      <point x="821" y="1211" type="curve" smooth="yes"/>
      <point x="821" y="1355"/>
      <point x="692" y="1441"/>
      <point x="557" y="1441" type="curve" smooth="yes"/>
      <point x="446" y="1441"/>
      <point x="262" y="1350"/>
      <point x="262" y="1148" type="curve" smooth="yes"/>
      <point x="262" y="1019"/>
      <point x="348" y="928"/>
      <point x="391" y="877" type="curve"/>
      <point x="313" y="829"/>
      <point x="162" y="713"/>
      <point x="162" y="524" type="curve" smooth="yes"/>
      <point x="162" y="359"/>
      <point x="284" y="232"/>
      <point x="481" y="88" type="curve" smooth="yes"/>
      <point x="572" y="22"/>
      <point x="694" y="-71"/>
      <point x="694" y="-204" type="curve" smooth="yes"/>
      <point x="694" y="-284"/>
      <point x="608" y="-375"/>
      <point x="512" y="-375" type="curve" smooth="yes"/>
      <point x="455" y="-375"/>
      <point x="386" y="-348"/>
      <point x="386" y="-295" type="curve" smooth="yes"/>
      <point x="386" y="-266"/>
      <point x="406" y="-209"/>
      <point x="406" y="-179" type="curve" smooth="yes"/>
      <point x="406" y="-153"/>
      <point x="388" y="-90"/>
      <point x="326" y="-90" type="curve" smooth="yes"/>
      <point x="289" y="-90"/>
      <point x="246" y="-120"/>
      <point x="246" y="-182" type="curve" smooth="yes"/>
      <point x="246" y="-335"/>
      <point x="386" y="-416"/>
    </contour>
    <contour>
      <point x="639" y="173" type="curve"/>
      <point x="565" y="257"/>
      <point x="388" y="342"/>
      <point x="306" y="479" type="curve" smooth="yes"/>
      <point x="202" y="653"/>
      <point x="322" y="783"/>
      <point x="426" y="844" type="curve"/>
      <point x="463" y="803"/>
      <point x="679" y="662"/>
      <point x="752" y="546" type="curve"/>
      <point x="865" y="367"/>
      <point x="745" y="242"/>
    </contour>
  </outline>
</glyph>
<glyph name="copyright" format="2">
  <advance width="1619"/>
  <unicode hex="00A9"/>
  <outline>
    <contour>
      <point x="810" y="-33" type="curve" smooth="yes"/>
      <point x="1217" y="-33"/>
      <point x="1549" y="289"/>
      <point x="1549" y="705" type="curve"/>
      <point x="1549" y="1119"/>
      <point x="1226" y="1443"/>
      <point x="810" y="1443" type="curve" smooth="yes"/>
      <point x="444" y="1443"/>
      <point x="71" y="1165"/>
      <point x="71" y="705" type="curve" smooth="yes"/>
      <point x="71" y="282"/>
      <point x="403" y="-33"/>
    </contour>
    <contour>
      <point x="813" y="236" type="curve" smooth="yes"/>
      <point x="988" y="236"/>
      <point x="1116" y="308"/>
      <point x="1212" y="446" type="curve"/>
      <point x="1175" y="469" type="line"/>
      <point x="1095" y="356"/>
      <point x="988" y="301"/>
      <point x="850" y="301" type="curve" smooth="yes"/>
      <point x="643" y="301"/>
      <point x="504" y="439"/>
      <point x="504" y="730" type="curve" smooth="yes"/>
      <point x="504" y="973"/>
      <point x="629" y="1133"/>
      <point x="840" y="1133" type="curve" smooth="yes"/>
      <point x="1059" y="1133"/>
      <point x="1129" y="970"/>
      <point x="1156" y="890" type="curve"/>
      <point x="1194" y="890" type="line"/>
      <point x="1175" y="1181" type="line"/>
      <point x="1133" y="1181" type="line"/>
      <point x="1125" y="1161"/>
      <point x="1121" y="1133"/>
      <point x="1081" y="1133" type="curve" smooth="yes"/>
      <point x="1041" y="1133"/>
      <point x="983" y="1181"/>
      <point x="850" y="1181" type="curve" smooth="yes"/>
      <point x="582" y="1181"/>
      <point x="332" y="1006"/>
      <point x="332" y="698" type="curve" smooth="yes"/>
      <point x="332" y="424"/>
      <point x="553" y="236"/>
    </contour>
    <contour>
      <point x="810" y="33" type="curve" smooth="yes"/>
      <point x="446" y="33"/>
      <point x="137" y="317"/>
      <point x="137" y="705" type="curve" smooth="yes"/>
      <point x="137" y="1121"/>
      <point x="479" y="1379"/>
      <point x="810" y="1379" type="curve" smooth="yes"/>
      <point x="1181" y="1379"/>
      <point x="1484" y="1083"/>
      <point x="1484" y="705" type="curve"/>
      <point x="1484" y="313"/>
      <point x="1167" y="33"/>
    </contour>
  </outline>
</glyph>
<glyph name="guillemotleft" format="2">
  <advance width="1066"/>
  <unicode hex="00AB"/>
  <outline>
    <contour>
      <point x="939" y="-8" type="line"/>
      <point x="998" y="-8" type="line"/>
      <point x="743" y="483" type="line"/>
      <point x="998" y="971" type="line"/>
      <point x="939" y="971" type="line"/>
      <point x="528" y="483" type="line"/>
    </contour>
    <contour>
      <point x="469" y="-8" type="line"/>
      <point x="526" y="-8" type="line"/>
      <point x="272" y="483" type="line"/>
      <point x="526" y="971" type="line"/>
      <point x="469" y="971" type="line"/>
      <point x="66" y="483" type="line"/>
    </contour>
  </outline>
</glyph>
<glyph name="logicalnot" format="2">
  <advance width="1573"/>
  <unicode hex="00AC"/>
  <outline>
    <contour>
      <point x="1420" y="621" type="line"/>
      <point x="1278" y="621" type="line"/>
      <point x="1278" y="1022" type="line"/>
      <point x="154" y="1022" type="line"/>
      <point x="154" y="1163" type="line"/>
      <point x="1420" y="1163" type="line"/>
    </contour>
  </outline>
</glyph>
<glyph name="uni00AD" format="2">
  <advance width="709"/>
  <unicode hex="00AD"/>
  <outline>
    <contour>
      <point x="86" y="398" type="line"/>
      <point x="623" y="398" type="line"/>
      <point x="623" y="556" type="line"/>
      <point x="86" y="556" type="line"/>
    </contour>
  </outline>
</glyph>
<glyph name="registered" format="2">
  <advance width="1619"/>
  <unicode hex="00AE"/>
  <outline>
    <contour>
      <point x="810" y="-33" type="curve" smooth="yes"/>
      <point x="1217" y="-33"/>
      <point x="1549" y="289"/>
      <point x="1549" y="705" type="curve"/>
      <point x="1549" y="1119"/>
      <point x="1226" y="1443"/>
      <point x="810" y="1443" type="curve" smooth="yes"/>
      <point x="444" y="1443"/>
      <point x="71" y="1165"/>
      <point x="71" y="705" type="curve" smooth="yes"/>
      <point x="71" y="282"/>
      <point x="403" y="-33"/>
    </contour>
    <contour>
      <point x="810" y="33" type="curve" smooth="yes"/>
      <point x="446" y="33"/>
      <point x="137" y="317"/>
      <point x="137" y="705" type="curve" smooth="yes"/>
      <point x="137" y="1121"/>
      <point x="479" y="1379"/>
      <point x="810" y="1379" type="curve" smooth="yes"/>
      <point x="1181" y="1379"/>
      <point x="1484" y="1083"/>
      <point x="1484" y="705" type="curve"/>
      <point x="1484" y="313"/>
      <point x="1167" y="33"/>
    </contour>
    <contour>
      <point x="388" y="260" type="line"/>
      <point x="770" y="260" type="line"/>
      <point x="770" y="295" type="line"/>
      <point x="725" y="295"/>
      <point x="692" y="299"/>
      <point x="679" y="308" type="curve" smooth="yes"/>
      <point x="664" y="319"/>
      <point x="647" y="335"/>
      <point x="647" y="358" type="curve" smooth="yes"/>
      <point x="647" y="680" type="line"/>
      <point x="728" y="680" type="line"/>
      <point x="1032" y="260" type="line"/>
      <point x="1226" y="260" type="line"/>
      <point x="1226" y="295" type="line"/>
      <point x="1201" y="297"/>
      <point x="1183" y="301"/>
      <point x="1170" y="308" type="curve" smooth="yes"/>
      <point x="1148" y="324"/>
      <point x="1127" y="344"/>
      <point x="1099" y="385" type="curve" smooth="yes"/>
      <point x="884" y="694" type="line"/>
      <point x="966" y="715"/>
      <point x="1112" y="770"/>
      <point x="1112" y="926" type="curve" smooth="yes"/>
      <point x="1112" y="1053"/>
      <point x="1001" y="1159"/>
      <point x="803" y="1159" type="curve" smooth="yes"/>
      <point x="401" y="1159" type="line"/>
      <point x="401" y="1121" type="line"/>
      <point x="432" y="1121"/>
      <point x="455" y="1116"/>
      <point x="466" y="1108" type="curve" smooth="yes"/>
      <point x="481" y="1099"/>
      <point x="489" y="1085"/>
      <point x="494" y="1072" type="curve" smooth="yes"/>
      <point x="496" y="1063"/>
      <point x="496" y="1032"/>
      <point x="496" y="979" type="curve" smooth="yes"/>
      <point x="496" y="436" type="line" smooth="yes"/>
      <point x="496" y="383"/>
      <point x="496" y="342"/>
      <point x="479" y="322" type="curve" smooth="yes"/>
      <point x="459" y="295"/>
      <point x="422" y="295"/>
      <point x="388" y="295" type="curve"/>
    </contour>
    <contour>
      <point x="647" y="725" type="curve"/>
      <point x="647" y="1099" type="line"/>
      <point x="680" y="1108"/>
      <point x="709" y="1112"/>
      <point x="735" y="1112" type="curve" smooth="yes"/>
      <point x="866" y="1112"/>
      <point x="946" y="1019"/>
      <point x="946" y="914" type="curve"/>
      <point x="946" y="730"/>
      <point x="737" y="725"/>
    </contour>
  </outline>
</glyph>
<glyph name="plusminus" format="2">
  <advance width="2049"/>
  <unicode hex="00B1"/>
  <outline>
    <contour>
      <point x="1639" y="733" type="line"/>
      <point x="1639" y="861" type="line"/>
      <point x="1087" y="861" type="line"/>
      <point x="1087" y="1230" type="line"/>
      <point x="962" y="1230" type="line"/>
      <point x="962" y="861" type="line"/>
      <point x="410" y="861" type="line"/>
      <point x="410" y="733" type="line"/>
      <point x="962" y="733" type="line"/>
      <point x="962" y="365" type="line"/>
      <point x="1087" y="365" type="line"/>
      <point x="1087" y="733" type="line"/>
    </contour>
    <contour>
      <point x="1639" y="0" type="line"/>
      <point x="1639" y="126" type="line"/>
      <point x="410" y="126" type="line"/>
      <point x="410" y="0" type="line"/>
    </contour>
  </outline>
</glyph>
<glyph name="paragraph" format="2">
  <advance width="1600"/>
  <unicode hex="00B6"/>
  <outline>
    <contour>
      <point x="1353" y="1682" type="line"/>
      <point x="1197" y="1682" type="line"/>
      <point x="1197" y="-392" type="line"/>
      <point x="1107" y="-392" type="line"/>
      <point x="1107" y="1682" type="line"/>
      <point x="887" y="1682" type="line"/>
      <point x="887" y="-392" type="line"/>
      <point x="801" y="-392" type="line"/>
      <point x="801" y="852" type="line"/>
      <point x="526" y="859"/>
      <point x="229" y="929"/>
      <point x="229" y="1303" type="curve" smooth="yes"/>
      <point x="229" y="1647"/>
      <point x="511" y="1747"/>
      <point x="765" y="1747" type="curve" smooth="yes"/>
      <point x="1353" y="1747" type="line"/>
    </contour>
  </outline>
</glyph>
<glyph name="periodcentered" format="2">
  <advance width="1600"/>
  <unicode hex="00B7"/>
  <unicode hex="2219"/>
  <outline>
    <contour>
      <point x="798" y="1193" type="line" smooth="yes"/>
      <point x="862" y="1193"/>
      <point x="914" y="1171"/>
      <point x="958" y="1128" type="curve" smooth="yes"/>
      <point x="1003" y="1084"/>
      <point x="1024" y="1031"/>
      <point x="1024" y="968" type="curve" smooth="yes"/>
      <point x="1024" y="907"/>
      <point x="1003" y="854"/>
      <point x="958" y="811" type="curve" smooth="yes"/>
      <point x="914" y="766"/>
      <point x="861" y="745"/>
      <point x="798" y="745" type="curve" smooth="yes"/>
      <point x="737" y="745"/>
      <point x="685" y="766"/>
      <point x="641" y="811" type="curve" smooth="yes"/>
      <point x="596" y="854"/>
      <point x="575" y="907"/>
      <point x="575" y="968" type="curve" smooth="yes"/>
      <point x="575" y="1031"/>
      <point x="596" y="1084"/>
      <point x="641" y="1128" type="curve" smooth="yes"/>
      <point x="685" y="1171"/>
      <point x="737" y="1193"/>
      <point x="798" y="1193" type="curve" smooth="yes"/>
    </contour>
  </outline>
</glyph>
<glyph name="ordmasculine" format="2">
  <advance width="781"/>
  <unicode hex="00BA"/>
  <outline>
    <contour>
      <point x="721" y="1135" type="curve"/>
      <point x="721" y="1296"/>
      <point x="588" y="1425"/>
      <point x="391" y="1425" type="curve" smooth="yes"/>
      <point x="184" y="1425"/>
      <point x="59" y="1272"/>
      <point x="59" y="1119" type="curve" smooth="yes"/>
      <point x="59" y="958"/>
      <point x="193" y="819"/>
      <point x="385" y="819" type="curve" smooth="yes"/>
      <point x="608" y="819"/>
      <point x="721" y="988"/>
    </contour>
    <contour>
      <point x="711" y="680" type="line"/>
      <point x="711" y="725" type="line"/>
      <point x="71" y="725" type="line"/>
      <point x="71" y="680" type="line"/>
    </contour>
    <contour>
      <point x="582" y="1085" type="curve"/>
      <point x="582" y="922"/>
      <point x="514" y="865"/>
      <point x="416" y="865" type="curve" smooth="yes"/>
      <point x="284" y="865"/>
      <point x="199" y="1006"/>
      <point x="199" y="1170" type="curve" smooth="yes"/>
      <point x="199" y="1336"/>
      <point x="291" y="1387"/>
      <point x="369" y="1387" type="curve" smooth="yes"/>
      <point x="500" y="1387"/>
      <point x="582" y="1256"/>
    </contour>
  </outline>
</glyph>
<glyph name="onequarter" format="2">
  <advance width="1578"/>
  <unicode hex="00BC"/>
  <outline>
    <contour>
      <point x="262" y="-15" type="line"/>
      <point x="365" y="-15" type="line"/>
      <point x="1328" y="1437" type="line"/>
      <point x="1232" y="1437" type="line"/>
    </contour>
    <contour>
      <point x="186" y="546" type="line"/>
      <point x="510" y="546" type="line"/>
      <point x="510" y="569" type="line"/>
      <point x="401" y="569"/>
      <point x="401" y="586"/>
      <point x="401" y="696" type="curve" smooth="yes"/>
      <point x="401" y="1418" type="line"/>
      <point x="379" y="1418" type="line"/>
      <point x="172" y="1317" type="line"/>
      <point x="179" y="1294" type="line"/>
      <point x="308" y="1355"/>
      <point x="297" y="1270"/>
      <point x="297" y="1156" type="curve" smooth="yes"/>
      <point x="297" y="696" type="line" smooth="yes"/>
      <point x="297" y="586"/>
      <point x="293" y="569"/>
      <point x="186" y="569" type="curve"/>
    </contour>
    <contour>
      <point x="1188" y="-8" type="line"/>
      <point x="1292" y="-8" type="line"/>
      <point x="1292" y="219" type="line"/>
      <point x="1406" y="219" type="line"/>
      <point x="1406" y="306" type="line"/>
      <point x="1292" y="306" type="line"/>
      <point x="1292" y="865" type="line"/>
      <point x="1224" y="865" type="line"/>
      <point x="825" y="297" type="line"/>
      <point x="825" y="219" type="line"/>
      <point x="1188" y="219" type="line"/>
    </contour>
    <contour>
      <point x="888" y="306" type="line"/>
      <point x="1188" y="732" type="line"/>
      <point x="1188" y="306" type="line"/>
    </contour>
  </outline>
</glyph>
<glyph name="questiondown" format="2">
  <advance width="946"/>
  <unicode hex="00BF"/>
  <outline>
    <contour>
      <point x="600" y="895" type="curve"/>
      <point x="600" y="970"/>
      <point x="541" y="1012"/>
      <point x="481" y="1012" type="curve" smooth="yes"/>
      <point x="428" y="1012"/>
      <point x="367" y="971"/>
      <point x="367" y="895" type="curve" smooth="yes"/>
      <point x="367" y="825"/>
      <point x="424" y="778"/>
      <point x="481" y="778" type="curve" smooth="yes"/>
      <point x="543" y="778"/>
      <point x="600" y="827"/>
    </contour>
    <contour>
      <point x="844" y="-160" type="curve"/>
      <point x="844" y="-24"/>
      <point x="758" y="4"/>
      <point x="730" y="4" type="curve" smooth="yes"/>
      <point x="692" y="4"/>
      <point x="645" y="-27"/>
      <point x="645" y="-86" type="curve" smooth="yes"/>
      <point x="645" y="-133"/>
      <point x="711" y="-206"/>
      <point x="711" y="-264" type="curve" smooth="yes"/>
      <point x="711" y="-326"/>
      <point x="647" y="-401"/>
      <point x="514" y="-401" type="curve" smooth="yes"/>
      <point x="406" y="-401"/>
      <point x="272" y="-324"/>
      <point x="272" y="-115" type="curve" smooth="yes"/>
      <point x="272" y="-6"/>
      <point x="328" y="122"/>
      <point x="371" y="195" type="curve" smooth="yes"/>
      <point x="463" y="348"/>
      <point x="504" y="485"/>
      <point x="512" y="652" type="curve"/>
      <point x="466" y="652" type="line"/>
      <point x="459" y="457"/>
      <point x="388" y="379"/>
      <point x="242" y="213" type="curve" smooth="yes"/>
      <point x="177" y="141"/>
      <point x="80" y="27"/>
      <point x="80" y="-131" type="curve" smooth="yes"/>
      <point x="80" y="-335"/>
      <point x="244" y="-459"/>
      <point x="469" y="-459" type="curve" smooth="yes"/>
      <point x="711" y="-459"/>
      <point x="844" y="-315"/>
    </contour>
  </outline>
</glyph>
<glyph name="AE" format="2">
  <advance width="1895"/>
  <unicode hex="00C6"/>
  <anchor x="904" y="-104" name="L"/>
  <anchor x="904" y="1492" name="U"/>
  <outline>
    <contour>
      <point x="-24" y="0" type="line"/>
      <point x="418" y="0" type="line"/>
      <point x="418" y="39" type="line"/>
      <point x="350" y="44"/>
      <point x="306" y="55"/>
      <point x="284" y="69" type="curve" smooth="yes"/>
      <point x="228" y="104"/>
      <point x="250" y="160"/>
      <point x="328" y="303" type="curve" smooth="yes"/>
      <point x="457" y="546" type="line"/>
      <point x="868" y="546" type="line"/>
      <point x="868" y="250" type="line" smooth="yes"/>
      <point x="868" y="164"/>
      <point x="861" y="111"/>
      <point x="844" y="90" type="curve" smooth="yes"/>
      <point x="815" y="55"/>
      <point x="774" y="39"/>
      <point x="715" y="39" type="curve" smooth="yes"/>
      <point x="664" y="39" type="line"/>
      <point x="664" y="0" type="line"/>
      <point x="1723" y="0" type="line"/>
      <point x="1834" y="356" type="line"/>
      <point x="1797" y="356" type="line"/>
      <point x="1701" y="158"/>
      <point x="1613" y="75"/>
      <point x="1376" y="75" type="curve" smooth="yes"/>
      <point x="1188" y="75" type="line" smooth="yes"/>
      <point x="1106" y="75"/>
      <point x="1087" y="99"/>
      <point x="1076" y="119" type="curve"/>
      <point x="1066" y="133"/>
      <point x="1068" y="175"/>
      <point x="1068" y="230" type="curve" smooth="yes"/>
      <point x="1068" y="698" type="line"/>
      <point x="1336" y="698" type="line" smooth="yes"/>
      <point x="1514" y="698"/>
      <point x="1541" y="657"/>
      <point x="1562" y="492" type="curve"/>
      <point x="1598" y="492" type="line"/>
      <point x="1598" y="979" type="line"/>
      <point x="1562" y="979" type="line"/>
      <point x="1549" y="829"/>
      <point x="1498" y="776"/>
      <point x="1336" y="776" type="curve" smooth="yes"/>
      <point x="1068" y="776" type="line"/>
      <point x="1068" y="1334" type="line"/>
      <point x="1414" y="1334" type="line" smooth="yes"/>
      <point x="1625" y="1334"/>
      <point x="1648" y="1294"/>
      <point x="1690" y="1103" type="curve"/>
      <point x="1723" y="1103" type="line"/>
      <point x="1707" y="1410" type="line"/>
      <point x="551" y="1410" type="line"/>
      <point x="551" y="1372" type="line"/>
      <point x="698" y="1365"/>
      <point x="732" y="1334"/>
      <point x="732" y="1287" type="curve" smooth="yes"/>
      <point x="732" y="1254"/>
      <point x="705" y="1184"/>
      <point x="652" y="1085" type="curve" smooth="yes"/>
      <point x="221" y="284" type="line" smooth="yes"/>
      <point x="141" y="137"/>
      <point x="93" y="82"/>
      <point x="53" y="57" type="curve" smooth="yes"/>
      <point x="33" y="44"/>
      <point x="6" y="39"/>
      <point x="-24" y="39" type="curve"/>
    </contour>
    <contour>
      <point x="496" y="624" type="line"/>
      <point x="868" y="1334" type="line"/>
      <point x="868" y="624" type="line"/>
    </contour>
  </outline>
</glyph>
<glyph name="Eth" format="2">
  <advance width="1539"/>
  <unicode hex="00D0"/>
  <anchor x="745" y="-104" name="L"/>
  <anchor x="745" y="1492" name="U"/>
  <outline>
    <component base="D"/>
    <contour>
      <point x="850" y="705" type="line"/>
      <point x="850" y="823" type="line"/>
      <point x="37" y="823" type="line"/>
      <point x="37" y="705" type="line"/>
    </contour>
  </outline>
</glyph>
<glyph name="Thorn" format="2">
  <advance width="1184"/>
  <unicode hex="00DE"/>
  <anchor x="572" y="-104" name="L"/>
  <anchor x="572" y="1492" name="U"/>
  <outline>
    <contour>
      <point x="1104" y="707" type="curve"/>
      <point x="1104" y="844"/>
      <point x="1030" y="945"/>
      <point x="934" y="1010" type="curve" smooth="yes"/>
      <point x="846" y="1070"/>
      <point x="764" y="1090"/>
      <point x="514" y="1090" type="curve" smooth="yes"/>
      <point x="436" y="1090" type="line"/>
      <point x="436" y="1159" type="line" smooth="yes"/>
      <point x="436" y="1228"/>
      <point x="439" y="1252"/>
      <point x="455" y="1296" type="curve" smooth="yes"/>
      <point x="473" y="1353"/>
      <point x="551" y="1372"/>
      <point x="596" y="1372" type="curve" smooth="yes"/>
      <point x="639" y="1372" type="line"/>
      <point x="639" y="1410" type="line"/>
      <point x="39" y="1410" type="line"/>
      <point x="39" y="1372" type="line"/>
      <point x="78" y="1372" type="line" smooth="yes"/>
      <point x="156" y="1372"/>
      <point x="211" y="1338"/>
      <point x="223" y="1296" type="curve"/>
      <point x="230" y="1281"/>
      <point x="236" y="1232"/>
      <point x="236" y="1154" type="curve" smooth="yes"/>
      <point x="236" y="250" type="line" smooth="yes"/>
      <point x="236" y="166"/>
      <point x="228" y="115"/>
      <point x="215" y="95" type="curve" smooth="yes"/>
      <point x="188" y="57"/>
      <point x="143" y="39"/>
      <point x="75" y="39" type="curve" smooth="yes"/>
      <point x="39" y="39" type="line"/>
      <point x="39" y="0" type="line"/>
      <point x="639" y="0" type="line"/>
      <point x="639" y="39" type="line"/>
      <point x="596" y="39" type="line" smooth="yes"/>
      <point x="537" y="39"/>
      <point x="498" y="50"/>
      <point x="473" y="78" type="curve" smooth="yes"/>
      <point x="449" y="106"/>
      <point x="436" y="164"/>
      <point x="436" y="253" type="curve" smooth="yes"/>
      <point x="436" y="317" type="line"/>
      <point x="510" y="317" type="line" smooth="yes"/>
      <point x="842" y="317"/>
      <point x="918" y="369"/>
      <point x="992" y="442" type="curve" smooth="yes"/>
      <point x="1059" y="510"/>
      <point x="1104" y="604"/>
    </contour>
    <contour>
      <point x="863" y="705" type="curve"/>
      <point x="863" y="526"/>
      <point x="760" y="388"/>
      <point x="483" y="388" type="curve" smooth="yes"/>
      <point x="436" y="388" type="line"/>
      <point x="436" y="1010" type="line"/>
      <point x="485" y="1010" type="line" smooth="yes"/>
      <point x="674" y="1010"/>
      <point x="690" y="990"/>
      <point x="745" y="950" type="curve" smooth="yes"/>
      <point x="821" y="895"/>
      <point x="863" y="806"/>
    </contour>
  </outline>
</glyph>
<glyph name="germandbls" format="2">
  <advance width="1066"/>
  <unicode hex="00DF"/>
  <anchor x="517" y="-104" name="L"/>
  <anchor x="517" y="1492" name="U"/>
  <outline>
    <contour>
      <point x="647" y="-12" type="curve" smooth="yes"/>
      <point x="865" y="-12"/>
      <point x="998" y="200"/>
      <point x="998" y="438" type="curve"/>
      <point x="998" y="668"/>
      <point x="893" y="803"/>
      <point x="713" y="854" type="curve"/>
      <point x="881" y="924"/>
      <point x="912" y="1034"/>
      <point x="912" y="1141" type="curve" smooth="yes"/>
      <point x="912" y="1342"/>
      <point x="766" y="1479"/>
      <point x="546" y="1479" type="curve" smooth="yes"/>
      <point x="303" y="1479"/>
      <point x="173" y="1344"/>
      <point x="173" y="1006" type="curve" smooth="yes"/>
      <point x="173" y="232" type="line" smooth="yes"/>
      <point x="173" y="73"/>
      <point x="145" y="40"/>
      <point x="37" y="39" type="curve"/>
      <point x="37" y="0" type="line"/>
      <point x="348" y="0" type="line"/>
      <point x="348" y="1078" type="line" smooth="yes"/>
      <point x="348" y="1355"/>
      <point x="428" y="1410"/>
      <point x="537" y="1410" type="curve" smooth="yes"/>
      <point x="655" y="1410"/>
      <point x="737" y="1336"/>
      <point x="737" y="1148" type="curve" smooth="yes"/>
      <point x="737" y="934"/>
      <point x="653" y="865"/>
      <point x="514" y="865" type="curve"/>
      <point x="514" y="806" type="line"/>
      <point x="725" y="788"/>
      <point x="819" y="610"/>
      <point x="819" y="326" type="curve" smooth="yes"/>
      <point x="819" y="139"/>
      <point x="757" y="44"/>
      <point x="664" y="44" type="curve"/>
      <point x="627" y="48"/>
      <point x="604" y="61"/>
      <point x="604" y="93" type="curve" smooth="yes"/>
      <point x="604" y="106"/>
      <point x="618" y="145"/>
      <point x="616" y="164" type="curve" smooth="yes"/>
      <point x="614" y="213"/>
      <point x="584" y="246"/>
      <point x="530" y="246" type="curve" smooth="yes"/>
      <point x="477" y="246"/>
      <point x="444" y="209"/>
      <point x="446" y="156" type="curve" smooth="yes"/>
      <point x="449" y="57"/>
      <point x="532" y="-12"/>
    </contour>
  </outline>
</glyph>
<glyph name="divide" format="2">
  <advance width="2049"/>
  <unicode hex="00F7"/>
  <outline>
    <contour>
      <point x="1148" y="945" type="curve"/>
      <point x="1148" y="1012"/>
      <point x="1093" y="1068"/>
      <point x="1024" y="1068" type="curve" smooth="yes"/>
      <point x="956" y="1068"/>
      <point x="901" y="1012"/>
      <point x="901" y="945" type="curve" smooth="yes"/>
      <point x="901" y="874"/>
      <point x="956" y="821"/>
      <point x="1024" y="821" type="curve" smooth="yes"/>
      <point x="1093" y="821"/>
      <point x="1148" y="874"/>
    </contour>
    <contour>
      <point x="1639" y="551" type="line"/>
      <point x="1639" y="679" type="line"/>
      <point x="410" y="679" type="line"/>
      <point x="410" y="551" type="line"/>
    </contour>
    <contour>
      <point x="1148" y="284" type="curve"/>
      <point x="1148" y="354"/>
      <point x="1093" y="408"/>
      <point x="1024" y="408" type="curve" smooth="yes"/>
      <point x="956" y="408"/>
      <point x="901" y="354"/>
      <point x="901" y="284" type="curve" smooth="yes"/>
      <point x="901" y="217"/>
      <point x="956" y="164"/>
      <point x="1024" y="164" type="curve" smooth="yes"/>
      <point x="1093" y="164"/>
      <point x="1148" y="217"/>
    </contour>
  </outline>
</glyph>
<glyph name="dotlessi" format="2">
  <advance width="592"/>
  <unicode hex="0131"/>
  <anchor x="306" y="0" name="H"/>
  <anchor x="305" y="-104" name="L"/>
  <anchor x="462" y="0" name="O"/>
  <anchor x="592" y="936" name="R"/>
  <anchor x="305" y="1040" name="U"/>
  <outline>
    <contour>
      <point x="80" y="0" type="line"/>
      <point x="546" y="0" type="line"/>
      <point x="546" y="39" type="line"/>
      <point x="469" y="39"/>
      <point x="451" y="42"/>
      <point x="424" y="73" type="curve" smooth="yes"/>
      <point x="406" y="93"/>
      <point x="399" y="131"/>
      <point x="399" y="215" type="curve" smooth="yes"/>
      <point x="399" y="979" type="line"/>
      <point x="354" y="979" type="line"/>
      <point x="66" y="865" type="line"/>
      <point x="80" y="827" type="line"/>
      <point x="139" y="848"/>
      <point x="172" y="850"/>
      <point x="197" y="827" type="curve" smooth="yes"/>
      <point x="225" y="803"/>
      <point x="225" y="752"/>
      <point x="225" y="582" type="curve" smooth="yes"/>
      <point x="225" y="215" type="line" smooth="yes"/>
      <point x="225" y="126"/>
      <point x="215" y="95"/>
      <point x="197" y="71" type="curve" smooth="yes"/>
      <point x="177" y="46"/>
      <point x="149" y="39"/>
      <point x="80" y="39" type="curve"/>
    </contour>
  </outline>
</glyph>
<glyph name="OE" format="2">
  <advance width="1895"/>
  <unicode hex="0152"/>
  <anchor x="955" y="-104" name="L"/>
  <anchor x="955" y="1492" name="U"/>
  <outline>
    <contour>
      <point x="715" y="-15" type="curve" smooth="yes"/>
      <point x="776" y="-15"/>
      <point x="1024" y="0"/>
      <point x="1041" y="0" type="curve" smooth="yes"/>
      <point x="1217" y="0" type="line"/>
      <point x="1721" y="0" type="line"/>
      <point x="1834" y="354" type="line"/>
      <point x="1794" y="354" type="line"/>
      <point x="1756" y="268"/>
      <point x="1709" y="202"/>
      <point x="1658" y="153" type="curve" smooth="yes"/>
      <point x="1586" y="86"/>
      <point x="1508" y="78"/>
      <point x="1383" y="78" type="curve" smooth="yes"/>
      <point x="1272" y="78" type="line" smooth="yes"/>
      <point x="1167" y="78"/>
      <point x="1150" y="92"/>
      <point x="1150" y="232" type="curve" smooth="yes"/>
      <point x="1150" y="698" type="line"/>
      <point x="1338" y="698" type="line" smooth="yes"/>
      <point x="1422" y="698"/>
      <point x="1476" y="684"/>
      <point x="1503" y="657" type="curve" smooth="yes"/>
      <point x="1535" y="629"/>
      <point x="1551" y="575"/>
      <point x="1556" y="489" type="curve"/>
      <point x="1598" y="489" type="line"/>
      <point x="1598" y="979" type="line"/>
      <point x="1556" y="979" type="line"/>
      <point x="1556" y="910"/>
      <point x="1543" y="859"/>
      <point x="1508" y="827" type="curve"/>
      <point x="1476" y="793"/>
      <point x="1418" y="778"/>
      <point x="1338" y="778" type="curve" smooth="yes"/>
      <point x="1150" y="778" type="line"/>
      <point x="1150" y="1334" type="line"/>
      <point x="1416" y="1334" type="line" smooth="yes"/>
      <point x="1619" y="1334"/>
      <point x="1621" y="1285"/>
      <point x="1646" y="1258" type="curve" smooth="yes"/>
      <point x="1668" y="1234"/>
      <point x="1672" y="1183"/>
      <point x="1690" y="1103" type="curve"/>
      <point x="1721" y="1103" type="line"/>
      <point x="1709" y="1410" type="line"/>
      <point x="1217" y="1410" type="line" smooth="yes"/>
      <point x="1129" y="1410"/>
      <point x="1034" y="1412"/>
      <point x="941" y="1416" type="curve" smooth="yes"/>
      <point x="819" y="1420"/>
      <point x="755" y="1423"/>
      <point x="737" y="1423" type="curve" smooth="yes"/>
      <point x="319" y="1423"/>
      <point x="78" y="1103"/>
      <point x="78" y="703" type="curve" smooth="yes"/>
      <point x="78" y="301"/>
      <point x="338" y="-15"/>
    </contour>
    <contour>
      <point x="737" y="57" type="curve" smooth="yes"/>
      <point x="426" y="57"/>
      <point x="317" y="381"/>
      <point x="317" y="694" type="curve" smooth="yes"/>
      <point x="317" y="1097"/>
      <point x="459" y="1357"/>
      <point x="741" y="1357" type="curve" smooth="yes"/>
      <point x="838" y="1357"/>
      <point x="901" y="1326"/>
      <point x="928" y="1263" type="curve" smooth="yes"/>
      <point x="943" y="1232"/>
      <point x="948" y="1175"/>
      <point x="948" y="1083" type="curve" smooth="yes"/>
      <point x="948" y="354" type="line"/>
      <point x="948" y="253"/>
      <point x="943" y="190"/>
      <point x="930" y="158" type="curve" smooth="yes"/>
      <point x="905" y="90"/>
      <point x="840" y="57"/>
    </contour>
  </outline>
</glyph>
<glyph name="oe" format="2">
  <advance width="1539"/>
  <unicode hex="0153"/>
  <anchor x="833" y="0" name="H"/>
  <anchor x="769" y="-104" name="L"/>
  <anchor x="1278" y="0" name="O"/>
  <anchor x="1539" y="936" name="R"/>
  <anchor x="769" y="1040" name="U"/>
  <outline>
    <contour>
      <point x="1469" y="352" type="curve"/>
      <point x="1435" y="369" type="line"/>
      <point x="1374" y="200"/>
      <point x="1292" y="143"/>
      <point x="1184" y="143" type="curve" smooth="yes"/>
      <point x="1006" y="143"/>
      <point x="886" y="317"/>
      <point x="899" y="596" type="curve"/>
      <point x="1469" y="596" type="line"/>
      <point x="1474" y="832"/>
      <point x="1344" y="981"/>
      <point x="1129" y="981" type="curve" smooth="yes"/>
      <point x="999" y="981"/>
      <point x="907" y="928"/>
      <point x="837" y="815" type="curve"/>
      <point x="766" y="916"/>
      <point x="655" y="979"/>
      <point x="510" y="979" type="curve" smooth="yes"/>
      <point x="262" y="979"/>
      <point x="69" y="778"/>
      <point x="69" y="461" type="curve" smooth="yes"/>
      <point x="69" y="162"/>
      <point x="260" y="-33"/>
      <point x="502" y="-31" type="curve" smooth="yes"/>
      <point x="652" y="-29"/>
      <point x="755" y="33"/>
      <point x="837" y="139" type="curve"/>
      <point x="881" y="44"/>
      <point x="983" y="-33"/>
      <point x="1114" y="-31" type="curve" smooth="yes"/>
      <point x="1294" y="-29"/>
      <point x="1418" y="92"/>
    </contour>
    <contour>
      <point x="1264" y="664" type="curve"/>
      <point x="899" y="664" type="line"/>
      <point x="903" y="835"/>
      <point x="999" y="912"/>
      <point x="1079" y="912" type="curve" smooth="yes"/>
      <point x="1219" y="912"/>
      <point x="1264" y="776"/>
    </contour>
    <contour>
      <point x="743" y="393" type="curve"/>
      <point x="743" y="133"/>
      <point x="652" y="44"/>
      <point x="530" y="44" type="curve" smooth="yes"/>
      <point x="365" y="44"/>
      <point x="264" y="270"/>
      <point x="264" y="561" type="curve" smooth="yes"/>
      <point x="264" y="829"/>
      <point x="358" y="922"/>
      <point x="471" y="922" type="curve" smooth="yes"/>
      <point x="657" y="922"/>
      <point x="743" y="703"/>
    </contour>
  </outline>
</glyph>
<glyph name="florin" format="2">
  <advance width="709"/>
  <unicode hex="0192"/>
  <anchor x="395" y="-520" name="L"/>
  <anchor x="395" y="1492" name="U"/>
  <outline>
    <contour>
      <point x="926" y="1301" type="curve"/>
      <point x="926" y="1396"/>
      <point x="785" y="1479"/>
      <point x="664" y="1479" type="curve" smooth="yes"/>
      <point x="599" y="1479"/>
      <point x="264" y="1447"/>
      <point x="264" y="1017" type="curve" smooth="yes"/>
      <point x="264" y="952" type="line"/>
      <point x="78" y="952" type="line"/>
      <point x="78" y="877" type="line"/>
      <point x="264" y="877" type="line"/>
      <point x="264" y="0" type="line" smooth="yes"/>
      <point x="264" y="-268"/>
      <point x="246" y="-381"/>
      <point x="146" y="-381" type="curve" smooth="yes"/>
      <point x="10" y="-381"/>
      <point x="84" y="-195"/>
      <point x="-55" y="-195" type="curve" smooth="yes"/>
      <point x="-101" y="-195"/>
      <point x="-135" y="-244"/>
      <point x="-135" y="-280" type="curve" smooth="yes"/>
      <point x="-135" y="-375"/>
      <point x="-39" y="-459"/>
      <point x="82" y="-459" type="curve" smooth="yes"/>
      <point x="149" y="-459"/>
      <point x="438" y="-426"/>
      <point x="438" y="4" type="curve" smooth="yes"/>
      <point x="438" y="877" type="line"/>
      <point x="684" y="877" type="line"/>
      <point x="684" y="952" type="line"/>
      <point x="438" y="952" type="line"/>
      <point x="438" y="1021" type="line" smooth="yes"/>
      <point x="438" y="1289"/>
      <point x="449" y="1401"/>
      <point x="582" y="1401" type="curve" smooth="yes"/>
      <point x="728" y="1401"/>
      <point x="735" y="1212"/>
      <point x="842" y="1214" type="curve" smooth="yes"/>
      <point x="890" y="1214"/>
      <point x="926" y="1264"/>
    </contour>
  </outline>
</glyph>
<glyph name="uni02D0" format="2">
  <advance width="444"/>
  <unicode hex="02D0"/>
  <anchor x="223" y="-104" name="L"/>
  <anchor x="223" y="1040" name="U"/>
  <outline>
    <contour>
      <point x="367" y="952" type="line"/>
      <point x="78" y="952" type="line"/>
      <point x="173" y="627" type="line"/>
      <point x="272" y="627" type="line"/>
    </contour>
    <contour>
      <point x="367" y="0" type="line"/>
      <point x="272" y="326" type="line"/>
      <point x="173" y="326" type="line"/>
      <point x="78" y="0" type="line"/>
    </contour>
  </outline>
</glyph>
<glyph name="ring" format="2">
  <advance width="397"/>
  <unicode hex="02DA"/>
  <outline>
    <contour>
      <point x="397" y="1283" type="curve"/>
      <point x="397" y="1406"/>
      <point x="299" y="1482"/>
      <point x="200" y="1482" type="curve" smooth="yes"/>
      <point x="93" y="1482"/>
      <point x="0" y="1401"/>
      <point x="0" y="1283" type="curve" smooth="yes"/>
      <point x="0" y="1163"/>
      <point x="101" y="1083"/>
      <point x="200" y="1083" type="curve" smooth="yes"/>
      <point x="299" y="1083"/>
      <point x="397" y="1163"/>
    </contour>
    <contour>
      <point x="326" y="1283" type="curve"/>
      <point x="326" y="1214"/>
      <point x="270" y="1156"/>
      <point x="200" y="1156" type="curve" smooth="yes"/>
      <point x="135" y="1156"/>
      <point x="71" y="1203"/>
      <point x="71" y="1283" type="curve" smooth="yes"/>
      <point x="71" y="1359"/>
      <point x="131" y="1410"/>
      <point x="200" y="1410" type="curve" smooth="yes"/>
      <point x="264" y="1410"/>
      <point x="326" y="1359"/>
    </contour>
  </outline>
</glyph>
<glyph name="hungarumlaut" format="2">
  <advance width="861"/>
  <unicode hex="02DD"/>
  <outline>
    <contour>
      <point x="0" y="1083" type="line"/>
      <point x="75" y="1083" type="line"/>
      <point x="383" y="1296" type="line" smooth="yes"/>
      <point x="428" y="1328"/>
      <point x="483" y="1340"/>
      <point x="477" y="1404" type="curve"/>
      <point x="475" y="1435"/>
      <point x="453" y="1452"/>
      <point x="410" y="1452" type="curve" smooth="yes"/>
      <point x="359" y="1452"/>
      <point x="328" y="1414"/>
      <point x="295" y="1381" type="curve" smooth="yes"/>
    </contour>
    <contour>
      <point x="385" y="1083" type="line"/>
      <point x="459" y="1083" type="line"/>
      <point x="766" y="1296" type="line" smooth="yes"/>
      <point x="812" y="1328"/>
      <point x="866" y="1340"/>
      <point x="861" y="1404" type="curve"/>
      <point x="859" y="1435"/>
      <point x="837" y="1452"/>
      <point x="793" y="1452" type="curve" smooth="yes"/>
      <point x="750" y="1452"/>
      <point x="711" y="1414"/>
      <point x="680" y="1381" type="curve" smooth="yes"/>
    </contour>
  </outline>
</glyph>
<glyph name="figuredash" format="2">
  <advance width="1066"/>
  <unicode hex="2012"/>
  <outline>
    <contour>
      <point x="1014" y="469" type="line"/>
      <point x="1014" y="549" type="line"/>
      <point x="52" y="549" type="line"/>
      <point x="52" y="469" type="line"/>
    </contour>
  </outline>
</glyph>
<glyph name="endash" format="2">
  <advance width="1024"/>
  <unicode hex="2013"/>
  <outline>
    <contour>
      <point x="1055" y="469" type="line"/>
      <point x="1055" y="549" type="line"/>
      <point x="-44" y="549" type="line"/>
      <point x="-44" y="469" type="line"/>
    </contour>
  </outline>
</glyph>
<glyph name="emdash" format="2">
  <advance width="2048"/>
  <unicode hex="2014"/>
  <outline>
    <contour>
      <point x="2048" y="469" type="line"/>
      <point x="0" y="469" type="line"/>
      <point x="0" y="549" type="line"/>
      <point x="2048" y="549" type="line"/>
    </contour>
  </outline>
</glyph>
<glyph name="quoteright" format="2">
  <advance width="1600"/>
  <unicode hex="2019"/>
  <guideline y="2047"/>
  <outline>
    <contour>
      <point x="509" y="1583" type="line" smooth="yes"/>
      <point x="509" y="1406"/>
      <point x="410" y="1284"/>
      <point x="212" y="1219" type="curve"/>
      <point x="212" y="1268" type="line"/>
      <point x="339" y="1343"/>
      <point x="402" y="1422"/>
      <point x="402" y="1505" type="curve" smooth="yes"/>
      <point x="402" y="1552"/>
      <point x="388" y="1575"/>
      <point x="359" y="1575" type="curve" smooth="yes"/>
      <point x="354" y="1575"/>
      <point x="341" y="1572"/>
      <point x="320" y="1565" type="curve" smooth="yes"/>
      <point x="299" y="1559"/>
      <point x="284" y="1556"/>
      <point x="275" y="1556" type="curve" smooth="yes"/>
      <point x="246" y="1556"/>
      <point x="220" y="1567"/>
      <point x="196" y="1590" type="curve" smooth="yes"/>
      <point x="172" y="1613"/>
      <point x="160" y="1642"/>
      <point x="160" y="1679" type="curve" smooth="yes"/>
      <point x="160" y="1720"/>
      <point x="177" y="1754"/>
      <point x="212" y="1780" type="curve"/>
      <point x="242" y="1800"/>
      <point x="275" y="1810"/>
      <point x="310" y="1810" type="curve" smooth="yes"/>
      <point x="359" y="1810"/>
      <point x="404" y="1790"/>
      <point x="443" y="1751" type="curve" smooth="yes"/>
      <point x="487" y="1706"/>
      <point x="509" y="1650"/>
      <point x="509" y="1583" type="curve" smooth="yes"/>
    </contour>
  </outline>
</glyph>
<glyph name="quotesinglbase" format="2">
  <advance width="709"/>
  <unicode hex="201A"/>
  <outline>
    <contour>
      <point x="518" y="0" type="curve"/>
      <point x="518" y="126"/>
      <point x="422" y="206"/>
      <point x="338" y="206" type="curve" smooth="yes"/>
      <point x="280" y="206"/>
      <point x="200" y="168"/>
      <point x="200" y="86" type="curve" smooth="yes"/>
      <point x="200" y="15"/>
      <point x="257" y="-24"/>
      <point x="305" y="-24" type="curve" smooth="yes"/>
      <point x="332" y="-24"/>
      <point x="365" y="-8"/>
      <point x="383" y="-8" type="curve" smooth="yes"/>
      <point x="393" y="-8"/>
      <point x="422" y="-17"/>
      <point x="422" y="-71" type="curve" smooth="yes"/>
      <point x="422" y="-184"/>
      <point x="322" y="-244"/>
      <point x="248" y="-287" type="curve"/>
      <point x="248" y="-332" type="line"/>
      <point x="328" y="-305"/>
      <point x="518" y="-217"/>
    </contour>
  </outline>
</glyph>
<glyph name="quotedblleft" format="2">
  <advance width="1600"/>
  <unicode hex="201C"/>
  <outline>
    <contour>
      <point x="1290" y="1221" type="curve" smooth="yes"/>
      <point x="1325" y="1221"/>
      <point x="1359" y="1232"/>
      <point x="1391" y="1255" type="curve" smooth="yes"/>
      <point x="1424" y="1278"/>
      <point x="1440" y="1311"/>
      <point x="1440" y="1354" type="curve" smooth="yes"/>
      <point x="1440" y="1354" type="line" smooth="yes"/>
      <point x="1440" y="1389"/>
      <point x="1428" y="1419"/>
      <point x="1404" y="1442" type="curve" smooth="yes"/>
      <point x="1380" y="1465"/>
      <point x="1354" y="1477"/>
      <point x="1325" y="1477" type="curve" smooth="yes"/>
      <point x="1316" y="1477"/>
      <point x="1301" y="1474"/>
      <point x="1280" y="1467" type="curve" smooth="yes"/>
      <point x="1259" y="1461"/>
      <point x="1246" y="1458"/>
      <point x="1241" y="1458" type="curve" smooth="yes"/>
      <point x="1212" y="1458"/>
      <point x="1198" y="1481"/>
      <point x="1198" y="1528" type="curve" smooth="yes"/>
      <point x="1198" y="1610"/>
      <point x="1261" y="1688"/>
      <point x="1388" y="1763" type="curve"/>
      <point x="1388" y="1815" type="line"/>
      <point x="1190" y="1748"/>
      <point x="1091" y="1625"/>
      <point x="1091" y="1448" type="curve" smooth="yes"/>
      <point x="1091" y="1383"/>
      <point x="1113" y="1327"/>
      <point x="1157" y="1282" type="curve" smooth="yes"/>
      <point x="1196" y="1241"/>
      <point x="1241" y="1221"/>
    </contour>
    <contour>
      <point x="743" y="1223" type="curve" smooth="yes"/>
      <point x="779" y="1223"/>
      <point x="813" y="1234"/>
      <point x="845" y="1257" type="curve" smooth="yes"/>
      <point x="877" y="1280"/>
      <point x="893" y="1313"/>
      <point x="893" y="1356" type="curve" smooth="yes"/>
      <point x="893" y="1356" type="line" smooth="yes"/>
      <point x="893" y="1393"/>
      <point x="881" y="1422"/>
      <point x="857" y="1445" type="curve" smooth="yes"/>
      <point x="833" y="1468"/>
      <point x="807" y="1479"/>
      <point x="778" y="1479" type="curve" smooth="yes"/>
      <point x="767" y="1479"/>
      <point x="752" y="1476"/>
      <point x="732" y="1469" type="curve" smooth="yes"/>
      <point x="712" y="1463"/>
      <point x="699" y="1460"/>
      <point x="692" y="1460" type="curve" smooth="yes"/>
      <point x="663" y="1460"/>
      <point x="649" y="1483"/>
      <point x="649" y="1530" type="curve" smooth="yes"/>
      <point x="649" y="1612"/>
      <point x="713" y="1690"/>
      <point x="842" y="1765" type="curve"/>
      <point x="842" y="1817" type="line"/>
      <point x="644" y="1750"/>
      <point x="545" y="1627"/>
      <point x="545" y="1450" type="curve" smooth="yes"/>
      <point x="545" y="1385"/>
      <point x="567" y="1329"/>
      <point x="610" y="1284" type="curve" smooth="yes"/>
      <point x="648" y="1243"/>
      <point x="692" y="1223"/>
    </contour>
  </outline>
</glyph>
<glyph name="quotedblright" format="2">
  <advance width="1600"/>
  <unicode hex="201D"/>
  <outline>
    <contour>
      <point x="1055" y="1581" type="line" smooth="yes"/>
      <point x="1055" y="1404"/>
      <point x="956" y="1282"/>
      <point x="758" y="1217" type="curve"/>
      <point x="758" y="1266" type="line"/>
      <point x="887" y="1341"/>
      <point x="951" y="1420"/>
      <point x="951" y="1503" type="curve" smooth="yes"/>
      <point x="951" y="1550"/>
      <point x="937" y="1573"/>
      <point x="908" y="1573" type="curve" smooth="yes"/>
      <point x="901" y="1573"/>
      <point x="888" y="1570"/>
      <point x="868" y="1563" type="curve" smooth="yes"/>
      <point x="848" y="1557"/>
      <point x="833" y="1554"/>
      <point x="822" y="1554" type="curve" smooth="yes"/>
      <point x="793" y="1554"/>
      <point x="767" y="1565"/>
      <point x="743" y="1588" type="curve" smooth="yes"/>
      <point x="719" y="1611"/>
      <point x="707" y="1640"/>
      <point x="707" y="1675" type="curve" smooth="yes"/>
      <point x="707" y="1718"/>
      <point x="724" y="1752"/>
      <point x="758" y="1778" type="curve"/>
      <point x="788" y="1798"/>
      <point x="822" y="1808"/>
      <point x="859" y="1808" type="curve" smooth="yes"/>
      <point x="908" y="1808"/>
      <point x="951" y="1788"/>
      <point x="990" y="1749" type="curve" smooth="yes"/>
      <point x="1033" y="1704"/>
      <point x="1055" y="1648"/>
      <point x="1055" y="1581" type="curve" smooth="yes"/>
    </contour>
    <contour>
      <point x="509" y="1583" type="line" smooth="yes"/>
      <point x="509" y="1406"/>
      <point x="410" y="1284"/>
      <point x="212" y="1219" type="curve"/>
      <point x="212" y="1268" type="line"/>
      <point x="339" y="1343"/>
      <point x="402" y="1422"/>
      <point x="402" y="1505" type="curve" smooth="yes"/>
      <point x="402" y="1552"/>
      <point x="388" y="1575"/>
      <point x="359" y="1575" type="curve" smooth="yes"/>
      <point x="354" y="1575"/>
      <point x="341" y="1572"/>
      <point x="320" y="1565" type="curve" smooth="yes"/>
      <point x="299" y="1559"/>
      <point x="284" y="1556"/>
      <point x="275" y="1556" type="curve" smooth="yes"/>
      <point x="246" y="1556"/>
      <point x="220" y="1567"/>
      <point x="196" y="1590" type="curve" smooth="yes"/>
      <point x="172" y="1613"/>
      <point x="160" y="1642"/>
      <point x="160" y="1679" type="curve" smooth="yes"/>
      <point x="160" y="1720"/>
      <point x="177" y="1754"/>
      <point x="212" y="1780" type="curve"/>
      <point x="242" y="1800"/>
      <point x="275" y="1810"/>
      <point x="310" y="1810" type="curve" smooth="yes"/>
      <point x="359" y="1810"/>
      <point x="404" y="1790"/>
      <point x="443" y="1751" type="curve" smooth="yes"/>
      <point x="487" y="1706"/>
      <point x="509" y="1650"/>
      <point x="509" y="1583" type="curve" smooth="yes"/>
    </contour>
  </outline>
</glyph>
<glyph name="quotedblbase" format="2">
  <advance width="945"/>
  <unicode hex="201E"/>
  <outline>
    <contour>
      <point x="614" y="-333" type="line"/>
      <point x="694" y="-306"/>
      <point x="886" y="-219"/>
      <point x="886" y="-2" type="curve" smooth="yes"/>
      <point x="886" y="124"/>
      <point x="788" y="204"/>
      <point x="705" y="204" type="curve" smooth="yes"/>
      <point x="647" y="204"/>
      <point x="567" y="166"/>
      <point x="567" y="84" type="curve" smooth="yes"/>
      <point x="567" y="13"/>
      <point x="625" y="-27"/>
      <point x="672" y="-27" type="curve" smooth="yes"/>
      <point x="698" y="-27"/>
      <point x="732" y="-10"/>
      <point x="750" y="-10" type="curve" smooth="yes"/>
      <point x="760" y="-10"/>
      <point x="788" y="-19"/>
      <point x="788" y="-73" type="curve" smooth="yes"/>
      <point x="788" y="-186"/>
      <point x="688" y="-246"/>
      <point x="614" y="-289" type="curve"/>
    </contour>
    <contour>
      <point x="117" y="-332" type="line"/>
      <point x="197" y="-305"/>
      <point x="386" y="-217"/>
      <point x="386" y="0" type="curve" smooth="yes"/>
      <point x="386" y="126"/>
      <point x="291" y="206"/>
      <point x="206" y="206" type="curve" smooth="yes"/>
      <point x="149" y="206"/>
      <point x="69" y="168"/>
      <point x="69" y="86" type="curve" smooth="yes"/>
      <point x="69" y="15"/>
      <point x="126" y="-24"/>
      <point x="173" y="-24" type="curve" smooth="yes"/>
      <point x="200" y="-24"/>
      <point x="232" y="-8"/>
      <point x="252" y="-8" type="curve" smooth="yes"/>
      <point x="262" y="-8"/>
      <point x="291" y="-17"/>
      <point x="291" y="-71" type="curve" smooth="yes"/>
      <point x="291" y="-184"/>
      <point x="190" y="-244"/>
      <point x="117" y="-287" type="curve"/>
    </contour>
  </outline>
</glyph>
<glyph name="guilsinglleft" format="2">
  <advance width="709"/>
  <unicode hex="2039"/>
  <outline>
    <contour>
      <point x="582" y="-8" type="line"/>
      <point x="328" y="483" type="line"/>
      <point x="582" y="971" type="line"/>
      <point x="526" y="971" type="line"/>
      <point x="122" y="483" type="line"/>
      <point x="526" y="-8" type="line"/>
    </contour>
  </outline>
</glyph>
<glyph name="guilsinglright" format="2">
  <advance width="709"/>
  <unicode hex="203A"/>
  <outline>
    <contour>
      <point x="586" y="479" type="line"/>
      <point x="182" y="971" type="line"/>
      <point x="126" y="971" type="line"/>
      <point x="381" y="479" type="line"/>
      <point x="126" y="-8" type="line"/>
      <point x="182" y="-8" type="line"/>
    </contour>
  </outline>
</glyph>
<glyph name="Euro" format="2">
  <advance width="1066"/>
  <unicode hex="20AC"/>
  <outline>
    <contour>
      <point x="750" y="593" type="line"/>
      <point x="770" y="681" type="line"/>
      <point x="239" y="681" type="line"/>
      <point x="239" y="706"/>
      <point x="239" y="732"/>
      <point x="240" y="756" type="curve"/>
      <point x="788" y="756" type="line"/>
      <point x="809" y="844" type="line"/>
      <point x="246" y="844" type="line"/>
      <point x="278" y="1202"/>
      <point x="419" y="1369"/>
      <point x="608" y="1369" type="curve" smooth="yes"/>
      <point x="768" y="1369"/>
      <point x="892" y="1252"/>
      <point x="955" y="964" type="curve"/>
      <point x="980" y="964" type="line"/>
      <point x="955" y="1443" type="line"/>
      <point x="927" y="1443" type="line"/>
      <point x="917" y="1376"/>
      <point x="892" y="1344"/>
      <point x="864" y="1344" type="curve" smooth="yes"/>
      <point x="832" y="1344"/>
      <point x="752" y="1443"/>
      <point x="594" y="1443" type="curve" smooth="yes"/>
      <point x="317" y="1443"/>
      <point x="121" y="1181"/>
      <point x="74" y="844" type="curve"/>
      <point x="-40" y="844" type="line"/>
      <point x="-61" y="756" type="line"/>
      <point x="65" y="756" type="line"/>
      <point x="63" y="732"/>
      <point x="63" y="708"/>
      <point x="63" y="684" type="curve" smooth="yes"/>
      <point x="63" y="681" type="line"/>
      <point x="-40" y="681" type="line"/>
      <point x="-61" y="593" type="line"/>
      <point x="66" y="593" type="line"/>
      <point x="93" y="248"/>
      <point x="276" y="-33"/>
      <point x="570" y="-33" type="curve" smooth="yes"/>
      <point x="766" y="-33"/>
      <point x="898" y="84"/>
      <point x="1002" y="330" type="curve"/>
      <point x="980" y="352" type="line"/>
      <point x="856" y="117"/>
      <point x="766" y="59"/>
      <point x="630" y="59" type="curve" smooth="yes"/>
      <point x="411" y="59"/>
      <point x="263" y="247"/>
      <point x="241" y="593" type="curve"/>
    </contour>
  </outline>
</glyph>
<glyph name="minus" format="2">
  <advance width="2049"/>
  <unicode hex="2212"/>
  <outline>
    <contour>
      <point x="410" y="551" type="line"/>
      <point x="1639" y="551" type="line"/>
      <point x="1639" y="679" type="line"/>
      <point x="410" y="679" type="line"/>
    </contour>
  </outline>
</glyph>
<glyph name="integral" format="2">
  <advance width="966"/>
  <unicode hex="222B"/>
  <outline>
    <contour>
      <point x="890" y="1361" type="curve"/>
      <point x="910" y="1412"/>
      <point x="903" y="1457"/>
      <point x="859" y="1500" type="curve" smooth="yes"/>
      <point x="832" y="1525"/>
      <point x="762" y="1530"/>
      <point x="698" y="1519" type="curve" smooth="yes"/>
      <point x="496" y="1477"/>
      <point x="434" y="1321"/>
      <point x="413" y="748" type="curve" smooth="yes"/>
      <point x="406" y="518" type="line" smooth="yes"/>
      <point x="393" y="182"/>
      <point x="377" y="-139"/>
      <point x="373" y="-215" type="curve"/>
      <point x="367" y="-253"/>
      <point x="342" y="-313"/>
      <point x="226" y="-215" type="curve" smooth="yes"/>
      <point x="168" y="-162"/>
      <point x="88" y="-209"/>
      <point x="71" y="-246" type="curve" smooth="yes"/>
      <point x="50" y="-295"/>
      <point x="61" y="-342"/>
      <point x="101" y="-383" type="curve" smooth="yes"/>
      <point x="128" y="-408"/>
      <point x="197" y="-416"/>
      <point x="262" y="-401" type="curve" smooth="yes"/>
      <point x="446" y="-361"/>
      <point x="539" y="-266"/>
      <point x="563" y="381" type="curve" smooth="yes"/>
      <point x="573" y="655" type="line" smooth="yes"/>
      <point x="584" y="932"/>
      <point x="586" y="1258"/>
      <point x="592" y="1332" type="curve" smooth="yes"/>
      <point x="596" y="1370"/>
      <point x="624" y="1433"/>
      <point x="737" y="1334" type="curve" smooth="yes"/>
      <point x="797" y="1281"/>
      <point x="874" y="1326"/>
    </contour>
  </outline>
</glyph>
<glyph name="approxequal" format="2">
  <advance width="2049"/>
  <unicode hex="2248"/>
  <outline>
    <contour>
      <point x="1639" y="801" type="curve"/>
      <point x="1639" y="943" type="line"/>
      <point x="1498" y="817"/>
      <point x="1381" y="745"/>
      <point x="1133" y="821" type="curve" smooth="yes"/>
      <point x="1021" y="856"/>
      <point x="874" y="930"/>
      <point x="723" y="918" type="curve" smooth="yes"/>
      <point x="528" y="903"/>
      <point x="461" y="832"/>
      <point x="410" y="781" type="curve"/>
      <point x="410" y="639" type="line"/>
      <point x="563" y="788"/>
      <point x="670" y="852"/>
      <point x="1006" y="733" type="curve" smooth="yes"/>
      <point x="1139" y="686"/>
      <point x="1186" y="657"/>
      <point x="1348" y="668" type="curve" smooth="yes"/>
      <point x="1471" y="677"/>
      <point x="1583" y="750"/>
    </contour>
    <contour>
      <point x="1639" y="453" type="curve"/>
      <point x="1639" y="594" type="line"/>
      <point x="1498" y="469"/>
      <point x="1381" y="397"/>
      <point x="1133" y="473" type="curve" smooth="yes"/>
      <point x="1021" y="508"/>
      <point x="874" y="582"/>
      <point x="723" y="569" type="curve" smooth="yes"/>
      <point x="528" y="555"/>
      <point x="461" y="483"/>
      <point x="410" y="432" type="curve"/>
      <point x="410" y="291" type="line"/>
      <point x="563" y="439"/>
      <point x="670" y="504"/>
      <point x="1006" y="385" type="curve" smooth="yes"/>
      <point x="1139" y="338"/>
      <point x="1186" y="308"/>
      <point x="1348" y="319" type="curve" smooth="yes"/>
      <point x="1471" y="328"/>
      <point x="1583" y="401"/>
    </contour>
  </outline>
</glyph>
<glyph name="greaterequal" format="2">
  <advance width="2049"/>
  <unicode hex="2265"/>
  <outline>
    <contour>
      <point x="1639" y="629" type="line"/>
      <point x="1639" y="757" type="line"/>
      <point x="410" y="1146" type="line"/>
      <point x="410" y="1019" type="line"/>
      <point x="1508" y="692" type="line"/>
      <point x="410" y="367" type="line"/>
      <point x="410" y="240" type="line"/>
    </contour>
    <contour>
      <point x="1639" y="0" type="line"/>
      <point x="1639" y="113" type="line"/>
      <point x="410" y="113" type="line"/>
      <point x="410" y="0" type="line"/>
    </contour>
  </outline>
</glyph>
<glyph name="uni2462" format="2">
  <advance width="1600"/>
  <unicode hex="2462"/>
  <outline>
    <contour>
      <point x="799" y="182" type="curve" smooth="yes"/>
      <point x="1143" y="182"/>
      <point x="1423" y="462"/>
      <point x="1423" y="806" type="curve" smooth="yes"/>
      <point x="1423" y="1150"/>
      <point x="1143" y="1429"/>
      <point x="799" y="1429" type="curve" smooth="yes"/>
      <point x="456" y="1429"/>
      <point x="176" y="1150"/>
      <point x="176" y="806" type="curve" smooth="yes"/>
      <point x="176" y="462"/>
      <point x="456" y="182"/>
    </contour>
    <contour>
      <point x="799" y="265" type="curve" smooth="yes"/>
      <point x="501" y="265"/>
      <point x="259" y="507"/>
      <point x="259" y="806" type="curve" smooth="yes"/>
      <point x="259" y="1104"/>
      <point x="501" y="1346"/>
      <point x="799" y="1346" type="curve" smooth="yes"/>
      <point x="1098" y="1346"/>
      <point x="1340" y="1104"/>
      <point x="1340" y="806" type="curve" smooth="yes"/>
      <point x="1340" y="507"/>
      <point x="1098" y="265"/>
    </contour>
    <contour>
      <point x="723" y="458" type="curve" smooth="yes"/>
      <point x="804" y="458"/>
      <point x="869" y="480"/>
      <point x="916" y="522" type="curve" smooth="yes"/>
      <point x="965" y="566"/>
      <point x="989" y="622"/>
      <point x="989" y="691" type="curve" smooth="yes"/>
      <point x="989" y="778"/>
      <point x="947" y="837"/>
      <point x="864" y="868" type="curve"/>
      <point x="924" y="920"/>
      <point x="954" y="970"/>
      <point x="954" y="1019" type="curve" smooth="yes"/>
      <point x="954" y="1047"/>
      <point x="945" y="1075"/>
      <point x="924" y="1101" type="curve" smooth="yes"/>
      <point x="897" y="1136"/>
      <point x="854" y="1154"/>
      <point x="798" y="1154" type="curve" smooth="yes"/>
      <point x="746" y="1154"/>
      <point x="703" y="1136"/>
      <point x="670" y="1100" type="curve" smooth="yes"/>
      <point x="653" y="1082"/>
      <point x="635" y="1053"/>
      <point x="616" y="1013" type="curve"/>
      <point x="633" y="1004" type="line"/>
      <point x="667" y="1059"/>
      <point x="710" y="1086"/>
      <point x="763" y="1086" type="curve" smooth="yes"/>
      <point x="789" y="1086"/>
      <point x="813" y="1078"/>
      <point x="833" y="1063" type="curve" smooth="yes"/>
      <point x="859" y="1042"/>
      <point x="872" y="1013"/>
      <point x="872" y="973" type="curve" smooth="yes" name="hr01"/>
      <point x="872" y="921"/>
      <point x="849" y="881"/>
      <point x="805" y="851" type="curve" smooth="yes"/>
      <point x="777" y="832"/>
      <point x="748" y="821"/>
      <point x="720" y="818" type="curve"/>
      <point x="720" y="802" type="line"/>
      <point x="758" y="801"/>
      <point x="790" y="795"/>
      <point x="817" y="783" type="curve" smooth="yes"/>
      <point x="883" y="756"/>
      <point x="915" y="706"/>
      <point x="915" y="632" type="curve" smooth="yes"/>
      <point x="915" y="594"/>
      <point x="902" y="563"/>
      <point x="876" y="538" type="curve" smooth="yes"/>
      <point x="849" y="513"/>
      <point x="821" y="501"/>
      <point x="789" y="501" type="curve" smooth="yes"/>
      <point x="765" y="501"/>
      <point x="739" y="508"/>
      <point x="711" y="524" type="curve" smooth="yes"/>
      <point x="683" y="539"/>
      <point x="661" y="546"/>
      <point x="646" y="546" type="curve" smooth="yes"/>
      <point x="635" y="546"/>
      <point x="627" y="543"/>
      <point x="619" y="537" type="curve" smooth="yes"/>
      <point x="611" y="530"/>
      <point x="607" y="521"/>
      <point x="607" y="512" type="curve" smooth="yes"/>
      <point x="607" y="476"/>
      <point x="646" y="458"/>
    </contour>
  </outline>
</glyph>
<glyph name="uni2463" format="2">
  <advance width="1600"/>
  <unicode hex="2463"/>
  <outline>
    <contour>
      <point x="799" y="182" type="curve" smooth="yes"/>
      <point x="1143" y="182"/>
      <point x="1423" y="462"/>
      <point x="1423" y="806" type="curve" smooth="yes"/>
      <point x="1423" y="1150"/>
      <point x="1143" y="1429"/>
      <point x="799" y="1429" type="curve" smooth="yes"/>
      <point x="799" y="1429" type="line" smooth="yes"/>
      <point x="456" y="1429"/>
      <point x="176" y="1150"/>
      <point x="176" y="806" type="curve" smooth="yes"/>
      <point x="176" y="462"/>
      <point x="456" y="182"/>
    </contour>
    <contour>
      <point x="834" y="465" type="line"/>
      <point x="916" y="465" type="line"/>
      <point x="916" y="643" type="line"/>
      <point x="1004" y="643" type="line"/>
      <point x="1004" y="713" type="line"/>
      <point x="916" y="713" type="line"/>
      <point x="916" y="1151" type="line"/>
      <point x="861" y="1151" type="line"/>
      <point x="550" y="704" type="line"/>
      <point x="550" y="643" type="line"/>
      <point x="834" y="643" type="line"/>
    </contour>
    <contour>
      <point x="598" y="713" type="line"/>
      <point x="834" y="1046" type="line"/>
      <point x="834" y="713" type="line"/>
    </contour>
    <contour>
      <point x="799" y="265" type="curve" smooth="yes"/>
      <point x="501" y="265"/>
      <point x="259" y="507"/>
      <point x="259" y="806" type="curve" smooth="yes"/>
      <point x="259" y="1104"/>
      <point x="501" y="1346"/>
      <point x="799" y="1346" type="curve" smooth="yes"/>
      <point x="799" y="1346" type="line" smooth="yes"/>
      <point x="1098" y="1346"/>
      <point x="1340" y="1104"/>
      <point x="1340" y="806" type="curve" smooth="yes"/>
      <point x="1340" y="507"/>
      <point x="1098" y="265"/>
    </contour>
  </outline>
</glyph>
<glyph name="uni246A" format="2">
  <advance width="1600"/>
  <unicode hex="246A"/>
  <outline>
    <contour>
      <point x="799" y="1429" type="line" smooth="yes"/>
      <point x="1143" y="1429"/>
      <point x="1423" y="1150"/>
      <point x="1423" y="806" type="curve" smooth="yes"/>
      <point x="1423" y="462"/>
      <point x="1143" y="182"/>
      <point x="799" y="182" type="curve" smooth="yes"/>
      <point x="456" y="182"/>
      <point x="176" y="462"/>
      <point x="176" y="806" type="curve" smooth="yes"/>
      <point x="176" y="1150"/>
      <point x="456" y="1429"/>
      <point x="799" y="1429" type="curve" smooth="yes"/>
    </contour>
    <contour>
      <point x="799" y="1346" type="line" smooth="yes"/>
      <point x="501" y="1346"/>
      <point x="259" y="1104"/>
      <point x="259" y="806" type="curve" smooth="yes"/>
      <point x="259" y="507"/>
      <point x="501" y="265"/>
      <point x="799" y="265" type="curve" smooth="yes"/>
      <point x="1098" y="265"/>
      <point x="1340" y="507"/>
      <point x="1340" y="806" type="curve" smooth="yes"/>
      <point x="1340" y="1104"/>
      <point x="1098" y="1346"/>
      <point x="799" y="1346" type="curve" smooth="yes"/>
    </contour>
    <contour>
      <point x="1103" y="464" type="line"/>
      <point x="851" y="464" type="line"/>
      <point x="851" y="482" type="line"/>
      <point x="891" y="482"/>
      <point x="916" y="489"/>
      <point x="926" y="501" type="curve" smooth="yes"/>
      <point x="934" y="512"/>
      <point x="938" y="539"/>
      <point x="938" y="583" type="curve" smooth="yes"/>
      <point x="938" y="945" type="line" smooth="yes"/>
      <point x="938" y="992"/>
      <point x="938" y="1021"/>
      <point x="935" y="1033" type="curve" smooth="yes"/>
      <point x="930" y="1057"/>
      <point x="917" y="1069"/>
      <point x="898" y="1069" type="curve" smooth="yes"/>
      <point x="885" y="1069"/>
      <point x="867" y="1064"/>
      <point x="846" y="1054" type="curve"/>
      <point x="839" y="1070" type="line"/>
      <point x="1002" y="1150" type="line"/>
      <point x="1020" y="1150" type="line"/>
      <point x="1020" y="583" type="line" smooth="yes"/>
      <point x="1020" y="538"/>
      <point x="1023" y="511"/>
      <point x="1030" y="501" type="curve" smooth="yes"/>
      <point x="1039" y="489"/>
      <point x="1062" y="482"/>
      <point x="1103" y="482" type="curve"/>
    </contour>
    <contour>
      <point x="738" y="464" type="line"/>
      <point x="485" y="464" type="line"/>
      <point x="485" y="482" type="line"/>
      <point x="526" y="482"/>
      <point x="551" y="489"/>
      <point x="560" y="501" type="curve" smooth="yes"/>
      <point x="569" y="512"/>
      <point x="572" y="539"/>
      <point x="572" y="583" type="curve" smooth="yes"/>
      <point x="572" y="945" type="line" smooth="yes"/>
      <point x="572" y="992"/>
      <point x="572" y="1021"/>
      <point x="570" y="1033" type="curve" smooth="yes"/>
      <point x="565" y="1057"/>
      <point x="552" y="1069"/>
      <point x="533" y="1069" type="curve" smooth="yes"/>
      <point x="520" y="1069"/>
      <point x="502" y="1064"/>
      <point x="481" y="1054" type="curve"/>
      <point x="473" y="1070" type="line"/>
      <point x="636" y="1150" type="line"/>
      <point x="654" y="1150" type="line"/>
      <point x="654" y="583" type="line" smooth="yes"/>
      <point x="654" y="538"/>
      <point x="658" y="511"/>
      <point x="665" y="501" type="curve" smooth="yes"/>
      <point x="673" y="489"/>
      <point x="697" y="482"/>
      <point x="738" y="482" type="curve"/>
    </contour>
  </outline>
</glyph>
<glyph name="uni246B" format="2">
  <advance width="1600"/>
  <unicode hex="246B"/>
  <outline>
    <contour>
      <point x="799" y="1429" type="line" smooth="yes"/>
      <point x="1143" y="1429"/>
      <point x="1423" y="1150"/>
      <point x="1423" y="806" type="curve" smooth="yes"/>
      <point x="1423" y="462"/>
      <point x="1143" y="182"/>
      <point x="799" y="182" type="curve" smooth="yes"/>
      <point x="456" y="182"/>
      <point x="176" y="462"/>
      <point x="176" y="806" type="curve" smooth="yes"/>
      <point x="176" y="1150"/>
      <point x="456" y="1429"/>
      <point x="799" y="1429" type="curve" smooth="yes"/>
    </contour>
    <contour>
      <point x="799" y="1346" type="line" smooth="yes"/>
      <point x="501" y="1346"/>
      <point x="259" y="1104"/>
      <point x="259" y="806" type="curve" smooth="yes"/>
      <point x="259" y="507"/>
      <point x="501" y="265"/>
      <point x="799" y="265" type="curve" smooth="yes"/>
      <point x="1098" y="265"/>
      <point x="1340" y="507"/>
      <point x="1340" y="806" type="curve" smooth="yes"/>
      <point x="1340" y="1104"/>
      <point x="1098" y="1346"/>
      <point x="799" y="1346" type="curve" smooth="yes"/>
    </contour>
    <contour>
      <point x="1184" y="593" type="line"/>
      <point x="1136" y="464" type="line"/>
      <point x="741" y="464" type="line"/>
      <point x="741" y="482" type="line"/>
      <point x="802" y="538"/>
      <point x="845" y="580"/>
      <point x="871" y="607" type="curve" smooth="yes"/>
      <point x="918" y="654"/>
      <point x="957" y="700"/>
      <point x="986" y="743" type="curve" smooth="yes"/>
      <point x="1034" y="812"/>
      <point x="1058" y="872"/>
      <point x="1058" y="927" type="curve" smooth="yes"/>
      <point x="1058" y="978"/>
      <point x="1041" y="1016"/>
      <point x="1008" y="1044" type="curve" smooth="yes"/>
      <point x="982" y="1063"/>
      <point x="954" y="1073"/>
      <point x="926" y="1073" type="curve" smooth="yes"/>
      <point x="853" y="1073"/>
      <point x="804" y="1035"/>
      <point x="778" y="960" type="curve"/>
      <point x="760" y="960" type="line"/>
      <point x="766" y="1007"/>
      <point x="780" y="1045"/>
      <point x="803" y="1077" type="curve" smooth="yes"/>
      <point x="838" y="1126"/>
      <point x="886" y="1150"/>
      <point x="951" y="1150" type="curve" smooth="yes"/>
      <point x="1002" y="1150"/>
      <point x="1046" y="1134"/>
      <point x="1083" y="1102" type="curve" smooth="yes"/>
      <point x="1123" y="1069"/>
      <point x="1143" y="1026"/>
      <point x="1143" y="973" type="curve" smooth="yes"/>
      <point x="1143" y="896"/>
      <point x="1096" y="804"/>
      <point x="999" y="701" type="curve" smooth="yes"/>
      <point x="914" y="607"/>
      <point x="863" y="553"/>
      <point x="847" y="539" type="curve"/>
      <point x="1022" y="539" type="line" smooth="yes"/>
      <point x="1064" y="539"/>
      <point x="1091" y="540"/>
      <point x="1104" y="544" type="curve" smooth="yes"/>
      <point x="1127" y="550"/>
      <point x="1147" y="566"/>
      <point x="1165" y="593" type="curve"/>
    </contour>
    <contour>
      <point x="714" y="464" type="line"/>
      <point x="462" y="464" type="line"/>
      <point x="462" y="482" type="line"/>
      <point x="502" y="482"/>
      <point x="527" y="489"/>
      <point x="537" y="501" type="curve" smooth="yes"/>
      <point x="545" y="512"/>
      <point x="548" y="539"/>
      <point x="548" y="583" type="curve" smooth="yes"/>
      <point x="548" y="945" type="line" smooth="yes"/>
      <point x="548" y="992"/>
      <point x="548" y="1021"/>
      <point x="546" y="1033" type="curve" smooth="yes"/>
      <point x="541" y="1057"/>
      <point x="528" y="1069"/>
      <point x="509" y="1069" type="curve" smooth="yes"/>
      <point x="496" y="1069"/>
      <point x="478" y="1064"/>
      <point x="457" y="1054" type="curve"/>
      <point x="450" y="1070" type="line"/>
      <point x="613" y="1150" type="line"/>
      <point x="631" y="1150" type="line"/>
      <point x="631" y="583" type="line" smooth="yes"/>
      <point x="631" y="538"/>
      <point x="634" y="511"/>
      <point x="641" y="501" type="curve" smooth="yes"/>
      <point x="650" y="489"/>
      <point x="673" y="482"/>
      <point x="714" y="482" type="curve"/>
    </contour>
  </outline>
</glyph>
<glyph name="uni246D" format="2">
  <advance width="1600"/>
  <unicode hex="246D"/>
  <outline>
    <contour>
      <point x="799" y="1429" type="line" smooth="yes"/>
      <point x="1143" y="1429"/>
      <point x="1423" y="1150"/>
      <point x="1423" y="806" type="curve" smooth="yes"/>
      <point x="1423" y="462"/>
      <point x="1143" y="182"/>
      <point x="799" y="182" type="curve" smooth="yes"/>
      <point x="456" y="182"/>
      <point x="176" y="462"/>
      <point x="176" y="806" type="curve" smooth="yes"/>
      <point x="176" y="1150"/>
      <point x="456" y="1429"/>
      <point x="799" y="1429" type="curve" smooth="yes"/>
    </contour>
    <contour>
      <point x="799" y="1346" type="line" smooth="yes"/>
      <point x="501" y="1346"/>
      <point x="259" y="1104"/>
      <point x="259" y="806" type="curve" smooth="yes"/>
      <point x="259" y="507"/>
      <point x="501" y="265"/>
      <point x="799" y="265" type="curve" smooth="yes"/>
      <point x="1098" y="265"/>
      <point x="1340" y="507"/>
      <point x="1340" y="806" type="curve" smooth="yes"/>
      <point x="1340" y="1104"/>
      <point x="1098" y="1346"/>
      <point x="799" y="1346" type="curve" smooth="yes"/>
    </contour>
    <contour>
      <point x="1135" y="643" type="line"/>
      <point x="1047" y="643" type="line"/>
      <point x="1047" y="465" type="line"/>
      <point x="965" y="465" type="line"/>
      <point x="965" y="643" type="line"/>
      <point x="680" y="643" type="line"/>
      <point x="680" y="704" type="line"/>
      <point x="992" y="1151" type="line"/>
      <point x="1047" y="1151" type="line"/>
      <point x="1047" y="713" type="line"/>
      <point x="1135" y="713" type="line"/>
    </contour>
    <contour>
      <point x="965" y="713" type="line"/>
      <point x="965" y="1046" type="line"/>
      <point x="729" y="713" type="line"/>
    </contour>
    <contour>
      <point x="714" y="464" type="line"/>
      <point x="462" y="464" type="line"/>
      <point x="462" y="482" type="line"/>
      <point x="502" y="482"/>
      <point x="527" y="489"/>
      <point x="537" y="501" type="curve" smooth="yes"/>
      <point x="545" y="512"/>
      <point x="548" y="539"/>
      <point x="548" y="583" type="curve" smooth="yes"/>
      <point x="548" y="945" type="line" smooth="yes"/>
      <point x="548" y="992"/>
      <point x="548" y="1021"/>
      <point x="546" y="1033" type="curve" smooth="yes"/>
      <point x="541" y="1057"/>
      <point x="528" y="1069"/>
      <point x="509" y="1069" type="curve" smooth="yes"/>
      <point x="496" y="1069"/>
      <point x="478" y="1064"/>
      <point x="457" y="1054" type="curve"/>
      <point x="450" y="1070" type="line"/>
      <point x="613" y="1150" type="line"/>
      <point x="631" y="1150" type="line"/>
      <point x="631" y="583" type="line" smooth="yes"/>
      <point x="631" y="538"/>
      <point x="634" y="511"/>
      <point x="641" y="501" type="curve" smooth="yes"/>
      <point x="650" y="489"/>
      <point x="673" y="482"/>
      <point x="714" y="482" type="curve"/>
    </contour>
  </outline>
</glyph>
<glyph name="uni246E" format="2">
  <advance width="1600"/>
  <unicode hex="246E"/>
  <outline>
    <contour>
      <point x="799" y="1429" type="line" smooth="yes"/>
      <point x="1143" y="1429"/>
      <point x="1423" y="1150"/>
      <point x="1423" y="806" type="curve" smooth="yes"/>
      <point x="1423" y="462"/>
      <point x="1143" y="182"/>
      <point x="799" y="182" type="curve" smooth="yes"/>
      <point x="456" y="182"/>
      <point x="176" y="462"/>
      <point x="176" y="806" type="curve" smooth="yes"/>
      <point x="176" y="1150"/>
      <point x="456" y="1429"/>
      <point x="799" y="1429" type="curve" smooth="yes"/>
    </contour>
    <contour>
      <point x="799" y="1346" type="line" smooth="yes"/>
      <point x="501" y="1346"/>
      <point x="259" y="1104"/>
      <point x="259" y="806" type="curve" smooth="yes"/>
      <point x="259" y="507"/>
      <point x="501" y="265"/>
      <point x="799" y="265" type="curve" smooth="yes"/>
      <point x="1098" y="265"/>
      <point x="1340" y="507"/>
      <point x="1340" y="806" type="curve" smooth="yes"/>
      <point x="1340" y="1104"/>
      <point x="1098" y="1346"/>
      <point x="799" y="1346" type="curve" smooth="yes"/>
    </contour>
    <contour>
      <point x="1153" y="1150" type="line"/>
      <point x="1115" y="1065" type="line"/>
      <point x="914" y="1065" type="line"/>
      <point x="869" y="976" type="line"/>
      <point x="923" y="971"/>
      <point x="977" y="952"/>
      <point x="1029" y="917" type="curve" smooth="yes"/>
      <point x="1105" y="869"/>
      <point x="1142" y="802"/>
      <point x="1142" y="720" type="curve" smooth="yes"/>
      <point x="1142" y="644"/>
      <point x="1112" y="581"/>
      <point x="1052" y="532" type="curve" smooth="yes"/>
      <point x="999" y="489"/>
      <point x="941" y="468"/>
      <point x="877" y="468" type="curve" smooth="yes"/>
      <point x="840" y="468"/>
      <point x="811" y="474"/>
      <point x="792" y="486" type="curve" smooth="yes"/>
      <point x="772" y="497"/>
      <point x="763" y="514"/>
      <point x="763" y="532" type="curve" smooth="yes"/>
      <point x="763" y="557"/>
      <point x="776" y="569"/>
      <point x="802" y="569" type="curve" smooth="yes"/>
      <point x="816" y="569"/>
      <point x="835" y="560"/>
      <point x="860" y="543" type="curve" smooth="yes"/>
      <point x="885" y="526"/>
      <point x="909" y="518"/>
      <point x="933" y="518" type="curve" smooth="yes"/>
      <point x="972" y="518"/>
      <point x="1005" y="532"/>
      <point x="1035" y="562" type="curve" smooth="yes"/>
      <point x="1064" y="590"/>
      <point x="1078" y="626"/>
      <point x="1078" y="668" type="curve" smooth="yes"/>
      <point x="1078" y="728"/>
      <point x="1053" y="778"/>
      <point x="1004" y="819" type="curve" smooth="yes"/>
      <point x="952" y="863"/>
      <point x="878" y="885"/>
      <point x="785" y="889" type="curve"/>
      <point x="914" y="1150" type="line"/>
    </contour>
    <contour>
      <point x="714" y="464" type="line"/>
      <point x="462" y="464" type="line"/>
      <point x="462" y="482" type="line"/>
      <point x="502" y="482"/>
      <point x="527" y="489"/>
      <point x="537" y="501" type="curve" smooth="yes"/>
      <point x="545" y="512"/>
      <point x="548" y="539"/>
      <point x="548" y="583" type="curve" smooth="yes"/>
      <point x="548" y="945" type="line" smooth="yes"/>
      <point x="548" y="992"/>
      <point x="548" y="1021"/>
      <point x="546" y="1033" type="curve" smooth="yes"/>
      <point x="541" y="1057"/>
      <point x="528" y="1069"/>
      <point x="509" y="1069" type="curve" smooth="yes"/>
      <point x="496" y="1069"/>
      <point x="478" y="1064"/>
      <point x="457" y="1054" type="curve"/>
      <point x="450" y="1070" type="line"/>
      <point x="613" y="1150" type="line"/>
      <point x="631" y="1150" type="line"/>
      <point x="631" y="583" type="line" smooth="yes"/>
      <point x="631" y="538"/>
      <point x="634" y="511"/>
      <point x="641" y="501" type="curve" smooth="yes"/>
      <point x="650" y="489"/>
      <point x="673" y="482"/>
      <point x="714" y="482" type="curve"/>
    </contour>
  </outline>
</glyph>
